G04 #@! TF.FileFunction,Soldermask,Bot*
%FSLAX46Y46*%
G04 Gerber Fmt 4.6, Leading zero omitted, Abs format (unit mm)*
G04 Created by KiCad (PCBNEW 4.0.5-e0-6337~49~ubuntu14.04.1) date Fri Jan 20 00:49:03 2017*
%MOMM*%
%LPD*%
G01*
G04 APERTURE LIST*
%ADD10C,0.200000*%
%ADD11R,0.800100X1.800860*%
%ADD12R,0.650000X1.060000*%
%ADD13R,1.500000X1.250000*%
%ADD14R,1.250000X1.500000*%
%ADD15R,3.500120X3.500120*%
%ADD16R,0.600000X0.700000*%
%ADD17R,0.700000X0.600000*%
%ADD18R,1.800860X3.500120*%
%ADD19R,1.800860X0.800100*%
%ADD20C,2.000000*%
%ADD21R,1.500000X0.600000*%
%ADD22R,1.200000X2.000000*%
%ADD23R,1.000000X0.825000*%
%ADD24C,2.024000*%
%ADD25C,3.500000*%
%ADD26R,1.350000X0.400000*%
%ADD27O,0.950000X1.250000*%
%ADD28O,1.550000X1.000000*%
%ADD29R,2.032000X2.032000*%
%ADD30O,2.032000X2.032000*%
%ADD31R,1.727200X1.727200*%
%ADD32O,1.727200X1.727200*%
%ADD33R,2.032000X1.727200*%
%ADD34O,2.032000X1.727200*%
%ADD35O,1.501140X2.499360*%
%ADD36R,1.300000X1.500000*%
%ADD37R,1.500000X1.300000*%
%ADD38C,4.000000*%
%ADD39R,2.400000X0.760000*%
%ADD40R,1.400000X0.300000*%
%ADD41R,0.600000X1.550000*%
%ADD42R,1.560000X0.650000*%
%ADD43R,1.550000X0.600000*%
%ADD44R,0.450000X1.750000*%
%ADD45C,3.000000*%
%ADD46R,1.000000X0.500000*%
%ADD47R,0.500000X1.000000*%
G04 APERTURE END LIST*
D10*
D11*
X133690400Y-75059540D03*
X131790400Y-75059540D03*
X132740400Y-72057260D03*
D12*
X121097000Y-73068000D03*
X122047000Y-73068000D03*
X122997000Y-73068000D03*
X122997000Y-75268000D03*
X121097000Y-75268000D03*
D13*
X120797000Y-70358000D03*
X123297000Y-70358000D03*
X120797000Y-78740000D03*
X123297000Y-78740000D03*
D14*
X128397000Y-80919000D03*
X128397000Y-83419000D03*
D13*
X132100000Y-82296000D03*
X134600000Y-82296000D03*
D14*
X139827000Y-75204000D03*
X139827000Y-77704000D03*
D13*
X129560000Y-62738000D03*
X132060000Y-62738000D03*
D14*
X126492000Y-63226000D03*
X126492000Y-60726000D03*
D13*
X137394000Y-62484000D03*
X134894000Y-62484000D03*
X135656000Y-66167000D03*
X138156000Y-66167000D03*
D14*
X121983500Y-68369500D03*
X121983500Y-65869500D03*
D13*
X132060000Y-64579500D03*
X129560000Y-64579500D03*
X155849000Y-59944000D03*
X158349000Y-59944000D03*
D14*
X178562000Y-83332000D03*
X178562000Y-85832000D03*
X145542000Y-59035000D03*
X145542000Y-56535000D03*
D13*
X138156000Y-57785000D03*
X135656000Y-57785000D03*
D10*
G36*
X120947729Y-63451155D02*
X120063845Y-62567271D01*
X121124505Y-61506611D01*
X122008389Y-62390495D01*
X120947729Y-63451155D01*
X120947729Y-63451155D01*
G37*
G36*
X122715495Y-61683389D02*
X121831611Y-60799505D01*
X122892271Y-59738845D01*
X123776155Y-60622729D01*
X122715495Y-61683389D01*
X122715495Y-61683389D01*
G37*
D14*
X136207500Y-48724500D03*
X136207500Y-51224500D03*
D13*
X145181000Y-53340000D03*
X147681000Y-53340000D03*
X157333000Y-71628000D03*
X154833000Y-71628000D03*
X153396000Y-66294000D03*
X150896000Y-66294000D03*
D14*
X157099000Y-79903000D03*
X157099000Y-82403000D03*
D13*
X151023000Y-63881000D03*
X153523000Y-63881000D03*
D14*
X161417000Y-79903000D03*
X161417000Y-82403000D03*
D13*
X160421000Y-63246000D03*
X162921000Y-63246000D03*
D14*
X168783000Y-69068000D03*
X168783000Y-66568000D03*
D13*
X136505000Y-68135500D03*
X134005000Y-68135500D03*
D10*
G36*
X119365345Y-111740229D02*
X120249229Y-110856345D01*
X121309889Y-111917005D01*
X120426005Y-112800889D01*
X119365345Y-111740229D01*
X119365345Y-111740229D01*
G37*
G36*
X121133111Y-113507995D02*
X122016995Y-112624111D01*
X123077655Y-113684771D01*
X122193771Y-114568655D01*
X121133111Y-113507995D01*
X121133111Y-113507995D01*
G37*
G36*
X160825729Y-108129755D02*
X159941845Y-107245871D01*
X161002505Y-106185211D01*
X161886389Y-107069095D01*
X160825729Y-108129755D01*
X160825729Y-108129755D01*
G37*
G36*
X162593495Y-106361989D02*
X161709611Y-105478105D01*
X162770271Y-104417445D01*
X163654155Y-105301329D01*
X162593495Y-106361989D01*
X162593495Y-106361989D01*
G37*
D14*
X137287000Y-89936000D03*
X137287000Y-92436000D03*
D13*
X137561000Y-96774000D03*
X140061000Y-96774000D03*
D14*
X150495000Y-88158000D03*
X150495000Y-90658000D03*
D13*
X144165000Y-85217000D03*
X146665000Y-85217000D03*
D10*
G36*
X159660863Y-96117598D02*
X162065026Y-98521761D01*
X161640761Y-98946026D01*
X159236598Y-96541863D01*
X159660863Y-96117598D01*
X159660863Y-96117598D01*
G37*
G36*
X163479239Y-99935974D02*
X165883402Y-102340137D01*
X165459137Y-102764402D01*
X163054974Y-100360239D01*
X163479239Y-99935974D01*
X163479239Y-99935974D01*
G37*
G36*
X166291845Y-106088729D02*
X167175729Y-105204845D01*
X168236389Y-106265505D01*
X167352505Y-107149389D01*
X166291845Y-106088729D01*
X166291845Y-106088729D01*
G37*
G36*
X168059611Y-107856495D02*
X168943495Y-106972611D01*
X170004155Y-108033271D01*
X169120271Y-108917155D01*
X168059611Y-107856495D01*
X168059611Y-107856495D01*
G37*
D13*
X148673500Y-97218500D03*
X151173500Y-97218500D03*
D10*
G36*
X153691863Y-106150598D02*
X156096026Y-108554761D01*
X155671761Y-108979026D01*
X153267598Y-106574863D01*
X153691863Y-106150598D01*
X153691863Y-106150598D01*
G37*
G36*
X157510239Y-109968974D02*
X159914402Y-112373137D01*
X159490137Y-112797402D01*
X157085974Y-110393239D01*
X157510239Y-109968974D01*
X157510239Y-109968974D01*
G37*
D15*
X154581860Y-55753000D03*
X160581340Y-55753000D03*
X157581600Y-51054000D03*
D16*
X141667000Y-61468000D03*
X143067000Y-61468000D03*
D17*
X147574000Y-57847000D03*
X147574000Y-59247000D03*
D18*
X150368000Y-57363360D03*
X150368000Y-52364640D03*
D11*
X134744500Y-51475640D03*
X132844500Y-51475640D03*
X133794500Y-48473360D03*
D10*
G36*
X163221702Y-103589387D02*
X163787387Y-103023702D01*
X164353072Y-103589387D01*
X163787387Y-104155072D01*
X163221702Y-103589387D01*
X163221702Y-103589387D01*
G37*
G36*
X164038410Y-104618228D02*
X164816228Y-103840410D01*
X166230442Y-105254624D01*
X165452624Y-106032442D01*
X164038410Y-104618228D01*
X164038410Y-104618228D01*
G37*
G36*
X116095604Y-109495863D02*
X114822204Y-108222463D01*
X115387960Y-107656707D01*
X116661360Y-108930107D01*
X116095604Y-109495863D01*
X116095604Y-109495863D01*
G37*
G36*
X117439107Y-108152360D02*
X116165707Y-106878960D01*
X116731463Y-106313204D01*
X118004863Y-107586604D01*
X117439107Y-108152360D01*
X117439107Y-108152360D01*
G37*
G36*
X118890288Y-110947044D02*
X117616888Y-109673644D01*
X118182644Y-109107888D01*
X119456044Y-110381288D01*
X118890288Y-110947044D01*
X118890288Y-110947044D01*
G37*
D19*
X117426740Y-93842800D03*
X117426740Y-95742800D03*
X114424460Y-94792800D03*
D11*
X109001600Y-99849940D03*
X107101600Y-99849940D03*
X108051600Y-96847660D03*
D10*
G36*
X171410457Y-63236695D02*
X172329695Y-62317457D01*
X173390355Y-63378117D01*
X172471117Y-64297355D01*
X171410457Y-63236695D01*
X171410457Y-63236695D01*
G37*
G36*
X173319645Y-65145883D02*
X174238883Y-64226645D01*
X175299543Y-65287305D01*
X174380305Y-66206543D01*
X173319645Y-65145883D01*
X173319645Y-65145883D01*
G37*
G36*
X175396305Y-97623457D02*
X176315543Y-98542695D01*
X175254883Y-99603355D01*
X174335645Y-98684117D01*
X175396305Y-97623457D01*
X175396305Y-97623457D01*
G37*
G36*
X173487117Y-99532645D02*
X174406355Y-100451883D01*
X173345695Y-101512543D01*
X172426457Y-100593305D01*
X173487117Y-99532645D01*
X173487117Y-99532645D01*
G37*
G36*
X166462295Y-113196543D02*
X165543057Y-112277305D01*
X166603717Y-111216645D01*
X167522955Y-112135883D01*
X166462295Y-113196543D01*
X166462295Y-113196543D01*
G37*
G36*
X168371483Y-111287355D02*
X167452245Y-110368117D01*
X168512905Y-109307457D01*
X169432143Y-110226695D01*
X168371483Y-111287355D01*
X168371483Y-111287355D01*
G37*
G36*
X168665305Y-100925457D02*
X169584543Y-101844695D01*
X168523883Y-102905355D01*
X167604645Y-101986117D01*
X168665305Y-100925457D01*
X168665305Y-100925457D01*
G37*
G36*
X166756117Y-102834645D02*
X167675355Y-103753883D01*
X166614695Y-104814543D01*
X165695457Y-103895305D01*
X166756117Y-102834645D01*
X166756117Y-102834645D01*
G37*
D20*
X171164365Y-106578590D03*
X173568528Y-97103359D03*
X167699542Y-98588284D03*
X169962284Y-96325542D03*
X177740458Y-100002497D03*
X174558478Y-103184478D03*
X171022944Y-99648944D03*
D21*
X126471000Y-68633000D03*
X133371000Y-65733000D03*
X149373000Y-60018000D03*
X142473000Y-62918000D03*
D22*
X145567400Y-68707000D03*
X148310600Y-68707000D03*
X148234400Y-81153000D03*
X150977600Y-81153000D03*
X148310600Y-65659000D03*
X145567400Y-65659000D03*
X150977600Y-84328000D03*
X148234400Y-84328000D03*
D23*
X122533600Y-81661000D03*
X125370400Y-81661000D03*
X125370400Y-83134200D03*
X122533600Y-83134200D03*
D24*
X133350000Y-59610000D03*
X130810000Y-59610000D03*
D25*
X128350000Y-54610000D03*
X138350000Y-54610000D03*
D26*
X176110460Y-90266100D03*
X176110460Y-90916100D03*
X176110460Y-91566100D03*
X176110460Y-92216100D03*
X176110460Y-92866100D03*
D27*
X176110460Y-89066100D03*
X176110460Y-94066100D03*
D28*
X178810460Y-88066100D03*
X178810460Y-95066100D03*
D29*
X111760000Y-99060000D03*
D30*
X114300000Y-99060000D03*
D29*
X109220000Y-93980000D03*
D30*
X111760000Y-93980000D03*
D31*
X109220000Y-71120000D03*
D32*
X111760000Y-71120000D03*
X109220000Y-73660000D03*
X111760000Y-73660000D03*
X109220000Y-76200000D03*
X111760000Y-76200000D03*
X109220000Y-78740000D03*
X111760000Y-78740000D03*
X109220000Y-81280000D03*
X111760000Y-81280000D03*
X109220000Y-83820000D03*
X111760000Y-83820000D03*
X109220000Y-86360000D03*
X111760000Y-86360000D03*
X109220000Y-88900000D03*
X111760000Y-88900000D03*
D33*
X116840000Y-71120000D03*
D34*
X116840000Y-73660000D03*
X116840000Y-76200000D03*
X116840000Y-78740000D03*
X116840000Y-81280000D03*
X116840000Y-83820000D03*
X116840000Y-86360000D03*
X116840000Y-88900000D03*
D33*
X170180000Y-76200000D03*
D34*
X170180000Y-78740000D03*
X170180000Y-81280000D03*
X170180000Y-83820000D03*
D31*
X137160000Y-119380000D03*
D32*
X137160000Y-116840000D03*
X139700000Y-119380000D03*
X139700000Y-116840000D03*
X142240000Y-119380000D03*
X142240000Y-116840000D03*
X144780000Y-119380000D03*
X144780000Y-116840000D03*
D29*
X124460000Y-58420000D03*
D30*
X124460000Y-55880000D03*
D35*
X144780000Y-50165000D03*
X142240000Y-50165000D03*
X147320000Y-50165000D03*
D19*
X139931140Y-69471500D03*
X139931140Y-71371500D03*
X136928860Y-70421500D03*
D36*
X128905000Y-72818000D03*
X128905000Y-75518000D03*
X126365000Y-72818000D03*
X126365000Y-75518000D03*
X142748000Y-78152000D03*
X142748000Y-80852000D03*
X144907000Y-76755000D03*
X144907000Y-79455000D03*
D37*
X137381000Y-82169000D03*
X140081000Y-82169000D03*
X142541000Y-82931000D03*
X145241000Y-82931000D03*
D36*
X135890000Y-72945000D03*
X135890000Y-75645000D03*
D37*
X134192000Y-70040500D03*
X131492000Y-70040500D03*
D36*
X139827000Y-61769000D03*
X139827000Y-64469000D03*
D37*
X124126000Y-67056000D03*
X126826000Y-67056000D03*
X124126000Y-65087500D03*
X126826000Y-65087500D03*
D10*
G36*
X175093457Y-67046695D02*
X176012695Y-66127457D01*
X177073355Y-67188117D01*
X176154117Y-68107355D01*
X175093457Y-67046695D01*
X175093457Y-67046695D01*
G37*
G36*
X177002645Y-68955883D02*
X177921883Y-68036645D01*
X178982543Y-69097305D01*
X178063305Y-70016543D01*
X177002645Y-68955883D01*
X177002645Y-68955883D01*
G37*
D36*
X142367000Y-55800000D03*
X142367000Y-58500000D03*
D10*
G36*
X119902143Y-64372905D02*
X118982905Y-65292143D01*
X117922245Y-64231483D01*
X118841483Y-63312245D01*
X119902143Y-64372905D01*
X119902143Y-64372905D01*
G37*
G36*
X117992955Y-62463717D02*
X117073717Y-63382955D01*
X116013057Y-62322295D01*
X116932295Y-61403057D01*
X117992955Y-62463717D01*
X117992955Y-62463717D01*
G37*
D36*
X138557000Y-48688000D03*
X138557000Y-51388000D03*
D10*
G36*
X114006457Y-63744695D02*
X114925695Y-62825457D01*
X115986355Y-63886117D01*
X115067117Y-64805355D01*
X114006457Y-63744695D01*
X114006457Y-63744695D01*
G37*
G36*
X115915645Y-65653883D02*
X116834883Y-64734645D01*
X117895543Y-65795305D01*
X116976305Y-66714543D01*
X115915645Y-65653883D01*
X115915645Y-65653883D01*
G37*
G36*
X118608695Y-60999543D02*
X117689457Y-60080305D01*
X118750117Y-59019645D01*
X119669355Y-59938883D01*
X118608695Y-60999543D01*
X118608695Y-60999543D01*
G37*
G36*
X120517883Y-59090355D02*
X119598645Y-58171117D01*
X120659305Y-57110457D01*
X121578543Y-58029695D01*
X120517883Y-59090355D01*
X120517883Y-59090355D01*
G37*
D37*
X150923000Y-68707000D03*
X153623000Y-68707000D03*
D36*
X154813000Y-81995000D03*
X154813000Y-79295000D03*
D37*
X150923000Y-61595000D03*
X153623000Y-61595000D03*
D36*
X163703000Y-79803000D03*
X163703000Y-82503000D03*
X157861000Y-68787000D03*
X157861000Y-66087000D03*
D37*
X168736000Y-63246000D03*
X166036000Y-63246000D03*
D36*
X167386000Y-79632800D03*
X167386000Y-76932800D03*
D37*
X165078400Y-77571600D03*
X162378400Y-77571600D03*
D36*
X159258000Y-80184000D03*
X159258000Y-82884000D03*
D10*
G36*
X120577195Y-109323043D02*
X119657957Y-108403805D01*
X120718617Y-107343145D01*
X121637855Y-108262383D01*
X120577195Y-109323043D01*
X120577195Y-109323043D01*
G37*
G36*
X122486383Y-107413855D02*
X121567145Y-106494617D01*
X122627805Y-105433957D01*
X123547043Y-106353195D01*
X122486383Y-107413855D01*
X122486383Y-107413855D01*
G37*
G36*
X122578957Y-112131695D02*
X123498195Y-111212457D01*
X124558855Y-112273117D01*
X123639617Y-113192355D01*
X122578957Y-112131695D01*
X122578957Y-112131695D01*
G37*
G36*
X124488145Y-114040883D02*
X125407383Y-113121645D01*
X126468043Y-114182305D01*
X125548805Y-115101543D01*
X124488145Y-114040883D01*
X124488145Y-114040883D01*
G37*
D37*
X138032500Y-73215500D03*
X140732500Y-73215500D03*
D10*
G36*
X120292957Y-55807195D02*
X121212195Y-54887957D01*
X122272855Y-55948617D01*
X121353617Y-56867855D01*
X120292957Y-55807195D01*
X120292957Y-55807195D01*
G37*
G36*
X122202145Y-57716383D02*
X123121383Y-56797145D01*
X124182043Y-57857805D01*
X123262805Y-58777043D01*
X122202145Y-57716383D01*
X122202145Y-57716383D01*
G37*
D37*
X139780000Y-109169200D03*
X137080000Y-109169200D03*
X164316400Y-94437200D03*
X161616400Y-94437200D03*
D36*
X156870400Y-121492000D03*
X156870400Y-118792000D03*
D37*
X140382000Y-102235000D03*
X143082000Y-102235000D03*
X140382000Y-100457000D03*
X143082000Y-100457000D03*
X140759200Y-98653600D03*
X143459200Y-98653600D03*
D10*
G36*
X156348257Y-103622695D02*
X157267495Y-102703457D01*
X158328155Y-103764117D01*
X157408917Y-104683355D01*
X156348257Y-103622695D01*
X156348257Y-103622695D01*
G37*
G36*
X158257445Y-105531883D02*
X159176683Y-104612645D01*
X160237343Y-105673305D01*
X159318105Y-106592543D01*
X158257445Y-105531883D01*
X158257445Y-105531883D01*
G37*
D36*
X156921200Y-100968800D03*
X156921200Y-98268800D03*
D37*
X144225000Y-104394000D03*
X141525000Y-104394000D03*
X149432000Y-101193600D03*
X146732000Y-101193600D03*
D10*
G36*
X169759457Y-102606695D02*
X170678695Y-101687457D01*
X171739355Y-102748117D01*
X170820117Y-103667355D01*
X169759457Y-102606695D01*
X169759457Y-102606695D01*
G37*
G36*
X171668645Y-104515883D02*
X172587883Y-103596645D01*
X173648543Y-104657305D01*
X172729305Y-105576543D01*
X171668645Y-104515883D01*
X171668645Y-104515883D01*
G37*
D37*
X180039000Y-97155000D03*
X177339000Y-97155000D03*
D36*
X106680000Y-75612000D03*
X106680000Y-78312000D03*
X106680000Y-80311000D03*
X106680000Y-83011000D03*
X106680000Y-85010000D03*
X106680000Y-87710000D03*
X106680000Y-89709000D03*
X106680000Y-92409000D03*
D37*
X111743500Y-68453000D03*
X114443500Y-68453000D03*
D36*
X114300000Y-70849500D03*
X114300000Y-73549500D03*
X114300000Y-75612000D03*
X114300000Y-78312000D03*
X114300000Y-80311000D03*
X114300000Y-83011000D03*
X114300000Y-85010000D03*
X114300000Y-87710000D03*
X114300000Y-89709000D03*
X114300000Y-92409000D03*
D20*
X154345000Y-116720000D03*
X159345000Y-116720000D03*
X156845000Y-116720000D03*
X154345000Y-102220000D03*
X159345000Y-102220000D03*
D38*
X149845000Y-109220000D03*
X163845000Y-109220000D03*
D39*
X159441000Y-73787000D03*
X159441000Y-76327000D03*
X155011000Y-73787000D03*
X155011000Y-75057000D03*
X155011000Y-76327000D03*
D40*
X131277000Y-79994000D03*
X131277000Y-79494000D03*
X131277000Y-78994000D03*
X131277000Y-78494000D03*
X131277000Y-77994000D03*
X135677000Y-77994000D03*
X135677000Y-78494000D03*
X135677000Y-78994000D03*
X135677000Y-79494000D03*
X135677000Y-79994000D03*
D41*
X178943000Y-80678000D03*
X177673000Y-80678000D03*
X176403000Y-80678000D03*
X175133000Y-80678000D03*
X175133000Y-75278000D03*
X176403000Y-75278000D03*
X177673000Y-75278000D03*
X178943000Y-75278000D03*
D42*
X149559000Y-71694000D03*
X149559000Y-72644000D03*
X149559000Y-73594000D03*
X146859000Y-73594000D03*
X146859000Y-71694000D03*
X146859000Y-72644000D03*
X150829000Y-76139000D03*
X150829000Y-77089000D03*
X150829000Y-78039000D03*
X148129000Y-78039000D03*
X148129000Y-76139000D03*
X148129000Y-77089000D03*
D43*
X160495000Y-69977000D03*
X160495000Y-68707000D03*
X160495000Y-67437000D03*
X160495000Y-66167000D03*
X165895000Y-66167000D03*
X165895000Y-67437000D03*
X165895000Y-68707000D03*
X165895000Y-69977000D03*
D44*
X139666000Y-87459000D03*
X140316000Y-87459000D03*
X140966000Y-87459000D03*
X141616000Y-87459000D03*
X142266000Y-87459000D03*
X142916000Y-87459000D03*
X143566000Y-87459000D03*
X144216000Y-87459000D03*
X144866000Y-87459000D03*
X145516000Y-87459000D03*
X146166000Y-87459000D03*
X146816000Y-87459000D03*
X147466000Y-87459000D03*
X148116000Y-87459000D03*
X148116000Y-94659000D03*
X147466000Y-94659000D03*
X146816000Y-94659000D03*
X146166000Y-94659000D03*
X145516000Y-94659000D03*
X144866000Y-94659000D03*
X144216000Y-94659000D03*
X143566000Y-94659000D03*
X142916000Y-94659000D03*
X142266000Y-94659000D03*
X141616000Y-94659000D03*
X140966000Y-94659000D03*
X140316000Y-94659000D03*
X139666000Y-94659000D03*
D45*
X178689000Y-69850000D03*
D10*
G36*
X141725803Y-68601250D02*
X142432910Y-69308357D01*
X142079357Y-69661910D01*
X141372250Y-68954803D01*
X141725803Y-68601250D01*
X141725803Y-68601250D01*
G37*
G36*
X143162643Y-70038090D02*
X143869750Y-70745197D01*
X143516197Y-71098750D01*
X142809090Y-70391643D01*
X143162643Y-70038090D01*
X143162643Y-70038090D01*
G37*
G36*
X143516197Y-68601250D02*
X143869750Y-68954803D01*
X143162643Y-69661910D01*
X142809090Y-69308357D01*
X143516197Y-68601250D01*
X143516197Y-68601250D01*
G37*
G36*
X142079357Y-70038090D02*
X142432910Y-70391643D01*
X141725803Y-71098750D01*
X141372250Y-70745197D01*
X142079357Y-70038090D01*
X142079357Y-70038090D01*
G37*
D46*
X141605000Y-66294000D03*
X143637000Y-66294000D03*
D47*
X142621000Y-65278000D03*
X142621000Y-67310000D03*
D19*
X129580640Y-69344500D03*
X129580640Y-71244500D03*
X126578360Y-70294500D03*
D11*
X134655600Y-106098340D03*
X132755600Y-106098340D03*
X133705600Y-103096060D03*
X145476000Y-109806740D03*
X143576000Y-109806740D03*
X144526000Y-106804460D03*
D19*
X151343360Y-105623400D03*
X151343360Y-103723400D03*
X154345640Y-104673400D03*
D11*
X148981200Y-119611140D03*
X147081200Y-119611140D03*
X148031200Y-116608860D03*
D19*
X151406860Y-120685600D03*
X151406860Y-118785600D03*
X154409140Y-119735600D03*
X153139140Y-112638800D03*
X153139140Y-114538800D03*
X150136860Y-113588800D03*
M02*
