M48
;DRILL file {KiCad 4.0.5-e0-6337~49~ubuntu14.04.1} date Fri Jan 20 00:49:37 2017
;FORMAT={-:-/ absolute / metric / decimal}
FMAT,2
METRIC,TZ
T1C0.500
T2C0.550
T3C1.000
T4C1.001
T5C1.016
T6C1.100
T7C1.321
T8C2.000
T9C2.500
%
G90
G05
M71
T1
X106.68Y-77.533
X106.68Y-86.931
X106.68Y-91.63
X107.21Y-82.255
X111.1Y-65.837
X113.792Y-64.77
X113.792Y-67.691
X113.944Y-66.345
X114.3Y-72.517
X114.3Y-77.47
X114.3Y-82.105
X114.3Y-91.567
X114.935Y-107.759
X116.027Y-68.553
X118.974Y-81.636
X119.253Y-61.849
X120.758Y-68.644
X121.031Y-111.506
X121.31Y-66.243
X121.983Y-59.055
X122.174Y-64.389
X122.745Y-114.236
X122.809Y-71.882
X122.872Y-85.471
X123.571Y-84.391
X123.952Y-80.518
X124.603Y-72.216
X125.07Y-66.04
X125.602Y-69.521
X125.603Y-72.216
X126.682Y-81.597
X126.873Y-79.121
X126.873Y-84.074
X127.254Y-77.826
X127.32Y-66.8
X127.381Y-89.789
X127.635Y-71.882
X128.422Y-100.635
X129.603Y-68.247
X129.845Y-66.65
X130.175Y-73.533
X130.175Y-89.789
X130.302Y-81.915
X130.607Y-86.396
X130.749Y-74.883
X131.191Y-90.338
X131.572Y-77.216
X131.662Y-68.091
X131.699Y-72.183
X131.826Y-66.294
X132.334Y-94.183
X132.588Y-78.232
X132.893Y-73.609
X133.35Y-49.34
X133.706Y-99.6
X133.731Y-79.502
X134.239Y-78.105
X134.493Y-73.279
X134.493Y-80.899
X134.644Y-72.124
X134.747Y-64.389
X134.894Y-62.484
X134.905Y-74.264
X135.128Y-87.122
X135.331Y-90.322
X135.509Y-71.247
X135.89Y-59.817
X135.89Y-73.601
X135.998Y-81.334
X136.24Y-83.641
X137.363Y-74.981
X137.668Y-90.307
X138.112Y-68.362
X138.43Y-57.785
X138.43Y-75.54
X138.481Y-107.22
X138.481Y-111.22
X138.691Y-63.367
X138.748Y-78.168
X138.761Y-80.731
X138.811Y-91.186
X138.938Y-89.027
X139.065Y-84.455
X139.1Y-68.13
X139.319Y-100.965
X139.446Y-87.224
X139.446Y-101.981
X139.491Y-94.659
X139.548Y-98.45
X139.573Y-85.344
X139.743Y-80.919
X139.827Y-62.865
X139.827Y-64.469
X140.081Y-68.326
X140.175Y-101.426
X140.457Y-92.185
X140.494Y-93.184
X140.716Y-76.073
X140.716Y-83.629
X141.16Y-78.105
X141.224Y-80.518
X141.427Y-96.977
X141.448Y-71.727
X141.478Y-53.848
X141.478Y-69.748
X141.494Y-93.184
X141.529Y-64.008
X141.732Y-70.764
X142.443Y-72.796
X142.494Y-93.184
X142.541Y-82.931
X143.046Y-92.295
X143.082Y-100.457
X143.082Y-102.235
X143.503Y-93.184
X143.617Y-58.293
X143.637Y-89.408
X144.075Y-81.445
X144.323Y-69.494
X144.399Y-74.74
X144.502Y-93.127
X145.034Y-110.592
X145.136Y-85.192
X145.161Y-53.514
X145.161Y-72.949
X145.192Y-91.806
X145.237Y-98.196
X145.39Y-96.977
X145.415Y-74.803
X145.502Y-100.062
X145.517Y-92.939
X145.542Y-56.535
X145.999Y-101.143
X146.091Y-81.685
X146.431Y-75.133
X146.558Y-77.089
X146.962Y-89.004
X147.066Y-67.183
X147.111Y-68.199
X147.238Y-58.928
X147.254Y-82.62
X147.625Y-79.146
X148.031Y-85.928
X148.438Y-89.611
X148.463Y-54.122
X148.78Y-99.758
X149.047Y-102.616
X149.542Y-100.52
X149.573Y-61.849
X149.606Y-81.026
X150.368Y-51.308
X150.368Y-55.626
X150.495Y-98.444
X150.558Y-99.695
X150.749Y-86.487
X150.812Y-97.155
X151.232Y-92.151
X151.257Y-72.644
X151.897Y-82.682
X152.197Y-85.053
X152.447Y-90.297
X152.971Y-87.439
X153.221Y-85.053
X153.717Y-92.456
X153.721Y-99.162
X154.026Y-113.081
X154.432Y-77.426
X154.534Y-97.434
X154.623Y-85.28
X154.623Y-100.52
X154.635Y-83.464
X155.154Y-66.04
X155.194Y-63.881
X155.194Y-90.297
X155.766Y-86.995
X156.464Y-86.258
X156.591Y-92.456
X156.667Y-95.148
X156.845Y-102.87
X157.099Y-69.469
X157.099Y-82.403
X157.226Y-89.662
X158.242Y-75.311
X158.349Y-59.944
X158.707Y-72.448
X159.111Y-68.885
X159.258Y-74.803
X159.258Y-79.629
X159.385Y-64.516
X159.441Y-73.787
X160.269Y-89.032
X160.274Y-74.803
X160.548Y-87.015
X161.036Y-72.39
X161.138Y-64.471
X161.671Y-73.279
X161.92Y-90.683
X162.052Y-74.168
X162.154Y-72.339
X162.814Y-75.895
X162.865Y-73.406
X163.048Y-86.975
X164.372Y-86.868
X164.465Y-60.389
X164.719Y-74.422
X164.973Y-75.946
X165.227Y-91.821
X166.243Y-70.993
X166.675Y-73.863
X167.386Y-79.943
X167.488Y-73.05
X168.364Y-89.789
X168.605Y-73.711
X168.656Y-61.57
X169.037Y-64.897
X171.577Y-73.152
X171.831Y-62.23
X171.831Y-71.247
X171.831Y-72.263
X171.958Y-70.358
X172.212Y-64.897
X172.466Y-73.66
X172.72Y-70.866
X172.72Y-71.755
X172.72Y-72.644
X172.847Y-66.167
X173.228Y-83.459
X173.609Y-66.802
X174.117Y-67.564
X174.625Y-68.961
X175.133Y-79.819
X176.022Y-101.6
X176.53Y-96.52
X178.388Y-85.979
X179.578Y-80.899
X179.84Y-76.11
X179.843Y-75.057
X179.959Y-74.041
X180.213Y-71.628
T3
X130.81Y-59.61
X133.35Y-59.61
X154.345Y-102.22
X154.345Y-116.72
X156.845Y-116.72
X159.345Y-102.22
X159.345Y-116.72
T4
X142.24Y-50.165
X144.78Y-50.165
X147.32Y-50.165
T5
X109.22Y-71.12
X109.22Y-73.66
X109.22Y-76.2
X109.22Y-78.74
X109.22Y-81.28
X109.22Y-83.82
X109.22Y-86.36
X109.22Y-88.9
X109.22Y-93.98
X111.76Y-71.12
X111.76Y-73.66
X111.76Y-76.2
X111.76Y-78.74
X111.76Y-81.28
X111.76Y-83.82
X111.76Y-86.36
X111.76Y-88.9
X111.76Y-93.98
X111.76Y-99.06
X114.3Y-99.06
X116.84Y-71.12
X116.84Y-73.66
X116.84Y-76.2
X116.84Y-78.74
X116.84Y-81.28
X116.84Y-83.82
X116.84Y-86.36
X116.84Y-88.9
X124.46Y-55.88
X124.46Y-58.42
X137.16Y-116.84
X137.16Y-119.38
X139.7Y-116.84
X139.7Y-119.38
X142.24Y-116.84
X142.24Y-119.38
X144.78Y-116.84
X144.78Y-119.38
X170.18Y-76.2
X170.18Y-78.74
X170.18Y-81.28
X170.18Y-83.82
T6
X167.7Y-98.588
X169.962Y-96.326
X171.023Y-99.649
X171.164Y-106.579
X173.569Y-97.103
X174.558Y-103.184
X177.74Y-100.002
T7
X119.654Y-105.684
X123.19Y-109.22
T8
X128.35Y-54.61
X138.35Y-54.61
T9
X149.845Y-109.22
X163.845Y-109.22
T1
X179.135Y-88.066G85X178.485Y-88.066
G05
X179.135Y-95.066G85X178.485Y-95.066
G05
T2
X176.11Y-89.216G85X176.11Y-88.916
G05
X176.11Y-94.216G85X176.11Y-93.916
G05
T4
X154.582Y-56.752G85X154.582Y-54.754
G05
X158.581Y-51.054G85X156.582Y-51.054
G05
X160.581Y-56.752G85X160.581Y-54.754
G05
T0
M30
