G04 #@! TF.FileFunction,Copper,L2,Inr,Mixed*
%FSLAX46Y46*%
G04 Gerber Fmt 4.6, Leading zero omitted, Abs format (unit mm)*
G04 Created by KiCad (PCBNEW 4.0.5-e0-6337~49~ubuntu14.04.1) date Fri Jan 20 00:49:03 2017*
%MOMM*%
%LPD*%
G01*
G04 APERTURE LIST*
%ADD10C,0.200000*%
%ADD11R,3.500120X3.500120*%
%ADD12C,2.000000*%
%ADD13C,2.024000*%
%ADD14C,3.500000*%
%ADD15C,1.981200*%
%ADD16O,0.950000X1.250000*%
%ADD17O,1.550000X1.000000*%
%ADD18R,2.032000X2.032000*%
%ADD19O,2.032000X2.032000*%
%ADD20R,1.727200X1.727200*%
%ADD21O,1.727200X1.727200*%
%ADD22R,2.032000X1.727200*%
%ADD23O,2.032000X1.727200*%
%ADD24O,1.501140X2.499360*%
%ADD25C,4.000000*%
%ADD26C,0.800000*%
%ADD27C,0.250000*%
%ADD28C,1.000000*%
%ADD29C,0.500000*%
%ADD30C,0.400000*%
%ADD31C,0.254000*%
G04 APERTURE END LIST*
D10*
D11*
X154581860Y-55753000D03*
X160581340Y-55753000D03*
X157581600Y-51054000D03*
D12*
X171164365Y-106578590D03*
X173568528Y-97103359D03*
X167699542Y-98588284D03*
X169962284Y-96325542D03*
X177740458Y-100002497D03*
X174558478Y-103184478D03*
X171022944Y-99648944D03*
D13*
X133350000Y-59610000D03*
X130810000Y-59610000D03*
D14*
X128350000Y-54610000D03*
X138350000Y-54610000D03*
D15*
X122489540Y-109920460D02*
X123890460Y-108519540D01*
X118954006Y-106384926D02*
X120354926Y-104984006D01*
D16*
X176110460Y-89066100D03*
X176110460Y-94066100D03*
D17*
X178810460Y-88066100D03*
X178810460Y-95066100D03*
D18*
X111760000Y-99060000D03*
D19*
X114300000Y-99060000D03*
D18*
X109220000Y-93980000D03*
D19*
X111760000Y-93980000D03*
D20*
X109220000Y-71120000D03*
D21*
X111760000Y-71120000D03*
X109220000Y-73660000D03*
X111760000Y-73660000D03*
X109220000Y-76200000D03*
X111760000Y-76200000D03*
X109220000Y-78740000D03*
X111760000Y-78740000D03*
X109220000Y-81280000D03*
X111760000Y-81280000D03*
X109220000Y-83820000D03*
X111760000Y-83820000D03*
X109220000Y-86360000D03*
X111760000Y-86360000D03*
X109220000Y-88900000D03*
X111760000Y-88900000D03*
D22*
X116840000Y-71120000D03*
D23*
X116840000Y-73660000D03*
X116840000Y-76200000D03*
X116840000Y-78740000D03*
X116840000Y-81280000D03*
X116840000Y-83820000D03*
X116840000Y-86360000D03*
X116840000Y-88900000D03*
D22*
X170180000Y-76200000D03*
D23*
X170180000Y-78740000D03*
X170180000Y-81280000D03*
X170180000Y-83820000D03*
D20*
X137160000Y-119380000D03*
D21*
X137160000Y-116840000D03*
X139700000Y-119380000D03*
X139700000Y-116840000D03*
X142240000Y-119380000D03*
X142240000Y-116840000D03*
X144780000Y-119380000D03*
X144780000Y-116840000D03*
D18*
X124460000Y-58420000D03*
D19*
X124460000Y-55880000D03*
D24*
X144780000Y-50165000D03*
X142240000Y-50165000D03*
X147320000Y-50165000D03*
D12*
X154345000Y-116720000D03*
X159345000Y-116720000D03*
X156845000Y-116720000D03*
X154345000Y-102220000D03*
X159345000Y-102220000D03*
D25*
X149845000Y-109220000D03*
X163845000Y-109220000D03*
D26*
X149572998Y-61849000D03*
X145135600Y-85191600D03*
X139446000Y-87223600D03*
X139319000Y-100965000D03*
X140174846Y-101426154D03*
X139446000Y-101981000D03*
X127381000Y-89789000D03*
X131191000Y-90337640D03*
X130175000Y-89789000D03*
X167386000Y-79943002D03*
X126873000Y-79121000D03*
X140716000Y-76073000D03*
X134239000Y-78105000D03*
X165227000Y-91821000D03*
X168364000Y-89789000D03*
X169037000Y-64897000D03*
X172212000Y-64897000D03*
X172847000Y-66167000D03*
X173609000Y-66802000D03*
X174117000Y-67564000D03*
X174625000Y-68961000D03*
X179959000Y-74041000D03*
X179843002Y-75057000D03*
X179840247Y-76110427D03*
X139547600Y-98450400D03*
X132334000Y-94183200D03*
X151231600Y-92151200D03*
X161137600Y-64471002D03*
X149606000Y-81026000D03*
X116027200Y-68553010D03*
X137363200Y-74980800D03*
X137667999Y-90306975D03*
X125603000Y-72216000D03*
X160548000Y-87015000D03*
X164372000Y-86868000D03*
X154622500Y-85280500D03*
X166243000Y-70993000D03*
X146558000Y-77089000D03*
X145161000Y-72948800D03*
X130302000Y-81915000D03*
X154432000Y-77426000D03*
X171577000Y-73152000D03*
X171831000Y-72263000D03*
X171831000Y-71247000D03*
X171958000Y-70358000D03*
X172466000Y-73660000D03*
X172720000Y-72644000D03*
X172720000Y-71755000D03*
X172720000Y-70866000D03*
X158706829Y-72448404D03*
X161036000Y-72390000D03*
X161671000Y-73279000D03*
X162052000Y-74168000D03*
X121310400Y-66243200D03*
X155154000Y-66040000D03*
X146961653Y-89004347D03*
X135128000Y-87122000D03*
X141732000Y-70764400D03*
X138747500Y-78168500D03*
X122745500Y-114236500D03*
X114935000Y-107759500D03*
X121983500Y-59055000D03*
X143617002Y-58293000D03*
X139490998Y-94659000D03*
X176530000Y-96520000D03*
X150812500Y-97155000D03*
X154635200Y-83464400D03*
X179578000Y-80899000D03*
X131699000Y-72183000D03*
X125601973Y-69521078D03*
X131826000Y-66294000D03*
X134894000Y-62484000D03*
X148463000Y-54122000D03*
X150368000Y-51308000D03*
X163048000Y-86975000D03*
X159258000Y-74803000D03*
X164973000Y-75946000D03*
X135890000Y-59817000D03*
X159385000Y-64516000D03*
X151257000Y-72644000D03*
X123952000Y-80518000D03*
X122809000Y-71882000D03*
X133731000Y-79502000D03*
X127254000Y-77825600D03*
X129844800Y-66649600D03*
X147110598Y-68199000D03*
X134747000Y-64389000D03*
X141528800Y-64008000D03*
X127320045Y-66800327D03*
X130175000Y-73533000D03*
X139827000Y-64469000D03*
X147237998Y-58928000D03*
X159441000Y-73787000D03*
X158349000Y-59944000D03*
X173228000Y-83459000D03*
X178388000Y-85979000D03*
X131662435Y-68091290D03*
X141448001Y-71726599D03*
X159111002Y-68884800D03*
X147066000Y-67183000D03*
X145542000Y-56535000D03*
X141478000Y-53848000D03*
X119253000Y-61849000D03*
X138430000Y-57785000D03*
X133350000Y-49339500D03*
X145161000Y-53514000D03*
X157099000Y-82403000D03*
X155194000Y-63881000D03*
X157099000Y-69469000D03*
X164719000Y-74422000D03*
X139100418Y-68129884D03*
X121031000Y-111506000D03*
X176022000Y-101600000D03*
X125069600Y-66040000D03*
X138691235Y-63366815D03*
X134905186Y-74263814D03*
X141478000Y-69748400D03*
X142443200Y-72796400D03*
X120758498Y-68643500D03*
X129603500Y-68246598D03*
X144322800Y-69494400D03*
X168656000Y-61569600D03*
X138480800Y-111220000D03*
X154025600Y-113080800D03*
X149047200Y-102616000D03*
X162153600Y-72339200D03*
X140081000Y-68326000D03*
X133705600Y-99600000D03*
X154533600Y-97434400D03*
X162864800Y-73406000D03*
X138112500Y-68361998D03*
X145502128Y-100062178D03*
X153720800Y-99161600D03*
X145034000Y-110591600D03*
X166674800Y-73863200D03*
X135509000Y-71247000D03*
X134644249Y-72123704D03*
X128422400Y-100634800D03*
X167487600Y-73050400D03*
X123571000Y-84391500D03*
X139065000Y-84455000D03*
X122872500Y-85471000D03*
X138938000Y-89027000D03*
X151896653Y-82681653D03*
X146431000Y-75133200D03*
X147624800Y-79146400D03*
X139827000Y-62865000D03*
X180213000Y-71628000D03*
X152196800Y-85053000D03*
X153220847Y-85053000D03*
X140456611Y-92184693D03*
X143046053Y-92294743D03*
X142493934Y-93184005D03*
X140493930Y-93183998D03*
X144501841Y-93126915D03*
X143503470Y-93183998D03*
X141493933Y-93183998D03*
X145389600Y-96977200D03*
X148031200Y-85928002D03*
X145237200Y-98196400D03*
X148437600Y-89611200D03*
X134493000Y-73279000D03*
X143082000Y-100457000D03*
X160274000Y-74803000D03*
X141224000Y-80518000D03*
X131572000Y-77216000D03*
X168605200Y-73710800D03*
X158242000Y-75311000D03*
X141160500Y-78105000D03*
X132588000Y-78232000D03*
X143082000Y-102235000D03*
X138761189Y-80731494D03*
X127635000Y-71882000D03*
X132892800Y-73609200D03*
X142541000Y-82931000D03*
X135890000Y-73600835D03*
X175133000Y-79819500D03*
X143637000Y-89408000D03*
X113792000Y-64770000D03*
X159258000Y-79629000D03*
X150495000Y-98443502D03*
X162814000Y-75895200D03*
X138430000Y-75539600D03*
X138480800Y-107220000D03*
X134493000Y-80899000D03*
X122174000Y-64389000D03*
X156845000Y-102870000D03*
X148780500Y-99758500D03*
X154622500Y-100520500D03*
X150558500Y-99695000D03*
X149542500Y-100520500D03*
X156667200Y-95148400D03*
X156464000Y-86258400D03*
X107210077Y-82255497D03*
X139743454Y-80918998D03*
X126682500Y-81597500D03*
X106680000Y-86931500D03*
X135998247Y-81334330D03*
X106680000Y-91630500D03*
X126873000Y-84074000D03*
X136240500Y-83640808D03*
X145191599Y-91805751D03*
X113792000Y-67691000D03*
X114300000Y-72517000D03*
X144399000Y-74740002D03*
X114300000Y-77470000D03*
X145516600Y-92938600D03*
X135331200Y-90322400D03*
X118973600Y-81635600D03*
X114300000Y-82105500D03*
X138811000Y-91186000D03*
X114300000Y-91567000D03*
X145415000Y-74803000D03*
X160268883Y-89032117D03*
X155194000Y-90297000D03*
X161919883Y-90683117D03*
X156591000Y-92456000D03*
X155765500Y-86995000D03*
X152971500Y-87439500D03*
X147254307Y-82620250D03*
X139573000Y-85344000D03*
X146091000Y-81685249D03*
X144074847Y-81444849D03*
X124602997Y-72216000D03*
X152447000Y-90297000D03*
X130749000Y-74883000D03*
X153717000Y-92456000D03*
X140716000Y-83629500D03*
X106680000Y-77533500D03*
X164465000Y-60388500D03*
X111099600Y-65836800D03*
X113944400Y-66344800D03*
X130606800Y-86395560D03*
X150749000Y-86487000D03*
X157226000Y-89662000D03*
X145999200Y-101142800D03*
X141427200Y-96977200D03*
X171831000Y-62230000D03*
X150368000Y-55626000D03*
D27*
X145161000Y-72948800D02*
X145161000Y-72644000D01*
D28*
X145161000Y-72644000D02*
X145726685Y-72644000D01*
X145726685Y-72644000D02*
X147531001Y-74448316D01*
X147531001Y-74448316D02*
X147531001Y-76115999D01*
X146640020Y-77006980D02*
X146558000Y-77006980D01*
X147531001Y-76115999D02*
X146640020Y-77006980D01*
D29*
X141439863Y-76472999D02*
X142055864Y-77089000D01*
X142055864Y-77089000D02*
X146558000Y-77089000D01*
X140716000Y-76073000D02*
X141115999Y-76472999D01*
X141115999Y-76472999D02*
X141439863Y-76472999D01*
D10*
X138917337Y-77100622D02*
X139688378Y-77100622D01*
X139688378Y-77100622D02*
X140716000Y-76073000D01*
D27*
X146546378Y-77100622D02*
X146558000Y-77089000D01*
X137363200Y-74980800D02*
X137363200Y-75546485D01*
X137363200Y-75546485D02*
X138917337Y-77100622D01*
D10*
X135091401Y-70546999D02*
X133455400Y-72183000D01*
X133455400Y-72183000D02*
X131699000Y-72183000D01*
X138747500Y-78168500D02*
X136590001Y-76011001D01*
X136590001Y-76011001D02*
X136590001Y-71291999D01*
X136590001Y-71291999D02*
X135845001Y-70546999D01*
X135845001Y-70546999D02*
X135091401Y-70546999D01*
D30*
X141732000Y-64389000D02*
X141732000Y-63754000D01*
D10*
X141732000Y-64211200D02*
X140774199Y-65169001D01*
X140774199Y-65169001D02*
X135527001Y-65169001D01*
X135527001Y-65169001D02*
X135146999Y-64788999D01*
X135146999Y-64788999D02*
X134747000Y-64389000D01*
D30*
X141732000Y-64389000D02*
X145542000Y-68199000D01*
X145542000Y-68199000D02*
X147110598Y-68199000D01*
D28*
X178388000Y-85979000D02*
X178435000Y-85979000D01*
D30*
X136383489Y-69246969D02*
X132818114Y-69246969D01*
X132818114Y-69246969D02*
X131662435Y-68091290D01*
X138884199Y-71726599D02*
X136404571Y-69246971D01*
X136404571Y-69246971D02*
X136383491Y-69246971D01*
X136383491Y-69246971D02*
X136383489Y-69246969D01*
X140204999Y-71726599D02*
X138884199Y-71726599D01*
D27*
X140098933Y-71726599D02*
X140204999Y-71726599D01*
D30*
X140204999Y-71726599D02*
X141448001Y-71726599D01*
D28*
X119253000Y-61849000D02*
X119761000Y-61341000D01*
X119761000Y-61341000D02*
X125730000Y-61341000D01*
X125730000Y-61341000D02*
X129286000Y-57785000D01*
X129286000Y-57785000D02*
X138430000Y-57785000D01*
D10*
X138691235Y-63366815D02*
X127742785Y-63366815D01*
X127742785Y-63366815D02*
X125069600Y-66040000D01*
X133005599Y-65593999D02*
X134505601Y-67094001D01*
X134505601Y-67094001D02*
X140588701Y-67094001D01*
X129603500Y-68246598D02*
X131125999Y-66724099D01*
X131125999Y-66724099D02*
X131125999Y-65957999D01*
X131125999Y-65957999D02*
X131489999Y-65593999D01*
X131489999Y-65593999D02*
X133005599Y-65593999D01*
X142443200Y-72796400D02*
X142443200Y-72230715D01*
X142443200Y-72230715D02*
X142595501Y-72078414D01*
X142595501Y-72078414D02*
X142595501Y-72025193D01*
D30*
X142136231Y-72484463D02*
X142595501Y-72025193D01*
X142595501Y-72025193D02*
X142595501Y-69100801D01*
X142595501Y-69100801D02*
X140588701Y-67094001D01*
D27*
X162153600Y-72339200D02*
X162871002Y-72339200D01*
X162871002Y-72339200D02*
X163989011Y-73457209D01*
X163989011Y-73457209D02*
X163989011Y-85412009D01*
X163989011Y-85412009D02*
X165097001Y-86519999D01*
X156116012Y-98196400D02*
X153466800Y-98196400D01*
X165097001Y-86519999D02*
X165097001Y-89215411D01*
X153466800Y-98196400D02*
X152995799Y-98667401D01*
X165097001Y-89215411D02*
X156116012Y-98196400D01*
X152995799Y-98667401D02*
X152995799Y-100323193D01*
X152995799Y-100323193D02*
X150702992Y-102616000D01*
X150702992Y-102616000D02*
X149047200Y-102616000D01*
X162864800Y-73406000D02*
X163539001Y-74080201D01*
X162322999Y-87323001D02*
X162864800Y-87864802D01*
X163539001Y-74080201D02*
X163539001Y-85410997D01*
X163539001Y-85410997D02*
X162322999Y-86626999D01*
X162322999Y-86626999D02*
X162322999Y-87323001D01*
X162864800Y-87864802D02*
X162864800Y-90811202D01*
X162864800Y-90811202D02*
X156241602Y-97434400D01*
X156241602Y-97434400D02*
X154533600Y-97434400D01*
X154074341Y-98921401D02*
X153960999Y-98921401D01*
X153960999Y-98921401D02*
X153720800Y-99161600D01*
X156027421Y-98921401D02*
X154074341Y-98921401D01*
X165547011Y-78984969D02*
X165547010Y-89401812D01*
X166674800Y-73863200D02*
X165698001Y-74839999D01*
X165698001Y-74839999D02*
X165698001Y-76617999D01*
X164439021Y-77876979D02*
X165547011Y-78984969D01*
X165698001Y-76617999D02*
X164439021Y-77876979D01*
X165547010Y-89401812D02*
X156027421Y-98921401D01*
X167487600Y-73050400D02*
X167487600Y-74123402D01*
X167487600Y-74123402D02*
X166148011Y-75462991D01*
X166148011Y-75462991D02*
X166148011Y-89437221D01*
X166148011Y-89437221D02*
X156213821Y-99371411D01*
X153019999Y-104251999D02*
X151734998Y-105537000D01*
X156213821Y-99371411D02*
X154583991Y-99371411D01*
X154583991Y-99371411D02*
X153019999Y-100935403D01*
X153019999Y-100935403D02*
X153019999Y-104251999D01*
X151734998Y-105537000D02*
X136271000Y-105537000D01*
X136271000Y-105537000D02*
X131368800Y-100634800D01*
X131368800Y-100634800D02*
X128422400Y-100634800D01*
X141456979Y-101682981D02*
X140272601Y-100498603D01*
X140272601Y-98102399D02*
X139595232Y-97425030D01*
X140272601Y-100498603D02*
X140272601Y-98102399D01*
X139595232Y-97425030D02*
X115205030Y-97425030D01*
X141456979Y-101682981D02*
X141456979Y-101680579D01*
D10*
X144523598Y-97942400D02*
X144523598Y-96737054D01*
X151330968Y-82681653D02*
X151896653Y-82681653D01*
X144523598Y-96737054D02*
X147466629Y-93794025D01*
X147466629Y-93794025D02*
X147466629Y-92155533D01*
X147466629Y-92155533D02*
X147091630Y-91780534D01*
X145949416Y-89229022D02*
X145949416Y-86973784D01*
X147091630Y-91780534D02*
X147091630Y-90371235D01*
X147091630Y-90371235D02*
X145949416Y-89229022D01*
X145949416Y-86973784D02*
X150241547Y-82681653D01*
X150241547Y-82681653D02*
X151330968Y-82681653D01*
D27*
X115205030Y-97425030D02*
X112775999Y-94995999D01*
X112775999Y-94995999D02*
X111760000Y-93980000D01*
X142897998Y-101346000D02*
X143266002Y-101346000D01*
X143266002Y-101346000D02*
X143807001Y-101886999D01*
X143807001Y-101886999D02*
X143807001Y-102583001D01*
X143807001Y-102583001D02*
X143430001Y-102960001D01*
X143430001Y-102960001D02*
X142733999Y-102960001D01*
X142733999Y-102960001D02*
X141456979Y-101682981D01*
X144523598Y-97942400D02*
X142356999Y-100108999D01*
X142356999Y-100108999D02*
X142356999Y-100805001D01*
X142356999Y-100805001D02*
X142897998Y-101346000D01*
D10*
X109220000Y-93980000D02*
X109220000Y-92764000D01*
X143516390Y-96612865D02*
X146666609Y-93462647D01*
X109320001Y-92663999D02*
X112391681Y-92663999D01*
X112391681Y-92663999D02*
X116727702Y-97000020D01*
X109220000Y-92764000D02*
X109320001Y-92663999D01*
X116727702Y-97000020D02*
X139771276Y-97000020D01*
X142072156Y-98704400D02*
X143516390Y-97260166D01*
X139771276Y-97000020D02*
X141475656Y-98704400D01*
X146666609Y-93462647D02*
X146666609Y-92486909D01*
X141475656Y-98704400D02*
X142072156Y-98704400D01*
X143516390Y-97260166D02*
X143516390Y-96612865D01*
X145149396Y-89560400D02*
X145149396Y-86542505D01*
X146666609Y-92486909D02*
X146291610Y-92111910D01*
X146291610Y-92111910D02*
X146291610Y-90702613D01*
X146291610Y-90702613D02*
X145149396Y-89560400D01*
X145149396Y-86542505D02*
X147363901Y-84328000D01*
X147363901Y-84328000D02*
X147463804Y-84328000D01*
X147463804Y-84328000D02*
X150820902Y-80970902D01*
X150820902Y-80970902D02*
X148996400Y-79146400D01*
X148996400Y-79146400D02*
X147624800Y-79146400D01*
D30*
X116840000Y-76200000D02*
X116687600Y-76200000D01*
X116687600Y-76200000D02*
X115423990Y-77463610D01*
X115423990Y-77463610D02*
X115423990Y-84343404D01*
X115423990Y-84343404D02*
X116164196Y-85083610D01*
X116164196Y-85083610D02*
X118671068Y-85083610D01*
X118671068Y-85083610D02*
X126173469Y-92586011D01*
X126173469Y-92586011D02*
X139907915Y-92586011D01*
X139907915Y-92586011D02*
X140309233Y-92184693D01*
X140309233Y-92184693D02*
X140456611Y-92184693D01*
D27*
X135903007Y-91385991D02*
X135903007Y-90998965D01*
X135903007Y-90998965D02*
X137366972Y-89535000D01*
X137366972Y-89535000D02*
X138372998Y-89535000D01*
X138372998Y-89535000D02*
X138842997Y-90004999D01*
X138842997Y-90004999D02*
X142519499Y-90004999D01*
X142519499Y-90004999D02*
X143027988Y-90513488D01*
X143027988Y-90513488D02*
X143027988Y-91710993D01*
X143027988Y-91710993D02*
X143046053Y-91729058D01*
X143046053Y-91729058D02*
X143046053Y-92294743D01*
D30*
X127098391Y-91385991D02*
X135903007Y-91385991D01*
X116840000Y-81280000D02*
X116992400Y-81280000D01*
X116992400Y-81280000D02*
X127098391Y-91385991D01*
X116840000Y-83820000D02*
X118256000Y-83820000D01*
X118256000Y-83820000D02*
X126422001Y-91986001D01*
X126422001Y-91986001D02*
X139471301Y-91986001D01*
X139471301Y-91986001D02*
X140072610Y-91384692D01*
X140878629Y-91384692D02*
X142293934Y-92799997D01*
X140072610Y-91384692D02*
X140878629Y-91384692D01*
X142293934Y-92799997D02*
X142293934Y-92984005D01*
X142293934Y-92984005D02*
X142493934Y-93184005D01*
D27*
X136207500Y-93186021D02*
X136209523Y-93183998D01*
X136209523Y-93183998D02*
X140493930Y-93183998D01*
D30*
X125924937Y-93186021D02*
X136207500Y-93186021D01*
X116840000Y-86360000D02*
X119098916Y-86360000D01*
X119098916Y-86360000D02*
X125924937Y-93186021D01*
X116840000Y-88900000D02*
X120790374Y-88900000D01*
X120790374Y-88900000D02*
X127940375Y-96050001D01*
X127940375Y-96050001D02*
X142144440Y-96050001D01*
X142144440Y-96050001D02*
X144501841Y-93692600D01*
X144501841Y-93692600D02*
X144501841Y-93126915D01*
D10*
X148031200Y-85928002D02*
X148031200Y-86493687D01*
X148031200Y-86493687D02*
X147737599Y-86787288D01*
X147737599Y-86787288D02*
X147737599Y-89947201D01*
X147737599Y-89947201D02*
X148031200Y-90240802D01*
X148031200Y-90240802D02*
X148031200Y-94335600D01*
X148031200Y-94335600D02*
X145389600Y-96977200D01*
X148799990Y-89719590D02*
X148799990Y-94633610D01*
X148799990Y-94633610D02*
X145237200Y-98196400D01*
X148437600Y-89611200D02*
X148691600Y-89611200D01*
X148691600Y-89611200D02*
X148799990Y-89719590D01*
X145218990Y-77781990D02*
X145288000Y-77851000D01*
X145288000Y-77851000D02*
X152970998Y-77851000D01*
X152970998Y-77851000D02*
X154457999Y-76363999D01*
X154457999Y-76363999D02*
X155790999Y-76363999D01*
X141910492Y-77781990D02*
X145218990Y-77781990D01*
X145218990Y-77781990D02*
X145243990Y-77806990D01*
D27*
X140309600Y-77622400D02*
X140589000Y-77343000D01*
X140589000Y-77343000D02*
X141471502Y-77343000D01*
X141471502Y-77343000D02*
X141910492Y-77781990D01*
X141224000Y-80518000D02*
X141224000Y-78957001D01*
X141224000Y-78957001D02*
X140577401Y-78957001D01*
X140577401Y-78957001D02*
X140309600Y-78689200D01*
X160274000Y-74237315D02*
X160274000Y-74803000D01*
X140309600Y-78689200D02*
X140309600Y-77622400D01*
X160274000Y-73546998D02*
X160274000Y-74237315D01*
X155790999Y-76363999D02*
X159092999Y-73061999D01*
X159092999Y-73061999D02*
X159789001Y-73061999D01*
X159789001Y-73061999D02*
X160274000Y-73546998D01*
D10*
X138601999Y-81726001D02*
X138601999Y-81578999D01*
X138601999Y-81578999D02*
X134939001Y-77916001D01*
X134939001Y-77916001D02*
X134939001Y-77768999D01*
X134939001Y-77768999D02*
X134386002Y-77216000D01*
X134386002Y-77216000D02*
X132137685Y-77216000D01*
X132137685Y-77216000D02*
X131572000Y-77216000D01*
D27*
X144082000Y-100457000D02*
X143082000Y-100457000D01*
X150850294Y-84792391D02*
X150638799Y-84792391D01*
X149225000Y-95314000D02*
X144082000Y-100457000D01*
X149225000Y-86206190D02*
X149225000Y-95314000D01*
X160274000Y-75368685D02*
X150850294Y-84792391D01*
X150638799Y-84792391D02*
X149225000Y-86206190D01*
X160274000Y-74803000D02*
X160274000Y-75368685D01*
D10*
X141370120Y-81153000D02*
X141370120Y-80664120D01*
X141370120Y-80664120D02*
X141224000Y-80518000D01*
X138601999Y-81726001D02*
X140528881Y-81726001D01*
X140528881Y-81726001D02*
X141840999Y-83038119D01*
X143241001Y-82594999D02*
X141799002Y-81153000D01*
X141799002Y-81153000D02*
X141370120Y-81153000D01*
X141840999Y-83038119D02*
X141840999Y-83267001D01*
X142204999Y-83631001D02*
X142877001Y-83631001D01*
X141840999Y-83267001D02*
X142204999Y-83631001D01*
X142877001Y-83631001D02*
X143241001Y-83267001D01*
X143241001Y-83267001D02*
X143241001Y-82594999D01*
X155301990Y-78251010D02*
X154106492Y-78251010D01*
X154106492Y-78251010D02*
X147431101Y-84926401D01*
X147431101Y-84926401D02*
X147331199Y-84926401D01*
X141605000Y-78232000D02*
X145103301Y-78232000D01*
X145103301Y-78232000D02*
X145122311Y-78251010D01*
X145122311Y-78251010D02*
X155301990Y-78251010D01*
X155301990Y-78251010D02*
X155321000Y-78232000D01*
X132588000Y-78232000D02*
X133329998Y-78232000D01*
X140363193Y-82126011D02*
X141440989Y-83203807D01*
X143374846Y-81780850D02*
X143374846Y-80382846D01*
X133329998Y-78232000D02*
X133902999Y-78805001D01*
X141440989Y-83203807D02*
X141440989Y-83432690D01*
X141440989Y-83432690D02*
X142039310Y-84031011D01*
X133902999Y-78805001D02*
X135070618Y-78805001D01*
X135070618Y-78805001D02*
X138391628Y-82126011D01*
X138391628Y-82126011D02*
X140363193Y-82126011D01*
X142039310Y-84031011D02*
X143042690Y-84031011D01*
X143042690Y-84031011D02*
X143641011Y-83432690D01*
X143641011Y-83432690D02*
X143641011Y-82047015D01*
X143641011Y-82047015D02*
X143374846Y-81780850D01*
X143374846Y-80382846D02*
X141478000Y-78486000D01*
X145549406Y-89394710D02*
X145549406Y-86708194D01*
X145549406Y-86708194D02*
X147331199Y-84926401D01*
X146691620Y-90536924D02*
X145549406Y-89394710D01*
X147066619Y-92321221D02*
X146691620Y-91946222D01*
X146691620Y-91946222D02*
X146691620Y-90536924D01*
X143916400Y-97461210D02*
X143916400Y-96778554D01*
X143916400Y-96778554D02*
X147066619Y-93628336D01*
X147066619Y-93628336D02*
X147066619Y-92321221D01*
D27*
X141906989Y-99922599D02*
X141906989Y-99470621D01*
X141906989Y-99470621D02*
X143916400Y-97461210D01*
X141906989Y-99922599D02*
X141906989Y-101159989D01*
X141906989Y-101159989D02*
X142982000Y-102235000D01*
X142982000Y-102235000D02*
X143082000Y-102235000D01*
X142982000Y-102235000D02*
X142905800Y-102158800D01*
X141351000Y-78232000D02*
X141605000Y-78232000D01*
D10*
X141160500Y-78105000D02*
X141478000Y-78105000D01*
X141478000Y-78105000D02*
X141605000Y-78232000D01*
X141160500Y-78105000D02*
X141160500Y-78168500D01*
X141478000Y-78486000D02*
X141224000Y-78232000D01*
X141160500Y-78168500D02*
X141478000Y-78486000D01*
D27*
X155321000Y-78232000D02*
X158242000Y-75311000D01*
D30*
X138761189Y-80731494D02*
X129832695Y-71803000D01*
X129832695Y-71803000D02*
X127635000Y-71803000D01*
D27*
X139807572Y-79910114D02*
X139193714Y-79910114D01*
X139193714Y-79910114D02*
X132892800Y-73609200D01*
X140468455Y-80570997D02*
X139807572Y-79910114D01*
X142541000Y-82931000D02*
X142441000Y-82931000D01*
X142441000Y-82931000D02*
X140468455Y-80958455D01*
X140468455Y-80958455D02*
X140468455Y-80570997D01*
D10*
X141001179Y-86044001D02*
X133157999Y-86044001D01*
X143637000Y-88679822D02*
X141001179Y-86044001D01*
X133157999Y-86044001D02*
X133032500Y-86169500D01*
X143637000Y-89408000D02*
X143637000Y-88679822D01*
D29*
X120142000Y-74168000D02*
X120495554Y-74168000D01*
X132497054Y-86169500D02*
X133032500Y-86169500D01*
X120495554Y-74168000D02*
X132497054Y-86169500D01*
X113792000Y-64770000D02*
X117475000Y-68453000D01*
X120142000Y-70231000D02*
X120142000Y-74168000D01*
X117475000Y-68453000D02*
X118364000Y-68453000D01*
X118364000Y-68453000D02*
X120142000Y-70231000D01*
D27*
X150495000Y-98443502D02*
X150023999Y-97972501D01*
X150023999Y-86138999D02*
X150400999Y-85761999D01*
X150023999Y-97972501D02*
X150023999Y-86138999D01*
X150400999Y-85761999D02*
X151344799Y-85761999D01*
X151344799Y-85761999D02*
X151434800Y-85852000D01*
D30*
X151727683Y-86144883D02*
X151434800Y-85852000D01*
X162814000Y-75895200D02*
X162814000Y-78273002D01*
X162814000Y-78273002D02*
X154942119Y-86144883D01*
X154942119Y-86144883D02*
X151727683Y-86144883D01*
D27*
X122174000Y-64389000D02*
X122174000Y-70205600D01*
X122174000Y-70205600D02*
X123334399Y-71365999D01*
X123334399Y-71365999D02*
X126011001Y-71365999D01*
D29*
X126453001Y-71807999D02*
X126453001Y-72605001D01*
X126011001Y-71365999D02*
X126453001Y-71807999D01*
X126453001Y-72605001D02*
X127196499Y-73348499D01*
X127196499Y-73348499D02*
X127226999Y-73317999D01*
X127226999Y-73317999D02*
X128043001Y-73317999D01*
X128043001Y-73317999D02*
X128485001Y-73759999D01*
X128485001Y-73759999D02*
X128485001Y-75514003D01*
X128485001Y-75514003D02*
X133869998Y-80899000D01*
X133869998Y-80899000D02*
X134493000Y-80899000D01*
D10*
X145191599Y-90733999D02*
X144337001Y-89879401D01*
X144337001Y-89879401D02*
X144337001Y-88814125D01*
X144337001Y-88814125D02*
X139790001Y-84267125D01*
X145191599Y-91805751D02*
X145191599Y-90733999D01*
X139413001Y-83729999D02*
X139413001Y-83713082D01*
X139413001Y-83713082D02*
X137734250Y-82034331D01*
X134192143Y-82034331D02*
X125984082Y-73826270D01*
X137734250Y-82034331D02*
X134192143Y-82034331D01*
D27*
X120967010Y-73826270D02*
X125984082Y-73826270D01*
X139790001Y-84267125D02*
X139790001Y-84106999D01*
X139790001Y-84106999D02*
X139413001Y-83729999D01*
X120967010Y-69889270D02*
X115022731Y-63944991D01*
X113450269Y-63944991D02*
X112966991Y-64428269D01*
X112966991Y-64428269D02*
X112966991Y-66865991D01*
X120967010Y-73826270D02*
X120967010Y-69889270D01*
X115022731Y-63944991D02*
X113450269Y-63944991D01*
X112966991Y-66865991D02*
X113792000Y-67691000D01*
D10*
X144399000Y-74740002D02*
X143833315Y-74740002D01*
X143833315Y-74740002D02*
X143490917Y-75082400D01*
X143490917Y-75082400D02*
X140946100Y-75082400D01*
X140946100Y-75082400D02*
X136010690Y-70146989D01*
X136010690Y-70146989D02*
X134925713Y-70146989D01*
X133854551Y-71218151D02*
X133807200Y-71170800D01*
X134925713Y-70146989D02*
X133854551Y-71218151D01*
X133807200Y-71170800D02*
X129692400Y-71170800D01*
D27*
X114300000Y-72517000D02*
X114300000Y-69284018D01*
X122899001Y-64040999D02*
X122899001Y-69988599D01*
X114300000Y-69284018D02*
X114306008Y-69278010D01*
X113263869Y-63494981D02*
X122352983Y-63494981D01*
X112516981Y-67488983D02*
X112516982Y-64241868D01*
X114306008Y-69278010D02*
X112516981Y-67488983D01*
X112516982Y-64241868D02*
X113263869Y-63494981D01*
X122899001Y-69988599D02*
X123701391Y-70790989D01*
X122352983Y-63494981D02*
X122899001Y-64040999D01*
X123701391Y-70790989D02*
X126975789Y-70790989D01*
X126975789Y-70790989D02*
X127341799Y-71156999D01*
X127341799Y-71156999D02*
X128052999Y-71156999D01*
X128052999Y-71156999D02*
X128066800Y-71170800D01*
X128066800Y-71170800D02*
X129692400Y-71170800D01*
D10*
X145516600Y-92938600D02*
X145083752Y-92505752D01*
X145083752Y-92505752D02*
X144855598Y-92505752D01*
X144855598Y-92505752D02*
X143452998Y-91103152D01*
X143452998Y-91103152D02*
X143452998Y-90297000D01*
X136878991Y-86444011D02*
X136163961Y-87159041D01*
X143452998Y-90297000D02*
X142936999Y-89781001D01*
X142936999Y-89781001D02*
X142936999Y-89092001D01*
X143129000Y-88900000D02*
X143129000Y-88737520D01*
X142936999Y-89092001D02*
X143129000Y-88900000D01*
X140835491Y-86444011D02*
X136878991Y-86444011D01*
X143129000Y-88737520D02*
X140835491Y-86444011D01*
D27*
X136163961Y-87159041D02*
X135476001Y-87847001D01*
X135476001Y-87847001D02*
X129335673Y-87847001D01*
X129335673Y-87847001D02*
X118181010Y-76692338D01*
X116192925Y-75011390D02*
X114300000Y-76904315D01*
X118181010Y-76692338D02*
X118181010Y-75707662D01*
X117484738Y-75011390D02*
X116192925Y-75011390D01*
X118181010Y-75707662D02*
X117484738Y-75011390D01*
X114300000Y-76904315D02*
X114300000Y-77470000D01*
D10*
X129336800Y-70720790D02*
X129361800Y-70745790D01*
X145415000Y-74237315D02*
X145415000Y-74803000D01*
X129361800Y-70745790D02*
X133761214Y-70745790D01*
X133761214Y-70745790D02*
X134760025Y-69746979D01*
X134760025Y-69746979D02*
X136176379Y-69746979D01*
X136176379Y-69746979D02*
X140469399Y-74040001D01*
X140469399Y-74040001D02*
X145217686Y-74040001D01*
X145217686Y-74040001D02*
X145415000Y-74237315D01*
D27*
X129506000Y-70720790D02*
X129336800Y-70720790D01*
X129336800Y-70720790D02*
X128277190Y-70720790D01*
X145415000Y-74803000D02*
X145415000Y-74683000D01*
X112066973Y-64055467D02*
X112066972Y-67675382D01*
X113574999Y-88881651D02*
X114300000Y-89606652D01*
X127162190Y-70340980D02*
X124087379Y-70340979D01*
X128277190Y-70720790D02*
X128263389Y-70706989D01*
X128263389Y-70706989D02*
X127528199Y-70706989D01*
X123580020Y-64085608D02*
X122539384Y-63044972D01*
X127528199Y-70706989D02*
X127162190Y-70340980D01*
X124087379Y-70340979D02*
X123580020Y-69833620D01*
X123580020Y-69833620D02*
X123580020Y-64085608D01*
X122539384Y-63044972D02*
X113077469Y-63044971D01*
X112066972Y-67675382D02*
X113574999Y-69183409D01*
X113077469Y-63044971D02*
X112066973Y-64055467D01*
X113574999Y-69183409D02*
X113574999Y-88881651D01*
X114300000Y-89606652D02*
X114300000Y-91567000D01*
D30*
X155575000Y-90678000D02*
X155194000Y-90297000D01*
X157607000Y-90678000D02*
X155575000Y-90678000D01*
X159258000Y-89027000D02*
X157607000Y-90678000D01*
X160274000Y-89027000D02*
X159258000Y-89027000D01*
X160268883Y-89032117D02*
X160274000Y-89027000D01*
X158496000Y-90678000D02*
X156718000Y-92456000D01*
X161925000Y-90678000D02*
X158496000Y-90678000D01*
X161919883Y-90683117D02*
X161925000Y-90678000D01*
D27*
X153416000Y-86995000D02*
X155765500Y-86995000D01*
X152971500Y-87439500D02*
X153416000Y-86995000D01*
D10*
X142684500Y-86525214D02*
X142684500Y-86595926D01*
X118260008Y-96600010D02*
X118235008Y-96575010D01*
X142684500Y-86595926D02*
X144737011Y-88648437D01*
X146241601Y-92627599D02*
X146241601Y-93321958D01*
X144737011Y-88648437D02*
X144737011Y-89713713D01*
X145891600Y-92277598D02*
X146241601Y-92627599D01*
X144737011Y-89713713D02*
X145891600Y-90868302D01*
X145891600Y-90868302D02*
X145891600Y-92277598D01*
X143116380Y-97094478D02*
X141906468Y-98304390D01*
X146241601Y-93321958D02*
X143116380Y-96447176D01*
X143116380Y-96447176D02*
X143116380Y-97094478D01*
X141906468Y-98304390D02*
X141641344Y-98304390D01*
X141641344Y-98304390D02*
X139936965Y-96600010D01*
X139936965Y-96600010D02*
X118260008Y-96600010D01*
D27*
X142684500Y-86525214D02*
X142684500Y-85598000D01*
X142684500Y-85598000D02*
X140716000Y-83629500D01*
X106680000Y-77533500D02*
X113124989Y-77533500D01*
X113124989Y-91464991D02*
X118235008Y-96575010D01*
X113124989Y-77533500D02*
X113124989Y-91464991D01*
X119566990Y-70469176D02*
X118375825Y-69278011D01*
X114604414Y-68203226D02*
X114604414Y-67004814D01*
X118375825Y-69278011D02*
X115679199Y-69278011D01*
X115679199Y-69278011D02*
X114604414Y-68203226D01*
X114604414Y-67004814D02*
X113944400Y-66344800D01*
X119566990Y-74406176D02*
X119566990Y-70469176D01*
X120343984Y-74829616D02*
X120257378Y-74743010D01*
X120257378Y-74743010D02*
X119903824Y-74743010D01*
X119903824Y-74743010D02*
X119566990Y-74406176D01*
X126238000Y-80723632D02*
X120343984Y-74829616D01*
X125957499Y-81204901D02*
X126238000Y-80924400D01*
X126238000Y-80924400D02*
X126238000Y-80723632D01*
X127607168Y-82092800D02*
X127260202Y-82092800D01*
X127260202Y-82092800D02*
X127030501Y-82322501D01*
X127030501Y-82322501D02*
X126334499Y-82322501D01*
X126334499Y-82322501D02*
X125957499Y-81945501D01*
X125957499Y-81945501D02*
X125957499Y-81204901D01*
X130606800Y-86395560D02*
X130606800Y-85092432D01*
X130606800Y-85092432D02*
X127607168Y-82092800D01*
D30*
X152781000Y-88519000D02*
X150749000Y-86487000D01*
X156083000Y-88519000D02*
X152781000Y-88519000D01*
X157226000Y-89662000D02*
X156083000Y-88519000D01*
D31*
G36*
X140507539Y-75318419D02*
X140276440Y-75413908D01*
X140057676Y-75632290D01*
X139939135Y-75917767D01*
X139938911Y-76175509D01*
X139490798Y-76623622D01*
X139150272Y-76623622D01*
X138767509Y-76240859D01*
X138869560Y-76198692D01*
X139088324Y-75980310D01*
X139206865Y-75694833D01*
X139207134Y-75385723D01*
X139089092Y-75100040D01*
X138870710Y-74881276D01*
X138585233Y-74762735D01*
X138276123Y-74762466D01*
X138137387Y-74819791D01*
X138022292Y-74541240D01*
X137803910Y-74322476D01*
X137518433Y-74203935D01*
X137209323Y-74203666D01*
X136923640Y-74321708D01*
X136704876Y-74540090D01*
X136586335Y-74825567D01*
X136586066Y-75134677D01*
X136704108Y-75420360D01*
X136868960Y-75585500D01*
X136899412Y-75738592D01*
X137008232Y-75901453D01*
X138562370Y-77455590D01*
X138725230Y-77564410D01*
X138917337Y-77602623D01*
X139043024Y-77577622D01*
X139539772Y-77577622D01*
X138900058Y-78217336D01*
X137958291Y-77964755D01*
X135034463Y-75040927D01*
X135059063Y-75040948D01*
X135344746Y-74922906D01*
X135563510Y-74704524D01*
X135682051Y-74419047D01*
X135682106Y-74355833D01*
X135734767Y-74377700D01*
X136043877Y-74377969D01*
X136329560Y-74259927D01*
X136548324Y-74041545D01*
X136666865Y-73756068D01*
X136667134Y-73446958D01*
X136549092Y-73161275D01*
X136330710Y-72942511D01*
X136045233Y-72823970D01*
X135736123Y-72823701D01*
X135450440Y-72941743D01*
X135269143Y-73122724D01*
X135152092Y-72839440D01*
X135089688Y-72776927D01*
X135302573Y-72564414D01*
X135421114Y-72278937D01*
X135421336Y-72023924D01*
X135662877Y-72024134D01*
X135948560Y-71906092D01*
X136167324Y-71687710D01*
X136285865Y-71402233D01*
X136286131Y-71097010D01*
X140507539Y-75318419D01*
X140507539Y-75318419D01*
G37*
X140507539Y-75318419D02*
X140276440Y-75413908D01*
X140057676Y-75632290D01*
X139939135Y-75917767D01*
X139938911Y-76175509D01*
X139490798Y-76623622D01*
X139150272Y-76623622D01*
X138767509Y-76240859D01*
X138869560Y-76198692D01*
X139088324Y-75980310D01*
X139206865Y-75694833D01*
X139207134Y-75385723D01*
X139089092Y-75100040D01*
X138870710Y-74881276D01*
X138585233Y-74762735D01*
X138276123Y-74762466D01*
X138137387Y-74819791D01*
X138022292Y-74541240D01*
X137803910Y-74322476D01*
X137518433Y-74203935D01*
X137209323Y-74203666D01*
X136923640Y-74321708D01*
X136704876Y-74540090D01*
X136586335Y-74825567D01*
X136586066Y-75134677D01*
X136704108Y-75420360D01*
X136868960Y-75585500D01*
X136899412Y-75738592D01*
X137008232Y-75901453D01*
X138562370Y-77455590D01*
X138725230Y-77564410D01*
X138917337Y-77602623D01*
X139043024Y-77577622D01*
X139539772Y-77577622D01*
X138900058Y-78217336D01*
X137958291Y-77964755D01*
X135034463Y-75040927D01*
X135059063Y-75040948D01*
X135344746Y-74922906D01*
X135563510Y-74704524D01*
X135682051Y-74419047D01*
X135682106Y-74355833D01*
X135734767Y-74377700D01*
X136043877Y-74377969D01*
X136329560Y-74259927D01*
X136548324Y-74041545D01*
X136666865Y-73756068D01*
X136667134Y-73446958D01*
X136549092Y-73161275D01*
X136330710Y-72942511D01*
X136045233Y-72823970D01*
X135736123Y-72823701D01*
X135450440Y-72941743D01*
X135269143Y-73122724D01*
X135152092Y-72839440D01*
X135089688Y-72776927D01*
X135302573Y-72564414D01*
X135421114Y-72278937D01*
X135421336Y-72023924D01*
X135662877Y-72024134D01*
X135948560Y-71906092D01*
X136167324Y-71687710D01*
X136285865Y-71402233D01*
X136286131Y-71097010D01*
X140507539Y-75318419D01*
G36*
X158781908Y-74226560D02*
X159000290Y-74445324D01*
X159285767Y-74563865D01*
X159531885Y-74564079D01*
X159497135Y-74647767D01*
X159496866Y-74956877D01*
X159614908Y-75242560D01*
X159652516Y-75280234D01*
X159240750Y-75692000D01*
X158925118Y-75692000D01*
X159018865Y-75466233D01*
X159019134Y-75157123D01*
X158901092Y-74871440D01*
X158682710Y-74652676D01*
X158397233Y-74534135D01*
X158330856Y-74534077D01*
X158739941Y-74124992D01*
X158781908Y-74226560D01*
X158781908Y-74226560D01*
G37*
X158781908Y-74226560D02*
X159000290Y-74445324D01*
X159285767Y-74563865D01*
X159531885Y-74564079D01*
X159497135Y-74647767D01*
X159496866Y-74956877D01*
X159614908Y-75242560D01*
X159652516Y-75280234D01*
X159240750Y-75692000D01*
X158925118Y-75692000D01*
X159018865Y-75466233D01*
X159019134Y-75157123D01*
X158901092Y-74871440D01*
X158682710Y-74652676D01*
X158397233Y-74534135D01*
X158330856Y-74534077D01*
X158739941Y-74124992D01*
X158781908Y-74226560D01*
G36*
X174620776Y-63500000D02*
X160147000Y-63500000D01*
X160097590Y-63510006D01*
X160055965Y-63538447D01*
X160028685Y-63580841D01*
X160020000Y-63627000D01*
X160020000Y-66040000D01*
X160030006Y-66089410D01*
X160058447Y-66131035D01*
X160100841Y-66158315D01*
X160147000Y-66167000D01*
X165608000Y-66167000D01*
X165608000Y-70529007D01*
X165584676Y-70552290D01*
X165466135Y-70837767D01*
X165465866Y-71146877D01*
X165583908Y-71432560D01*
X165608000Y-71456694D01*
X165608000Y-74220064D01*
X165496078Y-74331986D01*
X165496134Y-74268123D01*
X165378092Y-73982440D01*
X165159710Y-73763676D01*
X164874233Y-73645135D01*
X164565123Y-73644866D01*
X164491011Y-73675489D01*
X164491011Y-73457209D01*
X164452799Y-73265102D01*
X164343979Y-73102241D01*
X164343976Y-73102239D01*
X163225970Y-71984232D01*
X163063109Y-71875412D01*
X162871002Y-71837199D01*
X162870997Y-71837200D01*
X162750361Y-71837200D01*
X162594310Y-71680876D01*
X162308833Y-71562335D01*
X161999723Y-71562066D01*
X161714040Y-71680108D01*
X161495276Y-71898490D01*
X161376735Y-72183967D01*
X161376466Y-72493077D01*
X161494508Y-72778760D01*
X161712890Y-72997524D01*
X161998367Y-73116065D01*
X162143816Y-73116192D01*
X162087935Y-73250767D01*
X162087666Y-73559877D01*
X162205708Y-73845560D01*
X162424090Y-74064324D01*
X162709567Y-74182865D01*
X162931923Y-74183059D01*
X163037001Y-74288136D01*
X163037001Y-75146475D01*
X162969233Y-75118335D01*
X162660123Y-75118066D01*
X162374440Y-75236108D01*
X162155676Y-75454490D01*
X162057053Y-75692000D01*
X160650118Y-75692000D01*
X160737788Y-75560792D01*
X160746786Y-75515555D01*
X160768288Y-75407459D01*
X160932324Y-75243710D01*
X161050865Y-74958233D01*
X161051134Y-74649123D01*
X160933092Y-74363440D01*
X160776000Y-74206073D01*
X160776000Y-73546998D01*
X160737788Y-73354891D01*
X160737788Y-73354890D01*
X160694200Y-73289658D01*
X160628968Y-73192030D01*
X160628965Y-73192028D01*
X160143969Y-72707031D01*
X159981108Y-72598211D01*
X159789001Y-72559998D01*
X159788996Y-72559999D01*
X159092999Y-72559999D01*
X158900891Y-72598211D01*
X158855013Y-72628866D01*
X158738031Y-72707031D01*
X158738029Y-72707034D01*
X155753062Y-75692000D01*
X148408001Y-75692000D01*
X148408001Y-74448316D01*
X148341243Y-74112703D01*
X148151134Y-73828183D01*
X146346818Y-72023867D01*
X146062298Y-71833758D01*
X145726685Y-71767000D01*
X145161000Y-71767000D01*
X144825387Y-71833758D01*
X144540867Y-72023867D01*
X144350758Y-72308387D01*
X144284000Y-72644000D01*
X144350758Y-72979613D01*
X144383930Y-73029259D01*
X144383866Y-73102677D01*
X144501908Y-73388360D01*
X144676244Y-73563001D01*
X142622569Y-73563001D01*
X142882760Y-73455492D01*
X143101524Y-73237110D01*
X143220065Y-72951633D01*
X143220334Y-72642523D01*
X143102292Y-72356840D01*
X143073674Y-72328172D01*
X143128579Y-72246001D01*
X143172502Y-72025193D01*
X143172501Y-72025188D01*
X143172501Y-69648277D01*
X143545666Y-69648277D01*
X143663708Y-69933960D01*
X143882090Y-70152724D01*
X144167567Y-70271265D01*
X144476677Y-70271534D01*
X144762360Y-70153492D01*
X144981124Y-69935110D01*
X145099665Y-69649633D01*
X145099688Y-69622877D01*
X156321866Y-69622877D01*
X156439908Y-69908560D01*
X156658290Y-70127324D01*
X156943767Y-70245865D01*
X157252877Y-70246134D01*
X157538560Y-70128092D01*
X157757324Y-69909710D01*
X157875865Y-69624233D01*
X157876134Y-69315123D01*
X157761909Y-69038677D01*
X158333868Y-69038677D01*
X158451910Y-69324360D01*
X158670292Y-69543124D01*
X158955769Y-69661665D01*
X159264879Y-69661934D01*
X159550562Y-69543892D01*
X159769326Y-69325510D01*
X159887867Y-69040033D01*
X159888136Y-68730923D01*
X159770094Y-68445240D01*
X159551712Y-68226476D01*
X159266235Y-68107935D01*
X158957125Y-68107666D01*
X158671442Y-68225708D01*
X158452678Y-68444090D01*
X158334137Y-68729567D01*
X158333868Y-69038677D01*
X157761909Y-69038677D01*
X157758092Y-69029440D01*
X157539710Y-68810676D01*
X157254233Y-68692135D01*
X156945123Y-68691866D01*
X156659440Y-68809908D01*
X156440676Y-69028290D01*
X156322135Y-69313767D01*
X156321866Y-69622877D01*
X145099688Y-69622877D01*
X145099934Y-69340523D01*
X144981892Y-69054840D01*
X144763510Y-68836076D01*
X144478033Y-68717535D01*
X144168923Y-68717266D01*
X143883240Y-68835308D01*
X143664476Y-69053690D01*
X143545935Y-69339167D01*
X143545666Y-69648277D01*
X143172501Y-69648277D01*
X143172501Y-69100806D01*
X143172502Y-69100801D01*
X143128579Y-68879993D01*
X143101169Y-68838971D01*
X143003502Y-68692800D01*
X143003499Y-68692798D01*
X140996702Y-66686000D01*
X140809509Y-66560923D01*
X140588701Y-66517000D01*
X140367893Y-66560923D01*
X140283965Y-66617001D01*
X134703181Y-66617001D01*
X133342889Y-65256709D01*
X133188139Y-65153308D01*
X133005599Y-65116999D01*
X131489999Y-65116999D01*
X131307459Y-65153308D01*
X131152709Y-65256709D01*
X130788709Y-65620709D01*
X130685308Y-65775459D01*
X130648999Y-65957999D01*
X130648999Y-66526519D01*
X130621884Y-66553634D01*
X130621934Y-66495723D01*
X130503892Y-66210040D01*
X130285510Y-65991276D01*
X130000033Y-65872735D01*
X129690923Y-65872466D01*
X129405240Y-65990508D01*
X129186476Y-66208890D01*
X129067935Y-66494367D01*
X129067666Y-66803477D01*
X129185708Y-67089160D01*
X129404090Y-67307924D01*
X129689567Y-67426465D01*
X129749001Y-67426517D01*
X129705831Y-67469687D01*
X129449623Y-67469464D01*
X129163940Y-67587506D01*
X128945176Y-67805888D01*
X128826635Y-68091365D01*
X128826366Y-68400475D01*
X128944408Y-68686158D01*
X129162790Y-68904922D01*
X129448267Y-69023463D01*
X129757377Y-69023732D01*
X130043060Y-68905690D01*
X130261824Y-68687308D01*
X130380365Y-68401831D01*
X130380589Y-68144089D01*
X131463289Y-67061389D01*
X131566690Y-66906639D01*
X131602999Y-66724099D01*
X131602999Y-66155579D01*
X131687579Y-66070999D01*
X132808019Y-66070999D01*
X134168311Y-67431291D01*
X134323061Y-67534692D01*
X134505601Y-67571001D01*
X138560474Y-67571001D01*
X138464478Y-67666829D01*
X138267733Y-67585133D01*
X137958623Y-67584864D01*
X137672940Y-67702906D01*
X137454176Y-67921288D01*
X137335635Y-68206765D01*
X137335366Y-68515875D01*
X137453408Y-68801558D01*
X137671790Y-69020322D01*
X137957267Y-69138863D01*
X138266377Y-69139132D01*
X138552060Y-69021090D01*
X138748440Y-68825053D01*
X138945185Y-68906749D01*
X139254295Y-68907018D01*
X139472936Y-68816677D01*
X139640290Y-68984324D01*
X139925767Y-69102865D01*
X140234877Y-69103134D01*
X140520560Y-68985092D01*
X140739324Y-68766710D01*
X140857865Y-68481233D01*
X140858128Y-68179429D01*
X141662306Y-68983607D01*
X141633233Y-68971535D01*
X141324123Y-68971266D01*
X141038440Y-69089308D01*
X140819676Y-69307690D01*
X140701135Y-69593167D01*
X140700866Y-69902277D01*
X140818908Y-70187960D01*
X141037290Y-70406724D01*
X141322767Y-70525265D01*
X141631877Y-70525534D01*
X141917560Y-70407492D01*
X142018501Y-70306727D01*
X142018501Y-71198292D01*
X141888711Y-71068275D01*
X141603234Y-70949734D01*
X141294124Y-70949465D01*
X141008441Y-71067507D01*
X140926205Y-71149599D01*
X139123200Y-71149599D01*
X136812572Y-68838970D01*
X136625379Y-68713893D01*
X136404571Y-68669970D01*
X136404566Y-68669971D01*
X136383504Y-68669971D01*
X136383489Y-68669968D01*
X136383484Y-68669969D01*
X133057116Y-68669969D01*
X132439469Y-68052322D01*
X132439569Y-67937413D01*
X132321527Y-67651730D01*
X132103145Y-67432966D01*
X131817668Y-67314425D01*
X131508558Y-67314156D01*
X131222875Y-67432198D01*
X131004111Y-67650580D01*
X130885570Y-67936057D01*
X130885301Y-68245167D01*
X131003343Y-68530850D01*
X131221725Y-68749614D01*
X131507202Y-68868155D01*
X131623399Y-68868256D01*
X132410113Y-69654970D01*
X132597306Y-69780047D01*
X132818114Y-69823970D01*
X132818119Y-69823969D01*
X134008455Y-69823969D01*
X133563634Y-70268790D01*
X129715749Y-70268790D01*
X129698107Y-70257002D01*
X129506000Y-70218790D01*
X128332775Y-70218790D01*
X128263389Y-70204988D01*
X128263384Y-70204989D01*
X127736135Y-70204989D01*
X127517158Y-69986012D01*
X127354297Y-69877192D01*
X127162190Y-69838979D01*
X127162185Y-69838980D01*
X124295315Y-69838979D01*
X124082020Y-69625684D01*
X124082020Y-66954204D01*
X126542911Y-66954204D01*
X126660953Y-67239887D01*
X126879335Y-67458651D01*
X127164812Y-67577192D01*
X127473922Y-67577461D01*
X127759605Y-67459419D01*
X127978369Y-67241037D01*
X128096910Y-66955560D01*
X128097179Y-66646450D01*
X127979137Y-66360767D01*
X127760755Y-66142003D01*
X127475278Y-66023462D01*
X127166168Y-66023193D01*
X126880485Y-66141235D01*
X126661721Y-66359617D01*
X126543180Y-66645094D01*
X126542911Y-66954204D01*
X124082020Y-66954204D01*
X124082020Y-66193877D01*
X124292466Y-66193877D01*
X124410508Y-66479560D01*
X124628890Y-66698324D01*
X124914367Y-66816865D01*
X125223477Y-66817134D01*
X125509160Y-66699092D01*
X125727924Y-66480710D01*
X125846465Y-66195233D01*
X125846689Y-65937491D01*
X127940365Y-63843815D01*
X134193334Y-63843815D01*
X134088676Y-63948290D01*
X133970135Y-64233767D01*
X133969866Y-64542877D01*
X134087908Y-64828560D01*
X134306290Y-65047324D01*
X134591767Y-65165865D01*
X134849509Y-65166089D01*
X135189711Y-65506291D01*
X135344461Y-65609692D01*
X135527001Y-65646001D01*
X140774199Y-65646001D01*
X140956739Y-65609692D01*
X141111489Y-65506291D01*
X141572389Y-65045391D01*
X145133997Y-68606998D01*
X145133999Y-68607001D01*
X145262622Y-68692943D01*
X145321192Y-68732078D01*
X145542000Y-68776001D01*
X145542005Y-68776000D01*
X146588706Y-68776000D01*
X146669888Y-68857324D01*
X146955365Y-68975865D01*
X147264475Y-68976134D01*
X147550158Y-68858092D01*
X147768922Y-68639710D01*
X147887463Y-68354233D01*
X147887732Y-68045123D01*
X147769690Y-67759440D01*
X147679182Y-67668773D01*
X147724324Y-67623710D01*
X147842865Y-67338233D01*
X147843134Y-67029123D01*
X147725092Y-66743440D01*
X147506710Y-66524676D01*
X147221233Y-66406135D01*
X146912123Y-66405866D01*
X146626440Y-66523908D01*
X146407676Y-66742290D01*
X146289135Y-67027767D01*
X146288866Y-67336877D01*
X146406677Y-67622000D01*
X145781001Y-67622000D01*
X142309000Y-64149998D01*
X142309000Y-64034877D01*
X154416866Y-64034877D01*
X154534908Y-64320560D01*
X154753290Y-64539324D01*
X155038767Y-64657865D01*
X155347877Y-64658134D01*
X155633560Y-64540092D01*
X155852324Y-64321710D01*
X155970865Y-64036233D01*
X155971134Y-63727123D01*
X155853092Y-63441440D01*
X155634710Y-63222676D01*
X155349233Y-63104135D01*
X155040123Y-63103866D01*
X154754440Y-63221908D01*
X154535676Y-63440290D01*
X154417135Y-63725767D01*
X154416866Y-64034877D01*
X142309000Y-64034877D01*
X142309000Y-63754000D01*
X142265078Y-63533192D01*
X142140001Y-63345999D01*
X141952808Y-63220922D01*
X141732000Y-63177000D01*
X141511192Y-63220922D01*
X141496152Y-63230971D01*
X141374923Y-63230866D01*
X141089240Y-63348908D01*
X140870476Y-63567290D01*
X140751935Y-63852767D01*
X140751666Y-64161877D01*
X140855484Y-64413136D01*
X140576619Y-64692001D01*
X140575725Y-64692001D01*
X140603865Y-64624233D01*
X140604134Y-64315123D01*
X140486092Y-64029440D01*
X140267710Y-63810676D01*
X139982233Y-63692135D01*
X139673123Y-63691866D01*
X139387440Y-63809908D01*
X139168676Y-64028290D01*
X139050135Y-64313767D01*
X139049866Y-64622877D01*
X139078428Y-64692001D01*
X135724581Y-64692001D01*
X135523911Y-64491331D01*
X135524134Y-64235123D01*
X135406092Y-63949440D01*
X135300651Y-63843815D01*
X138069518Y-63843815D01*
X138250525Y-64025139D01*
X138536002Y-64143680D01*
X138845112Y-64143949D01*
X139130795Y-64025907D01*
X139349559Y-63807525D01*
X139455617Y-63552111D01*
X139671767Y-63641865D01*
X139980877Y-63642134D01*
X140266560Y-63524092D01*
X140485324Y-63305710D01*
X140603865Y-63020233D01*
X140604134Y-62711123D01*
X140486092Y-62425440D01*
X140267710Y-62206676D01*
X139982233Y-62088135D01*
X139673123Y-62087866D01*
X139387440Y-62205908D01*
X139168676Y-62424290D01*
X139062618Y-62679704D01*
X138846468Y-62589950D01*
X138537358Y-62589681D01*
X138251675Y-62707723D01*
X138069264Y-62889815D01*
X127742785Y-62889815D01*
X127560244Y-62926124D01*
X127405495Y-63029525D01*
X125171931Y-65263089D01*
X124915723Y-65262866D01*
X124630040Y-65380908D01*
X124411276Y-65599290D01*
X124292735Y-65884767D01*
X124292466Y-66193877D01*
X124082020Y-66193877D01*
X124082020Y-64085613D01*
X124082021Y-64085608D01*
X124043808Y-63893501D01*
X124023668Y-63863360D01*
X123934988Y-63730640D01*
X123934985Y-63730638D01*
X122894352Y-62690004D01*
X122731491Y-62581184D01*
X122539384Y-62542971D01*
X122539379Y-62542972D01*
X119762625Y-62542972D01*
X119873133Y-62469133D01*
X120124266Y-62218000D01*
X125730000Y-62218000D01*
X126065613Y-62151242D01*
X126287658Y-62002877D01*
X148795864Y-62002877D01*
X148913906Y-62288560D01*
X149132288Y-62507324D01*
X149417765Y-62625865D01*
X149726875Y-62626134D01*
X150012558Y-62508092D01*
X150136990Y-62383877D01*
X171053866Y-62383877D01*
X171171908Y-62669560D01*
X171390290Y-62888324D01*
X171675767Y-63006865D01*
X171984877Y-63007134D01*
X172270560Y-62889092D01*
X172489324Y-62670710D01*
X172607865Y-62385233D01*
X172608134Y-62076123D01*
X172490092Y-61790440D01*
X172271710Y-61571676D01*
X171986233Y-61453135D01*
X171677123Y-61452866D01*
X171391440Y-61570908D01*
X171172676Y-61789290D01*
X171054135Y-62074767D01*
X171053866Y-62383877D01*
X150136990Y-62383877D01*
X150231322Y-62289710D01*
X150349863Y-62004233D01*
X150350107Y-61723477D01*
X167878866Y-61723477D01*
X167996908Y-62009160D01*
X168215290Y-62227924D01*
X168500767Y-62346465D01*
X168809877Y-62346734D01*
X169095560Y-62228692D01*
X169314324Y-62010310D01*
X169432865Y-61724833D01*
X169433134Y-61415723D01*
X169315092Y-61130040D01*
X169096710Y-60911276D01*
X168811233Y-60792735D01*
X168502123Y-60792466D01*
X168216440Y-60910508D01*
X167997676Y-61128890D01*
X167879135Y-61414367D01*
X167878866Y-61723477D01*
X150350107Y-61723477D01*
X150350132Y-61695123D01*
X150232090Y-61409440D01*
X150013708Y-61190676D01*
X149728231Y-61072135D01*
X149419121Y-61071866D01*
X149133438Y-61189908D01*
X148914674Y-61408290D01*
X148796133Y-61693767D01*
X148795864Y-62002877D01*
X126287658Y-62002877D01*
X126350133Y-61961133D01*
X129649265Y-58662000D01*
X132333597Y-58662000D01*
X132173150Y-58822167D01*
X131961242Y-59332499D01*
X131960760Y-59885077D01*
X132171777Y-60395777D01*
X132562167Y-60786850D01*
X133072499Y-60998758D01*
X133625077Y-60999240D01*
X134135777Y-60788223D01*
X134526850Y-60397833D01*
X134651402Y-60097877D01*
X157571866Y-60097877D01*
X157689908Y-60383560D01*
X157908290Y-60602324D01*
X158193767Y-60720865D01*
X158502877Y-60721134D01*
X158788560Y-60603092D01*
X158849381Y-60542377D01*
X163687866Y-60542377D01*
X163805908Y-60828060D01*
X164024290Y-61046824D01*
X164309767Y-61165365D01*
X164618877Y-61165634D01*
X164904560Y-61047592D01*
X165123324Y-60829210D01*
X165241865Y-60543733D01*
X165242134Y-60234623D01*
X165124092Y-59948940D01*
X164905710Y-59730176D01*
X164620233Y-59611635D01*
X164311123Y-59611366D01*
X164025440Y-59729408D01*
X163806676Y-59947790D01*
X163688135Y-60233267D01*
X163687866Y-60542377D01*
X158849381Y-60542377D01*
X159007324Y-60384710D01*
X159125865Y-60099233D01*
X159126134Y-59790123D01*
X159008092Y-59504440D01*
X158789710Y-59285676D01*
X158504233Y-59167135D01*
X158195123Y-59166866D01*
X157909440Y-59284908D01*
X157690676Y-59503290D01*
X157572135Y-59788767D01*
X157571866Y-60097877D01*
X134651402Y-60097877D01*
X134738758Y-59887501D01*
X134739240Y-59334923D01*
X134634684Y-59081877D01*
X146460864Y-59081877D01*
X146578906Y-59367560D01*
X146797288Y-59586324D01*
X147082765Y-59704865D01*
X147391875Y-59705134D01*
X147677558Y-59587092D01*
X147896322Y-59368710D01*
X148014863Y-59083233D01*
X148015132Y-58774123D01*
X147897090Y-58488440D01*
X147678708Y-58269676D01*
X147393231Y-58151135D01*
X147084121Y-58150866D01*
X146798438Y-58268908D01*
X146579674Y-58487290D01*
X146461133Y-58772767D01*
X146460864Y-59081877D01*
X134634684Y-59081877D01*
X134528223Y-58824223D01*
X134366283Y-58662000D01*
X138430000Y-58662000D01*
X138765613Y-58595242D01*
X139050133Y-58405133D01*
X139240242Y-58120613D01*
X139307000Y-57785000D01*
X139240242Y-57449387D01*
X139050133Y-57164867D01*
X138765613Y-56974758D01*
X138430000Y-56908000D01*
X129286000Y-56908000D01*
X128950386Y-56974758D01*
X128900837Y-57007866D01*
X128665867Y-57164867D01*
X128665865Y-57164870D01*
X125366734Y-60464000D01*
X119761000Y-60464000D01*
X119425387Y-60530758D01*
X119140867Y-60720867D01*
X119140865Y-60720870D01*
X118632867Y-61228867D01*
X118442758Y-61513387D01*
X118376000Y-61849000D01*
X118442758Y-62184613D01*
X118632867Y-62469133D01*
X118743375Y-62542972D01*
X113356253Y-62542971D01*
X120019224Y-55880000D01*
X123039710Y-55880000D01*
X123145746Y-56413078D01*
X123447710Y-56865000D01*
X123679108Y-57019615D01*
X123444000Y-57019615D01*
X123304292Y-57045903D01*
X123175980Y-57128470D01*
X123089899Y-57254453D01*
X123059615Y-57404000D01*
X123059615Y-59436000D01*
X123085903Y-59575708D01*
X123168470Y-59704020D01*
X123294453Y-59790101D01*
X123444000Y-59820385D01*
X125476000Y-59820385D01*
X125615708Y-59794097D01*
X125744020Y-59711530D01*
X125830101Y-59585547D01*
X125860385Y-59436000D01*
X125860385Y-57404000D01*
X125834097Y-57264292D01*
X125751530Y-57135980D01*
X125625547Y-57049899D01*
X125476000Y-57019615D01*
X125240892Y-57019615D01*
X125472290Y-56865000D01*
X125774254Y-56413078D01*
X125880290Y-55880000D01*
X125774254Y-55346922D01*
X125563316Y-55031230D01*
X126222632Y-55031230D01*
X126545766Y-55813274D01*
X127143578Y-56412131D01*
X127925057Y-56736630D01*
X128771230Y-56737368D01*
X129553274Y-56414234D01*
X130152131Y-55816422D01*
X130476630Y-55034943D01*
X130476633Y-55031230D01*
X136222632Y-55031230D01*
X136545766Y-55813274D01*
X137143578Y-56412131D01*
X137925057Y-56736630D01*
X138771230Y-56737368D01*
X138888587Y-56688877D01*
X144764866Y-56688877D01*
X144882908Y-56974560D01*
X145101290Y-57193324D01*
X145386767Y-57311865D01*
X145695877Y-57312134D01*
X145981560Y-57194092D01*
X146200324Y-56975710D01*
X146318865Y-56690233D01*
X146319134Y-56381123D01*
X146201092Y-56095440D01*
X145982710Y-55876676D01*
X145749594Y-55779877D01*
X149590866Y-55779877D01*
X149708908Y-56065560D01*
X149927290Y-56284324D01*
X150212767Y-56402865D01*
X150521877Y-56403134D01*
X150807560Y-56285092D01*
X151026324Y-56066710D01*
X151144865Y-55781233D01*
X151145134Y-55472123D01*
X151027092Y-55186440D01*
X150808710Y-54967676D01*
X150523233Y-54849135D01*
X150214123Y-54848866D01*
X149928440Y-54966908D01*
X149709676Y-55185290D01*
X149591135Y-55470767D01*
X149590866Y-55779877D01*
X145749594Y-55779877D01*
X145697233Y-55758135D01*
X145388123Y-55757866D01*
X145102440Y-55875908D01*
X144883676Y-56094290D01*
X144765135Y-56379767D01*
X144764866Y-56688877D01*
X138888587Y-56688877D01*
X139553274Y-56414234D01*
X140152131Y-55816422D01*
X140476630Y-55034943D01*
X140477368Y-54188770D01*
X140400146Y-54001877D01*
X140700866Y-54001877D01*
X140818908Y-54287560D01*
X141037290Y-54506324D01*
X141322767Y-54624865D01*
X141631877Y-54625134D01*
X141917560Y-54507092D01*
X142136324Y-54288710D01*
X142254865Y-54003233D01*
X142255134Y-53694123D01*
X142244290Y-53667877D01*
X144383866Y-53667877D01*
X144501908Y-53953560D01*
X144720290Y-54172324D01*
X145005767Y-54290865D01*
X145314877Y-54291134D01*
X145600560Y-54173092D01*
X145771009Y-54002940D01*
X152447415Y-54002940D01*
X152447415Y-57503060D01*
X152473703Y-57642768D01*
X152556270Y-57771080D01*
X152682253Y-57857161D01*
X152831800Y-57887445D01*
X156331920Y-57887445D01*
X156471628Y-57861157D01*
X156599940Y-57778590D01*
X156686021Y-57652607D01*
X156716305Y-57503060D01*
X156716305Y-54002940D01*
X156690017Y-53863232D01*
X156607450Y-53734920D01*
X156481467Y-53648839D01*
X156331920Y-53618555D01*
X152831800Y-53618555D01*
X152692092Y-53644843D01*
X152563780Y-53727410D01*
X152477699Y-53853393D01*
X152447415Y-54002940D01*
X145771009Y-54002940D01*
X145819324Y-53954710D01*
X145937865Y-53669233D01*
X145938134Y-53360123D01*
X145820092Y-53074440D01*
X145601710Y-52855676D01*
X145316233Y-52737135D01*
X145007123Y-52736866D01*
X144721440Y-52854908D01*
X144502676Y-53073290D01*
X144384135Y-53358767D01*
X144383866Y-53667877D01*
X142244290Y-53667877D01*
X142137092Y-53408440D01*
X141918710Y-53189676D01*
X141633233Y-53071135D01*
X141324123Y-53070866D01*
X141038440Y-53188908D01*
X140819676Y-53407290D01*
X140701135Y-53692767D01*
X140700866Y-54001877D01*
X140400146Y-54001877D01*
X140154234Y-53406726D01*
X139556422Y-52807869D01*
X138774943Y-52483370D01*
X137928770Y-52482632D01*
X137146726Y-52805766D01*
X136547869Y-53403578D01*
X136223370Y-54185057D01*
X136222632Y-55031230D01*
X130476633Y-55031230D01*
X130477368Y-54188770D01*
X130154234Y-53406726D01*
X129556422Y-52807869D01*
X128774943Y-52483370D01*
X127928770Y-52482632D01*
X127146726Y-52805766D01*
X126547869Y-53403578D01*
X126223370Y-54185057D01*
X126222632Y-55031230D01*
X125563316Y-55031230D01*
X125472290Y-54895000D01*
X125020368Y-54593036D01*
X124487290Y-54487000D01*
X124432710Y-54487000D01*
X123899632Y-54593036D01*
X123447710Y-54895000D01*
X123145746Y-55346922D01*
X123039710Y-55880000D01*
X120019224Y-55880000D01*
X126405847Y-49493377D01*
X132572866Y-49493377D01*
X132690908Y-49779060D01*
X132909290Y-49997824D01*
X133194767Y-50116365D01*
X133503877Y-50116634D01*
X133789560Y-49998592D01*
X134008324Y-49780210D01*
X134069027Y-49634021D01*
X141112430Y-49634021D01*
X141112430Y-50695979D01*
X141198261Y-51127481D01*
X141442688Y-51493291D01*
X141808498Y-51737718D01*
X142240000Y-51823549D01*
X142671502Y-51737718D01*
X143037312Y-51493291D01*
X143281739Y-51127481D01*
X143367570Y-50695979D01*
X143367570Y-49634021D01*
X143652430Y-49634021D01*
X143652430Y-50695979D01*
X143738261Y-51127481D01*
X143982688Y-51493291D01*
X144348498Y-51737718D01*
X144780000Y-51823549D01*
X145211502Y-51737718D01*
X145577312Y-51493291D01*
X145821739Y-51127481D01*
X145907570Y-50695979D01*
X145907570Y-49634021D01*
X146192430Y-49634021D01*
X146192430Y-50695979D01*
X146278261Y-51127481D01*
X146522688Y-51493291D01*
X146888498Y-51737718D01*
X147320000Y-51823549D01*
X147751502Y-51737718D01*
X148117312Y-51493291D01*
X148361739Y-51127481D01*
X148447570Y-50695979D01*
X148447570Y-49634021D01*
X148361739Y-49202519D01*
X148117312Y-48836709D01*
X147751502Y-48592282D01*
X147320000Y-48506451D01*
X146888498Y-48592282D01*
X146522688Y-48836709D01*
X146278261Y-49202519D01*
X146192430Y-49634021D01*
X145907570Y-49634021D01*
X145821739Y-49202519D01*
X145577312Y-48836709D01*
X145211502Y-48592282D01*
X144780000Y-48506451D01*
X144348498Y-48592282D01*
X143982688Y-48836709D01*
X143738261Y-49202519D01*
X143652430Y-49634021D01*
X143367570Y-49634021D01*
X143281739Y-49202519D01*
X143037312Y-48836709D01*
X142671502Y-48592282D01*
X142240000Y-48506451D01*
X141808498Y-48592282D01*
X141442688Y-48836709D01*
X141198261Y-49202519D01*
X141112430Y-49634021D01*
X134069027Y-49634021D01*
X134126865Y-49494733D01*
X134127134Y-49185623D01*
X134009092Y-48899940D01*
X133790710Y-48681176D01*
X133505233Y-48562635D01*
X133196123Y-48562366D01*
X132910440Y-48680408D01*
X132691676Y-48898790D01*
X132573135Y-49184267D01*
X132572866Y-49493377D01*
X126405847Y-49493377D01*
X128457224Y-47442000D01*
X158562776Y-47442000D01*
X174620776Y-63500000D01*
X174620776Y-63500000D01*
G37*
X174620776Y-63500000D02*
X160147000Y-63500000D01*
X160097590Y-63510006D01*
X160055965Y-63538447D01*
X160028685Y-63580841D01*
X160020000Y-63627000D01*
X160020000Y-66040000D01*
X160030006Y-66089410D01*
X160058447Y-66131035D01*
X160100841Y-66158315D01*
X160147000Y-66167000D01*
X165608000Y-66167000D01*
X165608000Y-70529007D01*
X165584676Y-70552290D01*
X165466135Y-70837767D01*
X165465866Y-71146877D01*
X165583908Y-71432560D01*
X165608000Y-71456694D01*
X165608000Y-74220064D01*
X165496078Y-74331986D01*
X165496134Y-74268123D01*
X165378092Y-73982440D01*
X165159710Y-73763676D01*
X164874233Y-73645135D01*
X164565123Y-73644866D01*
X164491011Y-73675489D01*
X164491011Y-73457209D01*
X164452799Y-73265102D01*
X164343979Y-73102241D01*
X164343976Y-73102239D01*
X163225970Y-71984232D01*
X163063109Y-71875412D01*
X162871002Y-71837199D01*
X162870997Y-71837200D01*
X162750361Y-71837200D01*
X162594310Y-71680876D01*
X162308833Y-71562335D01*
X161999723Y-71562066D01*
X161714040Y-71680108D01*
X161495276Y-71898490D01*
X161376735Y-72183967D01*
X161376466Y-72493077D01*
X161494508Y-72778760D01*
X161712890Y-72997524D01*
X161998367Y-73116065D01*
X162143816Y-73116192D01*
X162087935Y-73250767D01*
X162087666Y-73559877D01*
X162205708Y-73845560D01*
X162424090Y-74064324D01*
X162709567Y-74182865D01*
X162931923Y-74183059D01*
X163037001Y-74288136D01*
X163037001Y-75146475D01*
X162969233Y-75118335D01*
X162660123Y-75118066D01*
X162374440Y-75236108D01*
X162155676Y-75454490D01*
X162057053Y-75692000D01*
X160650118Y-75692000D01*
X160737788Y-75560792D01*
X160746786Y-75515555D01*
X160768288Y-75407459D01*
X160932324Y-75243710D01*
X161050865Y-74958233D01*
X161051134Y-74649123D01*
X160933092Y-74363440D01*
X160776000Y-74206073D01*
X160776000Y-73546998D01*
X160737788Y-73354891D01*
X160737788Y-73354890D01*
X160694200Y-73289658D01*
X160628968Y-73192030D01*
X160628965Y-73192028D01*
X160143969Y-72707031D01*
X159981108Y-72598211D01*
X159789001Y-72559998D01*
X159788996Y-72559999D01*
X159092999Y-72559999D01*
X158900891Y-72598211D01*
X158855013Y-72628866D01*
X158738031Y-72707031D01*
X158738029Y-72707034D01*
X155753062Y-75692000D01*
X148408001Y-75692000D01*
X148408001Y-74448316D01*
X148341243Y-74112703D01*
X148151134Y-73828183D01*
X146346818Y-72023867D01*
X146062298Y-71833758D01*
X145726685Y-71767000D01*
X145161000Y-71767000D01*
X144825387Y-71833758D01*
X144540867Y-72023867D01*
X144350758Y-72308387D01*
X144284000Y-72644000D01*
X144350758Y-72979613D01*
X144383930Y-73029259D01*
X144383866Y-73102677D01*
X144501908Y-73388360D01*
X144676244Y-73563001D01*
X142622569Y-73563001D01*
X142882760Y-73455492D01*
X143101524Y-73237110D01*
X143220065Y-72951633D01*
X143220334Y-72642523D01*
X143102292Y-72356840D01*
X143073674Y-72328172D01*
X143128579Y-72246001D01*
X143172502Y-72025193D01*
X143172501Y-72025188D01*
X143172501Y-69648277D01*
X143545666Y-69648277D01*
X143663708Y-69933960D01*
X143882090Y-70152724D01*
X144167567Y-70271265D01*
X144476677Y-70271534D01*
X144762360Y-70153492D01*
X144981124Y-69935110D01*
X145099665Y-69649633D01*
X145099688Y-69622877D01*
X156321866Y-69622877D01*
X156439908Y-69908560D01*
X156658290Y-70127324D01*
X156943767Y-70245865D01*
X157252877Y-70246134D01*
X157538560Y-70128092D01*
X157757324Y-69909710D01*
X157875865Y-69624233D01*
X157876134Y-69315123D01*
X157761909Y-69038677D01*
X158333868Y-69038677D01*
X158451910Y-69324360D01*
X158670292Y-69543124D01*
X158955769Y-69661665D01*
X159264879Y-69661934D01*
X159550562Y-69543892D01*
X159769326Y-69325510D01*
X159887867Y-69040033D01*
X159888136Y-68730923D01*
X159770094Y-68445240D01*
X159551712Y-68226476D01*
X159266235Y-68107935D01*
X158957125Y-68107666D01*
X158671442Y-68225708D01*
X158452678Y-68444090D01*
X158334137Y-68729567D01*
X158333868Y-69038677D01*
X157761909Y-69038677D01*
X157758092Y-69029440D01*
X157539710Y-68810676D01*
X157254233Y-68692135D01*
X156945123Y-68691866D01*
X156659440Y-68809908D01*
X156440676Y-69028290D01*
X156322135Y-69313767D01*
X156321866Y-69622877D01*
X145099688Y-69622877D01*
X145099934Y-69340523D01*
X144981892Y-69054840D01*
X144763510Y-68836076D01*
X144478033Y-68717535D01*
X144168923Y-68717266D01*
X143883240Y-68835308D01*
X143664476Y-69053690D01*
X143545935Y-69339167D01*
X143545666Y-69648277D01*
X143172501Y-69648277D01*
X143172501Y-69100806D01*
X143172502Y-69100801D01*
X143128579Y-68879993D01*
X143101169Y-68838971D01*
X143003502Y-68692800D01*
X143003499Y-68692798D01*
X140996702Y-66686000D01*
X140809509Y-66560923D01*
X140588701Y-66517000D01*
X140367893Y-66560923D01*
X140283965Y-66617001D01*
X134703181Y-66617001D01*
X133342889Y-65256709D01*
X133188139Y-65153308D01*
X133005599Y-65116999D01*
X131489999Y-65116999D01*
X131307459Y-65153308D01*
X131152709Y-65256709D01*
X130788709Y-65620709D01*
X130685308Y-65775459D01*
X130648999Y-65957999D01*
X130648999Y-66526519D01*
X130621884Y-66553634D01*
X130621934Y-66495723D01*
X130503892Y-66210040D01*
X130285510Y-65991276D01*
X130000033Y-65872735D01*
X129690923Y-65872466D01*
X129405240Y-65990508D01*
X129186476Y-66208890D01*
X129067935Y-66494367D01*
X129067666Y-66803477D01*
X129185708Y-67089160D01*
X129404090Y-67307924D01*
X129689567Y-67426465D01*
X129749001Y-67426517D01*
X129705831Y-67469687D01*
X129449623Y-67469464D01*
X129163940Y-67587506D01*
X128945176Y-67805888D01*
X128826635Y-68091365D01*
X128826366Y-68400475D01*
X128944408Y-68686158D01*
X129162790Y-68904922D01*
X129448267Y-69023463D01*
X129757377Y-69023732D01*
X130043060Y-68905690D01*
X130261824Y-68687308D01*
X130380365Y-68401831D01*
X130380589Y-68144089D01*
X131463289Y-67061389D01*
X131566690Y-66906639D01*
X131602999Y-66724099D01*
X131602999Y-66155579D01*
X131687579Y-66070999D01*
X132808019Y-66070999D01*
X134168311Y-67431291D01*
X134323061Y-67534692D01*
X134505601Y-67571001D01*
X138560474Y-67571001D01*
X138464478Y-67666829D01*
X138267733Y-67585133D01*
X137958623Y-67584864D01*
X137672940Y-67702906D01*
X137454176Y-67921288D01*
X137335635Y-68206765D01*
X137335366Y-68515875D01*
X137453408Y-68801558D01*
X137671790Y-69020322D01*
X137957267Y-69138863D01*
X138266377Y-69139132D01*
X138552060Y-69021090D01*
X138748440Y-68825053D01*
X138945185Y-68906749D01*
X139254295Y-68907018D01*
X139472936Y-68816677D01*
X139640290Y-68984324D01*
X139925767Y-69102865D01*
X140234877Y-69103134D01*
X140520560Y-68985092D01*
X140739324Y-68766710D01*
X140857865Y-68481233D01*
X140858128Y-68179429D01*
X141662306Y-68983607D01*
X141633233Y-68971535D01*
X141324123Y-68971266D01*
X141038440Y-69089308D01*
X140819676Y-69307690D01*
X140701135Y-69593167D01*
X140700866Y-69902277D01*
X140818908Y-70187960D01*
X141037290Y-70406724D01*
X141322767Y-70525265D01*
X141631877Y-70525534D01*
X141917560Y-70407492D01*
X142018501Y-70306727D01*
X142018501Y-71198292D01*
X141888711Y-71068275D01*
X141603234Y-70949734D01*
X141294124Y-70949465D01*
X141008441Y-71067507D01*
X140926205Y-71149599D01*
X139123200Y-71149599D01*
X136812572Y-68838970D01*
X136625379Y-68713893D01*
X136404571Y-68669970D01*
X136404566Y-68669971D01*
X136383504Y-68669971D01*
X136383489Y-68669968D01*
X136383484Y-68669969D01*
X133057116Y-68669969D01*
X132439469Y-68052322D01*
X132439569Y-67937413D01*
X132321527Y-67651730D01*
X132103145Y-67432966D01*
X131817668Y-67314425D01*
X131508558Y-67314156D01*
X131222875Y-67432198D01*
X131004111Y-67650580D01*
X130885570Y-67936057D01*
X130885301Y-68245167D01*
X131003343Y-68530850D01*
X131221725Y-68749614D01*
X131507202Y-68868155D01*
X131623399Y-68868256D01*
X132410113Y-69654970D01*
X132597306Y-69780047D01*
X132818114Y-69823970D01*
X132818119Y-69823969D01*
X134008455Y-69823969D01*
X133563634Y-70268790D01*
X129715749Y-70268790D01*
X129698107Y-70257002D01*
X129506000Y-70218790D01*
X128332775Y-70218790D01*
X128263389Y-70204988D01*
X128263384Y-70204989D01*
X127736135Y-70204989D01*
X127517158Y-69986012D01*
X127354297Y-69877192D01*
X127162190Y-69838979D01*
X127162185Y-69838980D01*
X124295315Y-69838979D01*
X124082020Y-69625684D01*
X124082020Y-66954204D01*
X126542911Y-66954204D01*
X126660953Y-67239887D01*
X126879335Y-67458651D01*
X127164812Y-67577192D01*
X127473922Y-67577461D01*
X127759605Y-67459419D01*
X127978369Y-67241037D01*
X128096910Y-66955560D01*
X128097179Y-66646450D01*
X127979137Y-66360767D01*
X127760755Y-66142003D01*
X127475278Y-66023462D01*
X127166168Y-66023193D01*
X126880485Y-66141235D01*
X126661721Y-66359617D01*
X126543180Y-66645094D01*
X126542911Y-66954204D01*
X124082020Y-66954204D01*
X124082020Y-66193877D01*
X124292466Y-66193877D01*
X124410508Y-66479560D01*
X124628890Y-66698324D01*
X124914367Y-66816865D01*
X125223477Y-66817134D01*
X125509160Y-66699092D01*
X125727924Y-66480710D01*
X125846465Y-66195233D01*
X125846689Y-65937491D01*
X127940365Y-63843815D01*
X134193334Y-63843815D01*
X134088676Y-63948290D01*
X133970135Y-64233767D01*
X133969866Y-64542877D01*
X134087908Y-64828560D01*
X134306290Y-65047324D01*
X134591767Y-65165865D01*
X134849509Y-65166089D01*
X135189711Y-65506291D01*
X135344461Y-65609692D01*
X135527001Y-65646001D01*
X140774199Y-65646001D01*
X140956739Y-65609692D01*
X141111489Y-65506291D01*
X141572389Y-65045391D01*
X145133997Y-68606998D01*
X145133999Y-68607001D01*
X145262622Y-68692943D01*
X145321192Y-68732078D01*
X145542000Y-68776001D01*
X145542005Y-68776000D01*
X146588706Y-68776000D01*
X146669888Y-68857324D01*
X146955365Y-68975865D01*
X147264475Y-68976134D01*
X147550158Y-68858092D01*
X147768922Y-68639710D01*
X147887463Y-68354233D01*
X147887732Y-68045123D01*
X147769690Y-67759440D01*
X147679182Y-67668773D01*
X147724324Y-67623710D01*
X147842865Y-67338233D01*
X147843134Y-67029123D01*
X147725092Y-66743440D01*
X147506710Y-66524676D01*
X147221233Y-66406135D01*
X146912123Y-66405866D01*
X146626440Y-66523908D01*
X146407676Y-66742290D01*
X146289135Y-67027767D01*
X146288866Y-67336877D01*
X146406677Y-67622000D01*
X145781001Y-67622000D01*
X142309000Y-64149998D01*
X142309000Y-64034877D01*
X154416866Y-64034877D01*
X154534908Y-64320560D01*
X154753290Y-64539324D01*
X155038767Y-64657865D01*
X155347877Y-64658134D01*
X155633560Y-64540092D01*
X155852324Y-64321710D01*
X155970865Y-64036233D01*
X155971134Y-63727123D01*
X155853092Y-63441440D01*
X155634710Y-63222676D01*
X155349233Y-63104135D01*
X155040123Y-63103866D01*
X154754440Y-63221908D01*
X154535676Y-63440290D01*
X154417135Y-63725767D01*
X154416866Y-64034877D01*
X142309000Y-64034877D01*
X142309000Y-63754000D01*
X142265078Y-63533192D01*
X142140001Y-63345999D01*
X141952808Y-63220922D01*
X141732000Y-63177000D01*
X141511192Y-63220922D01*
X141496152Y-63230971D01*
X141374923Y-63230866D01*
X141089240Y-63348908D01*
X140870476Y-63567290D01*
X140751935Y-63852767D01*
X140751666Y-64161877D01*
X140855484Y-64413136D01*
X140576619Y-64692001D01*
X140575725Y-64692001D01*
X140603865Y-64624233D01*
X140604134Y-64315123D01*
X140486092Y-64029440D01*
X140267710Y-63810676D01*
X139982233Y-63692135D01*
X139673123Y-63691866D01*
X139387440Y-63809908D01*
X139168676Y-64028290D01*
X139050135Y-64313767D01*
X139049866Y-64622877D01*
X139078428Y-64692001D01*
X135724581Y-64692001D01*
X135523911Y-64491331D01*
X135524134Y-64235123D01*
X135406092Y-63949440D01*
X135300651Y-63843815D01*
X138069518Y-63843815D01*
X138250525Y-64025139D01*
X138536002Y-64143680D01*
X138845112Y-64143949D01*
X139130795Y-64025907D01*
X139349559Y-63807525D01*
X139455617Y-63552111D01*
X139671767Y-63641865D01*
X139980877Y-63642134D01*
X140266560Y-63524092D01*
X140485324Y-63305710D01*
X140603865Y-63020233D01*
X140604134Y-62711123D01*
X140486092Y-62425440D01*
X140267710Y-62206676D01*
X139982233Y-62088135D01*
X139673123Y-62087866D01*
X139387440Y-62205908D01*
X139168676Y-62424290D01*
X139062618Y-62679704D01*
X138846468Y-62589950D01*
X138537358Y-62589681D01*
X138251675Y-62707723D01*
X138069264Y-62889815D01*
X127742785Y-62889815D01*
X127560244Y-62926124D01*
X127405495Y-63029525D01*
X125171931Y-65263089D01*
X124915723Y-65262866D01*
X124630040Y-65380908D01*
X124411276Y-65599290D01*
X124292735Y-65884767D01*
X124292466Y-66193877D01*
X124082020Y-66193877D01*
X124082020Y-64085613D01*
X124082021Y-64085608D01*
X124043808Y-63893501D01*
X124023668Y-63863360D01*
X123934988Y-63730640D01*
X123934985Y-63730638D01*
X122894352Y-62690004D01*
X122731491Y-62581184D01*
X122539384Y-62542971D01*
X122539379Y-62542972D01*
X119762625Y-62542972D01*
X119873133Y-62469133D01*
X120124266Y-62218000D01*
X125730000Y-62218000D01*
X126065613Y-62151242D01*
X126287658Y-62002877D01*
X148795864Y-62002877D01*
X148913906Y-62288560D01*
X149132288Y-62507324D01*
X149417765Y-62625865D01*
X149726875Y-62626134D01*
X150012558Y-62508092D01*
X150136990Y-62383877D01*
X171053866Y-62383877D01*
X171171908Y-62669560D01*
X171390290Y-62888324D01*
X171675767Y-63006865D01*
X171984877Y-63007134D01*
X172270560Y-62889092D01*
X172489324Y-62670710D01*
X172607865Y-62385233D01*
X172608134Y-62076123D01*
X172490092Y-61790440D01*
X172271710Y-61571676D01*
X171986233Y-61453135D01*
X171677123Y-61452866D01*
X171391440Y-61570908D01*
X171172676Y-61789290D01*
X171054135Y-62074767D01*
X171053866Y-62383877D01*
X150136990Y-62383877D01*
X150231322Y-62289710D01*
X150349863Y-62004233D01*
X150350107Y-61723477D01*
X167878866Y-61723477D01*
X167996908Y-62009160D01*
X168215290Y-62227924D01*
X168500767Y-62346465D01*
X168809877Y-62346734D01*
X169095560Y-62228692D01*
X169314324Y-62010310D01*
X169432865Y-61724833D01*
X169433134Y-61415723D01*
X169315092Y-61130040D01*
X169096710Y-60911276D01*
X168811233Y-60792735D01*
X168502123Y-60792466D01*
X168216440Y-60910508D01*
X167997676Y-61128890D01*
X167879135Y-61414367D01*
X167878866Y-61723477D01*
X150350107Y-61723477D01*
X150350132Y-61695123D01*
X150232090Y-61409440D01*
X150013708Y-61190676D01*
X149728231Y-61072135D01*
X149419121Y-61071866D01*
X149133438Y-61189908D01*
X148914674Y-61408290D01*
X148796133Y-61693767D01*
X148795864Y-62002877D01*
X126287658Y-62002877D01*
X126350133Y-61961133D01*
X129649265Y-58662000D01*
X132333597Y-58662000D01*
X132173150Y-58822167D01*
X131961242Y-59332499D01*
X131960760Y-59885077D01*
X132171777Y-60395777D01*
X132562167Y-60786850D01*
X133072499Y-60998758D01*
X133625077Y-60999240D01*
X134135777Y-60788223D01*
X134526850Y-60397833D01*
X134651402Y-60097877D01*
X157571866Y-60097877D01*
X157689908Y-60383560D01*
X157908290Y-60602324D01*
X158193767Y-60720865D01*
X158502877Y-60721134D01*
X158788560Y-60603092D01*
X158849381Y-60542377D01*
X163687866Y-60542377D01*
X163805908Y-60828060D01*
X164024290Y-61046824D01*
X164309767Y-61165365D01*
X164618877Y-61165634D01*
X164904560Y-61047592D01*
X165123324Y-60829210D01*
X165241865Y-60543733D01*
X165242134Y-60234623D01*
X165124092Y-59948940D01*
X164905710Y-59730176D01*
X164620233Y-59611635D01*
X164311123Y-59611366D01*
X164025440Y-59729408D01*
X163806676Y-59947790D01*
X163688135Y-60233267D01*
X163687866Y-60542377D01*
X158849381Y-60542377D01*
X159007324Y-60384710D01*
X159125865Y-60099233D01*
X159126134Y-59790123D01*
X159008092Y-59504440D01*
X158789710Y-59285676D01*
X158504233Y-59167135D01*
X158195123Y-59166866D01*
X157909440Y-59284908D01*
X157690676Y-59503290D01*
X157572135Y-59788767D01*
X157571866Y-60097877D01*
X134651402Y-60097877D01*
X134738758Y-59887501D01*
X134739240Y-59334923D01*
X134634684Y-59081877D01*
X146460864Y-59081877D01*
X146578906Y-59367560D01*
X146797288Y-59586324D01*
X147082765Y-59704865D01*
X147391875Y-59705134D01*
X147677558Y-59587092D01*
X147896322Y-59368710D01*
X148014863Y-59083233D01*
X148015132Y-58774123D01*
X147897090Y-58488440D01*
X147678708Y-58269676D01*
X147393231Y-58151135D01*
X147084121Y-58150866D01*
X146798438Y-58268908D01*
X146579674Y-58487290D01*
X146461133Y-58772767D01*
X146460864Y-59081877D01*
X134634684Y-59081877D01*
X134528223Y-58824223D01*
X134366283Y-58662000D01*
X138430000Y-58662000D01*
X138765613Y-58595242D01*
X139050133Y-58405133D01*
X139240242Y-58120613D01*
X139307000Y-57785000D01*
X139240242Y-57449387D01*
X139050133Y-57164867D01*
X138765613Y-56974758D01*
X138430000Y-56908000D01*
X129286000Y-56908000D01*
X128950386Y-56974758D01*
X128900837Y-57007866D01*
X128665867Y-57164867D01*
X128665865Y-57164870D01*
X125366734Y-60464000D01*
X119761000Y-60464000D01*
X119425387Y-60530758D01*
X119140867Y-60720867D01*
X119140865Y-60720870D01*
X118632867Y-61228867D01*
X118442758Y-61513387D01*
X118376000Y-61849000D01*
X118442758Y-62184613D01*
X118632867Y-62469133D01*
X118743375Y-62542972D01*
X113356253Y-62542971D01*
X120019224Y-55880000D01*
X123039710Y-55880000D01*
X123145746Y-56413078D01*
X123447710Y-56865000D01*
X123679108Y-57019615D01*
X123444000Y-57019615D01*
X123304292Y-57045903D01*
X123175980Y-57128470D01*
X123089899Y-57254453D01*
X123059615Y-57404000D01*
X123059615Y-59436000D01*
X123085903Y-59575708D01*
X123168470Y-59704020D01*
X123294453Y-59790101D01*
X123444000Y-59820385D01*
X125476000Y-59820385D01*
X125615708Y-59794097D01*
X125744020Y-59711530D01*
X125830101Y-59585547D01*
X125860385Y-59436000D01*
X125860385Y-57404000D01*
X125834097Y-57264292D01*
X125751530Y-57135980D01*
X125625547Y-57049899D01*
X125476000Y-57019615D01*
X125240892Y-57019615D01*
X125472290Y-56865000D01*
X125774254Y-56413078D01*
X125880290Y-55880000D01*
X125774254Y-55346922D01*
X125563316Y-55031230D01*
X126222632Y-55031230D01*
X126545766Y-55813274D01*
X127143578Y-56412131D01*
X127925057Y-56736630D01*
X128771230Y-56737368D01*
X129553274Y-56414234D01*
X130152131Y-55816422D01*
X130476630Y-55034943D01*
X130476633Y-55031230D01*
X136222632Y-55031230D01*
X136545766Y-55813274D01*
X137143578Y-56412131D01*
X137925057Y-56736630D01*
X138771230Y-56737368D01*
X138888587Y-56688877D01*
X144764866Y-56688877D01*
X144882908Y-56974560D01*
X145101290Y-57193324D01*
X145386767Y-57311865D01*
X145695877Y-57312134D01*
X145981560Y-57194092D01*
X146200324Y-56975710D01*
X146318865Y-56690233D01*
X146319134Y-56381123D01*
X146201092Y-56095440D01*
X145982710Y-55876676D01*
X145749594Y-55779877D01*
X149590866Y-55779877D01*
X149708908Y-56065560D01*
X149927290Y-56284324D01*
X150212767Y-56402865D01*
X150521877Y-56403134D01*
X150807560Y-56285092D01*
X151026324Y-56066710D01*
X151144865Y-55781233D01*
X151145134Y-55472123D01*
X151027092Y-55186440D01*
X150808710Y-54967676D01*
X150523233Y-54849135D01*
X150214123Y-54848866D01*
X149928440Y-54966908D01*
X149709676Y-55185290D01*
X149591135Y-55470767D01*
X149590866Y-55779877D01*
X145749594Y-55779877D01*
X145697233Y-55758135D01*
X145388123Y-55757866D01*
X145102440Y-55875908D01*
X144883676Y-56094290D01*
X144765135Y-56379767D01*
X144764866Y-56688877D01*
X138888587Y-56688877D01*
X139553274Y-56414234D01*
X140152131Y-55816422D01*
X140476630Y-55034943D01*
X140477368Y-54188770D01*
X140400146Y-54001877D01*
X140700866Y-54001877D01*
X140818908Y-54287560D01*
X141037290Y-54506324D01*
X141322767Y-54624865D01*
X141631877Y-54625134D01*
X141917560Y-54507092D01*
X142136324Y-54288710D01*
X142254865Y-54003233D01*
X142255134Y-53694123D01*
X142244290Y-53667877D01*
X144383866Y-53667877D01*
X144501908Y-53953560D01*
X144720290Y-54172324D01*
X145005767Y-54290865D01*
X145314877Y-54291134D01*
X145600560Y-54173092D01*
X145771009Y-54002940D01*
X152447415Y-54002940D01*
X152447415Y-57503060D01*
X152473703Y-57642768D01*
X152556270Y-57771080D01*
X152682253Y-57857161D01*
X152831800Y-57887445D01*
X156331920Y-57887445D01*
X156471628Y-57861157D01*
X156599940Y-57778590D01*
X156686021Y-57652607D01*
X156716305Y-57503060D01*
X156716305Y-54002940D01*
X156690017Y-53863232D01*
X156607450Y-53734920D01*
X156481467Y-53648839D01*
X156331920Y-53618555D01*
X152831800Y-53618555D01*
X152692092Y-53644843D01*
X152563780Y-53727410D01*
X152477699Y-53853393D01*
X152447415Y-54002940D01*
X145771009Y-54002940D01*
X145819324Y-53954710D01*
X145937865Y-53669233D01*
X145938134Y-53360123D01*
X145820092Y-53074440D01*
X145601710Y-52855676D01*
X145316233Y-52737135D01*
X145007123Y-52736866D01*
X144721440Y-52854908D01*
X144502676Y-53073290D01*
X144384135Y-53358767D01*
X144383866Y-53667877D01*
X142244290Y-53667877D01*
X142137092Y-53408440D01*
X141918710Y-53189676D01*
X141633233Y-53071135D01*
X141324123Y-53070866D01*
X141038440Y-53188908D01*
X140819676Y-53407290D01*
X140701135Y-53692767D01*
X140700866Y-54001877D01*
X140400146Y-54001877D01*
X140154234Y-53406726D01*
X139556422Y-52807869D01*
X138774943Y-52483370D01*
X137928770Y-52482632D01*
X137146726Y-52805766D01*
X136547869Y-53403578D01*
X136223370Y-54185057D01*
X136222632Y-55031230D01*
X130476633Y-55031230D01*
X130477368Y-54188770D01*
X130154234Y-53406726D01*
X129556422Y-52807869D01*
X128774943Y-52483370D01*
X127928770Y-52482632D01*
X127146726Y-52805766D01*
X126547869Y-53403578D01*
X126223370Y-54185057D01*
X126222632Y-55031230D01*
X125563316Y-55031230D01*
X125472290Y-54895000D01*
X125020368Y-54593036D01*
X124487290Y-54487000D01*
X124432710Y-54487000D01*
X123899632Y-54593036D01*
X123447710Y-54895000D01*
X123145746Y-55346922D01*
X123039710Y-55880000D01*
X120019224Y-55880000D01*
X126405847Y-49493377D01*
X132572866Y-49493377D01*
X132690908Y-49779060D01*
X132909290Y-49997824D01*
X133194767Y-50116365D01*
X133503877Y-50116634D01*
X133789560Y-49998592D01*
X134008324Y-49780210D01*
X134069027Y-49634021D01*
X141112430Y-49634021D01*
X141112430Y-50695979D01*
X141198261Y-51127481D01*
X141442688Y-51493291D01*
X141808498Y-51737718D01*
X142240000Y-51823549D01*
X142671502Y-51737718D01*
X143037312Y-51493291D01*
X143281739Y-51127481D01*
X143367570Y-50695979D01*
X143367570Y-49634021D01*
X143652430Y-49634021D01*
X143652430Y-50695979D01*
X143738261Y-51127481D01*
X143982688Y-51493291D01*
X144348498Y-51737718D01*
X144780000Y-51823549D01*
X145211502Y-51737718D01*
X145577312Y-51493291D01*
X145821739Y-51127481D01*
X145907570Y-50695979D01*
X145907570Y-49634021D01*
X146192430Y-49634021D01*
X146192430Y-50695979D01*
X146278261Y-51127481D01*
X146522688Y-51493291D01*
X146888498Y-51737718D01*
X147320000Y-51823549D01*
X147751502Y-51737718D01*
X148117312Y-51493291D01*
X148361739Y-51127481D01*
X148447570Y-50695979D01*
X148447570Y-49634021D01*
X148361739Y-49202519D01*
X148117312Y-48836709D01*
X147751502Y-48592282D01*
X147320000Y-48506451D01*
X146888498Y-48592282D01*
X146522688Y-48836709D01*
X146278261Y-49202519D01*
X146192430Y-49634021D01*
X145907570Y-49634021D01*
X145821739Y-49202519D01*
X145577312Y-48836709D01*
X145211502Y-48592282D01*
X144780000Y-48506451D01*
X144348498Y-48592282D01*
X143982688Y-48836709D01*
X143738261Y-49202519D01*
X143652430Y-49634021D01*
X143367570Y-49634021D01*
X143281739Y-49202519D01*
X143037312Y-48836709D01*
X142671502Y-48592282D01*
X142240000Y-48506451D01*
X141808498Y-48592282D01*
X141442688Y-48836709D01*
X141198261Y-49202519D01*
X141112430Y-49634021D01*
X134069027Y-49634021D01*
X134126865Y-49494733D01*
X134127134Y-49185623D01*
X134009092Y-48899940D01*
X133790710Y-48681176D01*
X133505233Y-48562635D01*
X133196123Y-48562366D01*
X132910440Y-48680408D01*
X132691676Y-48898790D01*
X132573135Y-49184267D01*
X132572866Y-49493377D01*
X126405847Y-49493377D01*
X128457224Y-47442000D01*
X158562776Y-47442000D01*
X174620776Y-63500000D01*
G36*
X121397135Y-64233767D02*
X121396866Y-64542877D01*
X121514908Y-64828560D01*
X121672000Y-64985927D01*
X121672000Y-70205595D01*
X121671999Y-70205600D01*
X121710212Y-70397707D01*
X121819032Y-70560568D01*
X122979431Y-71720967D01*
X123142292Y-71829787D01*
X123334399Y-71868000D01*
X123334404Y-71867999D01*
X123906177Y-71867999D01*
X123826132Y-72060767D01*
X123825863Y-72369877D01*
X123943905Y-72655560D01*
X124162287Y-72874324D01*
X124447764Y-72992865D01*
X124756874Y-72993134D01*
X125042557Y-72875092D01*
X125102912Y-72814842D01*
X125162290Y-72874324D01*
X125447767Y-72992865D01*
X125756877Y-72993134D01*
X125926042Y-72923236D01*
X125990029Y-73019000D01*
X126009645Y-73048357D01*
X126753143Y-73791855D01*
X126956557Y-73927772D01*
X127196499Y-73975499D01*
X127349834Y-73944999D01*
X127783289Y-73944999D01*
X127858001Y-74019711D01*
X127858001Y-75025609D01*
X126410245Y-73577853D01*
X126339050Y-73471302D01*
X126176189Y-73362482D01*
X125984082Y-73324270D01*
X121469010Y-73324270D01*
X121469010Y-69889275D01*
X121469011Y-69889270D01*
X121430798Y-69697163D01*
X121321978Y-69534302D01*
X121121784Y-69334108D01*
X121198058Y-69302592D01*
X121416822Y-69084210D01*
X121535363Y-68798733D01*
X121535632Y-68489623D01*
X121417590Y-68203940D01*
X121199208Y-67985176D01*
X120913731Y-67866635D01*
X120604621Y-67866366D01*
X120318938Y-67984408D01*
X120100174Y-68202790D01*
X120067985Y-68280309D01*
X115784657Y-63996981D01*
X121495458Y-63996981D01*
X121397135Y-64233767D01*
X121397135Y-64233767D01*
G37*
X121397135Y-64233767D02*
X121396866Y-64542877D01*
X121514908Y-64828560D01*
X121672000Y-64985927D01*
X121672000Y-70205595D01*
X121671999Y-70205600D01*
X121710212Y-70397707D01*
X121819032Y-70560568D01*
X122979431Y-71720967D01*
X123142292Y-71829787D01*
X123334399Y-71868000D01*
X123334404Y-71867999D01*
X123906177Y-71867999D01*
X123826132Y-72060767D01*
X123825863Y-72369877D01*
X123943905Y-72655560D01*
X124162287Y-72874324D01*
X124447764Y-72992865D01*
X124756874Y-72993134D01*
X125042557Y-72875092D01*
X125102912Y-72814842D01*
X125162290Y-72874324D01*
X125447767Y-72992865D01*
X125756877Y-72993134D01*
X125926042Y-72923236D01*
X125990029Y-73019000D01*
X126009645Y-73048357D01*
X126753143Y-73791855D01*
X126956557Y-73927772D01*
X127196499Y-73975499D01*
X127349834Y-73944999D01*
X127783289Y-73944999D01*
X127858001Y-74019711D01*
X127858001Y-75025609D01*
X126410245Y-73577853D01*
X126339050Y-73471302D01*
X126176189Y-73362482D01*
X125984082Y-73324270D01*
X121469010Y-73324270D01*
X121469010Y-69889275D01*
X121469011Y-69889270D01*
X121430798Y-69697163D01*
X121321978Y-69534302D01*
X121121784Y-69334108D01*
X121198058Y-69302592D01*
X121416822Y-69084210D01*
X121535363Y-68798733D01*
X121535632Y-68489623D01*
X121417590Y-68203940D01*
X121199208Y-67985176D01*
X120913731Y-67866635D01*
X120604621Y-67866366D01*
X120318938Y-67984408D01*
X120100174Y-68202790D01*
X120067985Y-68280309D01*
X115784657Y-63996981D01*
X121495458Y-63996981D01*
X121397135Y-64233767D01*
G36*
X133672010Y-71658842D02*
X133854551Y-71695151D01*
X134003408Y-71665542D01*
X133985925Y-71682994D01*
X133867384Y-71968471D01*
X133867115Y-72277581D01*
X133985157Y-72563264D01*
X134047561Y-72625777D01*
X133834676Y-72838290D01*
X133716135Y-73123767D01*
X133715866Y-73432877D01*
X133833908Y-73718560D01*
X134052290Y-73937324D01*
X134177794Y-73989438D01*
X134128321Y-74108581D01*
X134128298Y-74134762D01*
X133669742Y-73676206D01*
X133669934Y-73455323D01*
X133551892Y-73169640D01*
X133333510Y-72950876D01*
X133048033Y-72832335D01*
X132738923Y-72832066D01*
X132453240Y-72950108D01*
X132234476Y-73168490D01*
X132169842Y-73324145D01*
X130493497Y-71647800D01*
X133655485Y-71647800D01*
X133672010Y-71658842D01*
X133672010Y-71658842D01*
G37*
X133672010Y-71658842D02*
X133854551Y-71695151D01*
X134003408Y-71665542D01*
X133985925Y-71682994D01*
X133867384Y-71968471D01*
X133867115Y-72277581D01*
X133985157Y-72563264D01*
X134047561Y-72625777D01*
X133834676Y-72838290D01*
X133716135Y-73123767D01*
X133715866Y-73432877D01*
X133833908Y-73718560D01*
X134052290Y-73937324D01*
X134177794Y-73989438D01*
X134128321Y-74108581D01*
X134128298Y-74134762D01*
X133669742Y-73676206D01*
X133669934Y-73455323D01*
X133551892Y-73169640D01*
X133333510Y-72950876D01*
X133048033Y-72832335D01*
X132738923Y-72832066D01*
X132453240Y-72950108D01*
X132234476Y-73168490D01*
X132169842Y-73324145D01*
X130493497Y-71647800D01*
X133655485Y-71647800D01*
X133672010Y-71658842D01*
G36*
X181158000Y-70037224D02*
X181158000Y-78613000D01*
X177927000Y-78613000D01*
X177927000Y-71781877D01*
X179435866Y-71781877D01*
X179553908Y-72067560D01*
X179772290Y-72286324D01*
X180057767Y-72404865D01*
X180366877Y-72405134D01*
X180652560Y-72287092D01*
X180871324Y-72068710D01*
X180989865Y-71783233D01*
X180990134Y-71474123D01*
X180872092Y-71188440D01*
X180653710Y-70969676D01*
X180368233Y-70851135D01*
X180059123Y-70850866D01*
X179773440Y-70968908D01*
X179554676Y-71187290D01*
X179436135Y-71472767D01*
X179435866Y-71781877D01*
X177927000Y-71781877D01*
X177927000Y-71120000D01*
X177916994Y-71070590D01*
X177888553Y-71028965D01*
X177846159Y-71001685D01*
X177800000Y-70993000D01*
X175387000Y-70993000D01*
X175387000Y-69977000D01*
X175376994Y-69927590D01*
X175349803Y-69887197D01*
X172936803Y-67474197D01*
X172894789Y-67446334D01*
X172847000Y-67437000D01*
X171450000Y-67437000D01*
X171400590Y-67447006D01*
X171358965Y-67475447D01*
X171331685Y-67517841D01*
X171323000Y-67564000D01*
X171323000Y-69894007D01*
X171299676Y-69917290D01*
X171181135Y-70202767D01*
X171180866Y-70511877D01*
X171264599Y-70714527D01*
X171172676Y-70806290D01*
X171054135Y-71091767D01*
X171053866Y-71400877D01*
X171171908Y-71686560D01*
X171240156Y-71754928D01*
X171172676Y-71822290D01*
X171054135Y-72107767D01*
X171053866Y-72416877D01*
X171100513Y-72529771D01*
X170918676Y-72711290D01*
X170800135Y-72996767D01*
X170799866Y-73305877D01*
X170917908Y-73591560D01*
X171136290Y-73810324D01*
X171323000Y-73887853D01*
X171323000Y-74977733D01*
X171196000Y-74952015D01*
X169164000Y-74952015D01*
X169024292Y-74978303D01*
X168895980Y-75060870D01*
X168809899Y-75186853D01*
X168779615Y-75336400D01*
X168779615Y-77063600D01*
X168805903Y-77203308D01*
X168888470Y-77331620D01*
X169014453Y-77417701D01*
X169164000Y-77447985D01*
X171196000Y-77447985D01*
X171323000Y-77424088D01*
X171323000Y-77991581D01*
X171236927Y-77862763D01*
X170834447Y-77593835D01*
X170359690Y-77499400D01*
X170000310Y-77499400D01*
X169525553Y-77593835D01*
X169123073Y-77862763D01*
X168854145Y-78265243D01*
X168759710Y-78740000D01*
X168854145Y-79214757D01*
X169123073Y-79617237D01*
X169525553Y-79886165D01*
X170000310Y-79980600D01*
X170359690Y-79980600D01*
X170834447Y-79886165D01*
X171236927Y-79617237D01*
X171323000Y-79488419D01*
X171323000Y-80531581D01*
X171236927Y-80402763D01*
X170834447Y-80133835D01*
X170359690Y-80039400D01*
X170000310Y-80039400D01*
X169525553Y-80133835D01*
X169123073Y-80402763D01*
X168854145Y-80805243D01*
X168759710Y-81280000D01*
X168854145Y-81754757D01*
X169123073Y-82157237D01*
X169525553Y-82426165D01*
X170000310Y-82520600D01*
X170359690Y-82520600D01*
X170834447Y-82426165D01*
X171236927Y-82157237D01*
X171323000Y-82028419D01*
X171323000Y-83071581D01*
X171236927Y-82942763D01*
X170834447Y-82673835D01*
X170359690Y-82579400D01*
X170000310Y-82579400D01*
X169525553Y-82673835D01*
X169123073Y-82942763D01*
X168854145Y-83345243D01*
X168759710Y-83820000D01*
X168854145Y-84294757D01*
X169123073Y-84697237D01*
X169525553Y-84966165D01*
X170000310Y-85060600D01*
X170359690Y-85060600D01*
X170834447Y-84966165D01*
X171236927Y-84697237D01*
X171323000Y-84568419D01*
X171323000Y-96012855D01*
X171130328Y-95546553D01*
X170743310Y-95158859D01*
X170237388Y-94948782D01*
X169689583Y-94948304D01*
X169183295Y-95157498D01*
X168795601Y-95544516D01*
X168585524Y-96050438D01*
X168585046Y-96598243D01*
X168794240Y-97104531D01*
X169181258Y-97492225D01*
X169687180Y-97702302D01*
X170234985Y-97702780D01*
X170741273Y-97493586D01*
X171128967Y-97106568D01*
X171323000Y-96639284D01*
X171323000Y-98282545D01*
X171298048Y-98272184D01*
X170750243Y-98271706D01*
X170243955Y-98480900D01*
X169856261Y-98867918D01*
X169646184Y-99373840D01*
X169645706Y-99921645D01*
X169854900Y-100427933D01*
X170241918Y-100815627D01*
X170747840Y-101025704D01*
X171295645Y-101026182D01*
X171323000Y-101014879D01*
X171323000Y-105201728D01*
X170891664Y-105201352D01*
X170385376Y-105410546D01*
X169997682Y-105797564D01*
X169787605Y-106303486D01*
X169787127Y-106851291D01*
X169996321Y-107357579D01*
X170383339Y-107745273D01*
X170889261Y-107955350D01*
X171323000Y-107955728D01*
X171323000Y-109977776D01*
X158562776Y-122738000D01*
X128457224Y-122738000D01*
X124235624Y-118516400D01*
X135912015Y-118516400D01*
X135912015Y-120243600D01*
X135938303Y-120383308D01*
X136020870Y-120511620D01*
X136146853Y-120597701D01*
X136296400Y-120627985D01*
X138023600Y-120627985D01*
X138163308Y-120601697D01*
X138291620Y-120519130D01*
X138377701Y-120393147D01*
X138407985Y-120243600D01*
X138407985Y-119355695D01*
X138459400Y-119355695D01*
X138459400Y-119404305D01*
X138553835Y-119879062D01*
X138822763Y-120281542D01*
X139225243Y-120550470D01*
X139700000Y-120644905D01*
X140174757Y-120550470D01*
X140577237Y-120281542D01*
X140846165Y-119879062D01*
X140940600Y-119404305D01*
X140940600Y-119355695D01*
X140999400Y-119355695D01*
X140999400Y-119404305D01*
X141093835Y-119879062D01*
X141362763Y-120281542D01*
X141765243Y-120550470D01*
X142240000Y-120644905D01*
X142714757Y-120550470D01*
X143117237Y-120281542D01*
X143386165Y-119879062D01*
X143480600Y-119404305D01*
X143480600Y-119355695D01*
X143539400Y-119355695D01*
X143539400Y-119404305D01*
X143633835Y-119879062D01*
X143902763Y-120281542D01*
X144305243Y-120550470D01*
X144780000Y-120644905D01*
X145254757Y-120550470D01*
X145657237Y-120281542D01*
X145926165Y-119879062D01*
X146020600Y-119404305D01*
X146020600Y-119355695D01*
X145926165Y-118880938D01*
X145657237Y-118478458D01*
X145254757Y-118209530D01*
X144780000Y-118115095D01*
X144305243Y-118209530D01*
X143902763Y-118478458D01*
X143633835Y-118880938D01*
X143539400Y-119355695D01*
X143480600Y-119355695D01*
X143386165Y-118880938D01*
X143117237Y-118478458D01*
X142714757Y-118209530D01*
X142240000Y-118115095D01*
X141765243Y-118209530D01*
X141362763Y-118478458D01*
X141093835Y-118880938D01*
X140999400Y-119355695D01*
X140940600Y-119355695D01*
X140846165Y-118880938D01*
X140577237Y-118478458D01*
X140174757Y-118209530D01*
X139700000Y-118115095D01*
X139225243Y-118209530D01*
X138822763Y-118478458D01*
X138553835Y-118880938D01*
X138459400Y-119355695D01*
X138407985Y-119355695D01*
X138407985Y-118516400D01*
X138381697Y-118376692D01*
X138299130Y-118248380D01*
X138173147Y-118162299D01*
X138023600Y-118132015D01*
X136296400Y-118132015D01*
X136156692Y-118158303D01*
X136028380Y-118240870D01*
X135942299Y-118366853D01*
X135912015Y-118516400D01*
X124235624Y-118516400D01*
X122534919Y-116815695D01*
X135919400Y-116815695D01*
X135919400Y-116864305D01*
X136013835Y-117339062D01*
X136282763Y-117741542D01*
X136685243Y-118010470D01*
X137160000Y-118104905D01*
X137634757Y-118010470D01*
X138037237Y-117741542D01*
X138306165Y-117339062D01*
X138400600Y-116864305D01*
X138400600Y-116815695D01*
X138459400Y-116815695D01*
X138459400Y-116864305D01*
X138553835Y-117339062D01*
X138822763Y-117741542D01*
X139225243Y-118010470D01*
X139700000Y-118104905D01*
X140174757Y-118010470D01*
X140577237Y-117741542D01*
X140846165Y-117339062D01*
X140940600Y-116864305D01*
X140940600Y-116815695D01*
X140999400Y-116815695D01*
X140999400Y-116864305D01*
X141093835Y-117339062D01*
X141362763Y-117741542D01*
X141765243Y-118010470D01*
X142240000Y-118104905D01*
X142714757Y-118010470D01*
X143117237Y-117741542D01*
X143386165Y-117339062D01*
X143480600Y-116864305D01*
X143480600Y-116815695D01*
X143539400Y-116815695D01*
X143539400Y-116864305D01*
X143633835Y-117339062D01*
X143902763Y-117741542D01*
X144305243Y-118010470D01*
X144780000Y-118104905D01*
X145254757Y-118010470D01*
X145657237Y-117741542D01*
X145926165Y-117339062D01*
X145995060Y-116992701D01*
X152967762Y-116992701D01*
X153176956Y-117498989D01*
X153563974Y-117886683D01*
X154069896Y-118096760D01*
X154617701Y-118097238D01*
X155123989Y-117888044D01*
X155511683Y-117501026D01*
X155594945Y-117300508D01*
X155676956Y-117498989D01*
X156063974Y-117886683D01*
X156569896Y-118096760D01*
X157117701Y-118097238D01*
X157623989Y-117888044D01*
X158011683Y-117501026D01*
X158094945Y-117300508D01*
X158176956Y-117498989D01*
X158563974Y-117886683D01*
X159069896Y-118096760D01*
X159617701Y-118097238D01*
X160123989Y-117888044D01*
X160511683Y-117501026D01*
X160721760Y-116995104D01*
X160722238Y-116447299D01*
X160513044Y-115941011D01*
X160126026Y-115553317D01*
X159620104Y-115343240D01*
X159072299Y-115342762D01*
X158566011Y-115551956D01*
X158178317Y-115938974D01*
X158095055Y-116139492D01*
X158013044Y-115941011D01*
X157626026Y-115553317D01*
X157120104Y-115343240D01*
X156572299Y-115342762D01*
X156066011Y-115551956D01*
X155678317Y-115938974D01*
X155595055Y-116139492D01*
X155513044Y-115941011D01*
X155126026Y-115553317D01*
X154620104Y-115343240D01*
X154072299Y-115342762D01*
X153566011Y-115551956D01*
X153178317Y-115938974D01*
X152968240Y-116444896D01*
X152967762Y-116992701D01*
X145995060Y-116992701D01*
X146020600Y-116864305D01*
X146020600Y-116815695D01*
X145926165Y-116340938D01*
X145657237Y-115938458D01*
X145254757Y-115669530D01*
X144780000Y-115575095D01*
X144305243Y-115669530D01*
X143902763Y-115938458D01*
X143633835Y-116340938D01*
X143539400Y-116815695D01*
X143480600Y-116815695D01*
X143386165Y-116340938D01*
X143117237Y-115938458D01*
X142714757Y-115669530D01*
X142240000Y-115575095D01*
X141765243Y-115669530D01*
X141362763Y-115938458D01*
X141093835Y-116340938D01*
X140999400Y-116815695D01*
X140940600Y-116815695D01*
X140846165Y-116340938D01*
X140577237Y-115938458D01*
X140174757Y-115669530D01*
X139700000Y-115575095D01*
X139225243Y-115669530D01*
X138822763Y-115938458D01*
X138553835Y-116340938D01*
X138459400Y-116815695D01*
X138400600Y-116815695D01*
X138306165Y-116340938D01*
X138037237Y-115938458D01*
X137634757Y-115669530D01*
X137160000Y-115575095D01*
X136685243Y-115669530D01*
X136282763Y-115938458D01*
X136013835Y-116340938D01*
X135919400Y-116815695D01*
X122534919Y-116815695D01*
X120109601Y-114390377D01*
X121968366Y-114390377D01*
X122086408Y-114676060D01*
X122304790Y-114894824D01*
X122590267Y-115013365D01*
X122899377Y-115013634D01*
X123185060Y-114895592D01*
X123403824Y-114677210D01*
X123522365Y-114391733D01*
X123522634Y-114082623D01*
X123404592Y-113796940D01*
X123186210Y-113578176D01*
X122900733Y-113459635D01*
X122591623Y-113459366D01*
X122305940Y-113577408D01*
X122087176Y-113795790D01*
X121968635Y-114081267D01*
X121968366Y-114390377D01*
X120109601Y-114390377D01*
X118953901Y-113234677D01*
X153248466Y-113234677D01*
X153366508Y-113520360D01*
X153584890Y-113739124D01*
X153870367Y-113857665D01*
X154179477Y-113857934D01*
X154465160Y-113739892D01*
X154683924Y-113521510D01*
X154802465Y-113236033D01*
X154802734Y-112926923D01*
X154684692Y-112641240D01*
X154466310Y-112422476D01*
X154180833Y-112303935D01*
X153871723Y-112303666D01*
X153586040Y-112421708D01*
X153367276Y-112640090D01*
X153248735Y-112925567D01*
X153248466Y-113234677D01*
X118953901Y-113234677D01*
X117379101Y-111659877D01*
X120253866Y-111659877D01*
X120371908Y-111945560D01*
X120590290Y-112164324D01*
X120875767Y-112282865D01*
X121184877Y-112283134D01*
X121470560Y-112165092D01*
X121689324Y-111946710D01*
X121807865Y-111661233D01*
X121808115Y-111373877D01*
X137703666Y-111373877D01*
X137821708Y-111659560D01*
X138040090Y-111878324D01*
X138325567Y-111996865D01*
X138634677Y-111997134D01*
X138920360Y-111879092D01*
X139139124Y-111660710D01*
X139257665Y-111375233D01*
X139257934Y-111066123D01*
X139139892Y-110780440D01*
X139104991Y-110745477D01*
X144256866Y-110745477D01*
X144374908Y-111031160D01*
X144593290Y-111249924D01*
X144878767Y-111368465D01*
X145187877Y-111368734D01*
X145473560Y-111250692D01*
X145692324Y-111032310D01*
X145810865Y-110746833D01*
X145811134Y-110437723D01*
X145693092Y-110152040D01*
X145474710Y-109933276D01*
X145189233Y-109814735D01*
X144880123Y-109814466D01*
X144594440Y-109932508D01*
X144375676Y-110150890D01*
X144257135Y-110436367D01*
X144256866Y-110745477D01*
X139104991Y-110745477D01*
X138921510Y-110561676D01*
X138636033Y-110443135D01*
X138326923Y-110442866D01*
X138041240Y-110560908D01*
X137822476Y-110779290D01*
X137703935Y-111064767D01*
X137703666Y-111373877D01*
X121808115Y-111373877D01*
X121808134Y-111352123D01*
X121690092Y-111066440D01*
X121652727Y-111029010D01*
X121933514Y-111216626D01*
X122456872Y-111320728D01*
X122980230Y-111216626D01*
X123423911Y-110920167D01*
X124653338Y-109690740D01*
X147467588Y-109690740D01*
X147828703Y-110564703D01*
X148496780Y-111233947D01*
X149370111Y-111596586D01*
X150315740Y-111597412D01*
X151189703Y-111236297D01*
X151858947Y-110568220D01*
X152221586Y-109694889D01*
X152221589Y-109690740D01*
X161467588Y-109690740D01*
X161828703Y-110564703D01*
X162496780Y-111233947D01*
X163370111Y-111596586D01*
X164315740Y-111597412D01*
X165189703Y-111236297D01*
X165858947Y-110568220D01*
X166221586Y-109694889D01*
X166222412Y-108749260D01*
X165861297Y-107875297D01*
X165193220Y-107206053D01*
X164319889Y-106843414D01*
X163374260Y-106842588D01*
X162500297Y-107203703D01*
X161831053Y-107871780D01*
X161468414Y-108745111D01*
X161467588Y-109690740D01*
X152221589Y-109690740D01*
X152222412Y-108749260D01*
X151861297Y-107875297D01*
X151193220Y-107206053D01*
X150319889Y-106843414D01*
X149374260Y-106842588D01*
X148500297Y-107203703D01*
X147831053Y-107871780D01*
X147468414Y-108745111D01*
X147467588Y-109690740D01*
X124653338Y-109690740D01*
X124890167Y-109453911D01*
X125186626Y-109010230D01*
X125290728Y-108486872D01*
X125186626Y-107963514D01*
X124890167Y-107519833D01*
X124671730Y-107373877D01*
X137703666Y-107373877D01*
X137821708Y-107659560D01*
X138040090Y-107878324D01*
X138325567Y-107996865D01*
X138634677Y-107997134D01*
X138920360Y-107879092D01*
X139139124Y-107660710D01*
X139257665Y-107375233D01*
X139257934Y-107066123D01*
X139139892Y-106780440D01*
X138921510Y-106561676D01*
X138636033Y-106443135D01*
X138326923Y-106442866D01*
X138041240Y-106560908D01*
X137822476Y-106779290D01*
X137703935Y-107064767D01*
X137703666Y-107373877D01*
X124671730Y-107373877D01*
X124446486Y-107223374D01*
X123923128Y-107119272D01*
X123399770Y-107223374D01*
X122956089Y-107519833D01*
X121489833Y-108986089D01*
X121193374Y-109429770D01*
X121089272Y-109953128D01*
X121193374Y-110476486D01*
X121429755Y-110830255D01*
X121186233Y-110729135D01*
X120877123Y-110728866D01*
X120591440Y-110846908D01*
X120372676Y-111065290D01*
X120254135Y-111350767D01*
X120253866Y-111659877D01*
X117379101Y-111659877D01*
X113632601Y-107913377D01*
X114157866Y-107913377D01*
X114275908Y-108199060D01*
X114494290Y-108417824D01*
X114779767Y-108536365D01*
X115088877Y-108536634D01*
X115374560Y-108418592D01*
X115593324Y-108200210D01*
X115711865Y-107914733D01*
X115712134Y-107605623D01*
X115594092Y-107319940D01*
X115375710Y-107101176D01*
X115090233Y-106982635D01*
X114781123Y-106982366D01*
X114495440Y-107100408D01*
X114276676Y-107318790D01*
X114158135Y-107604267D01*
X114157866Y-107913377D01*
X113632601Y-107913377D01*
X112136818Y-106417594D01*
X117553738Y-106417594D01*
X117657840Y-106940952D01*
X117954299Y-107384633D01*
X118397980Y-107681092D01*
X118921338Y-107785194D01*
X119444696Y-107681092D01*
X119888377Y-107384633D01*
X121354633Y-105918377D01*
X121651092Y-105474696D01*
X121755194Y-104951338D01*
X121651092Y-104427980D01*
X121354633Y-103984299D01*
X120910952Y-103687840D01*
X120387594Y-103583738D01*
X119864236Y-103687840D01*
X119420555Y-103984299D01*
X117954299Y-105450555D01*
X117657840Y-105894236D01*
X117553738Y-106417594D01*
X112136818Y-106417594D01*
X105862000Y-100142776D01*
X105862000Y-91784377D01*
X105902866Y-91784377D01*
X106020908Y-92070060D01*
X106239290Y-92288824D01*
X106524767Y-92407365D01*
X106833877Y-92407634D01*
X107119560Y-92289592D01*
X107338324Y-92071210D01*
X107456865Y-91785733D01*
X107457134Y-91476623D01*
X107339092Y-91190940D01*
X107120710Y-90972176D01*
X106835233Y-90853635D01*
X106526123Y-90853366D01*
X106240440Y-90971408D01*
X106021676Y-91189790D01*
X105903135Y-91475267D01*
X105902866Y-91784377D01*
X105862000Y-91784377D01*
X105862000Y-88900000D01*
X107955095Y-88900000D01*
X108049530Y-89374757D01*
X108318458Y-89777237D01*
X108720938Y-90046165D01*
X109195695Y-90140600D01*
X109244305Y-90140600D01*
X109719062Y-90046165D01*
X110121542Y-89777237D01*
X110390470Y-89374757D01*
X110484905Y-88900000D01*
X110390470Y-88425243D01*
X110121542Y-88022763D01*
X109719062Y-87753835D01*
X109244305Y-87659400D01*
X109195695Y-87659400D01*
X108720938Y-87753835D01*
X108318458Y-88022763D01*
X108049530Y-88425243D01*
X107955095Y-88900000D01*
X105862000Y-88900000D01*
X105862000Y-87085377D01*
X105902866Y-87085377D01*
X106020908Y-87371060D01*
X106239290Y-87589824D01*
X106524767Y-87708365D01*
X106833877Y-87708634D01*
X107119560Y-87590592D01*
X107338324Y-87372210D01*
X107456865Y-87086733D01*
X107457134Y-86777623D01*
X107339092Y-86491940D01*
X107207383Y-86360000D01*
X107955095Y-86360000D01*
X108049530Y-86834757D01*
X108318458Y-87237237D01*
X108720938Y-87506165D01*
X109195695Y-87600600D01*
X109244305Y-87600600D01*
X109719062Y-87506165D01*
X110121542Y-87237237D01*
X110390470Y-86834757D01*
X110484905Y-86360000D01*
X110390470Y-85885243D01*
X110121542Y-85482763D01*
X109719062Y-85213835D01*
X109244305Y-85119400D01*
X109195695Y-85119400D01*
X108720938Y-85213835D01*
X108318458Y-85482763D01*
X108049530Y-85885243D01*
X107955095Y-86360000D01*
X107207383Y-86360000D01*
X107120710Y-86273176D01*
X106835233Y-86154635D01*
X106526123Y-86154366D01*
X106240440Y-86272408D01*
X106021676Y-86490790D01*
X105903135Y-86776267D01*
X105902866Y-87085377D01*
X105862000Y-87085377D01*
X105862000Y-83820000D01*
X107955095Y-83820000D01*
X108049530Y-84294757D01*
X108318458Y-84697237D01*
X108720938Y-84966165D01*
X109195695Y-85060600D01*
X109244305Y-85060600D01*
X109719062Y-84966165D01*
X110121542Y-84697237D01*
X110390470Y-84294757D01*
X110484905Y-83820000D01*
X110390470Y-83345243D01*
X110121542Y-82942763D01*
X109719062Y-82673835D01*
X109244305Y-82579400D01*
X109195695Y-82579400D01*
X108720938Y-82673835D01*
X108318458Y-82942763D01*
X108049530Y-83345243D01*
X107955095Y-83820000D01*
X105862000Y-83820000D01*
X105862000Y-82409374D01*
X106432943Y-82409374D01*
X106550985Y-82695057D01*
X106769367Y-82913821D01*
X107054844Y-83032362D01*
X107363954Y-83032631D01*
X107649637Y-82914589D01*
X107868401Y-82696207D01*
X107986942Y-82410730D01*
X107987211Y-82101620D01*
X107869169Y-81815937D01*
X107650787Y-81597173D01*
X107365310Y-81478632D01*
X107056200Y-81478363D01*
X106770517Y-81596405D01*
X106551753Y-81814787D01*
X106433212Y-82100264D01*
X106432943Y-82409374D01*
X105862000Y-82409374D01*
X105862000Y-81280000D01*
X107955095Y-81280000D01*
X108049530Y-81754757D01*
X108318458Y-82157237D01*
X108720938Y-82426165D01*
X109195695Y-82520600D01*
X109244305Y-82520600D01*
X109719062Y-82426165D01*
X110121542Y-82157237D01*
X110390470Y-81754757D01*
X110484905Y-81280000D01*
X110390470Y-80805243D01*
X110121542Y-80402763D01*
X109719062Y-80133835D01*
X109244305Y-80039400D01*
X109195695Y-80039400D01*
X108720938Y-80133835D01*
X108318458Y-80402763D01*
X108049530Y-80805243D01*
X107955095Y-81280000D01*
X105862000Y-81280000D01*
X105862000Y-73660000D01*
X107955095Y-73660000D01*
X108049530Y-74134757D01*
X108318458Y-74537237D01*
X108720938Y-74806165D01*
X109195695Y-74900600D01*
X109244305Y-74900600D01*
X109719062Y-74806165D01*
X110121542Y-74537237D01*
X110390470Y-74134757D01*
X110484905Y-73660000D01*
X110495095Y-73660000D01*
X110589530Y-74134757D01*
X110858458Y-74537237D01*
X111260938Y-74806165D01*
X111735695Y-74900600D01*
X111784305Y-74900600D01*
X112259062Y-74806165D01*
X112661542Y-74537237D01*
X112930470Y-74134757D01*
X113024905Y-73660000D01*
X112930470Y-73185243D01*
X112661542Y-72782763D01*
X112259062Y-72513835D01*
X111784305Y-72419400D01*
X111735695Y-72419400D01*
X111260938Y-72513835D01*
X110858458Y-72782763D01*
X110589530Y-73185243D01*
X110495095Y-73660000D01*
X110484905Y-73660000D01*
X110390470Y-73185243D01*
X110121542Y-72782763D01*
X109719062Y-72513835D01*
X109244305Y-72419400D01*
X109195695Y-72419400D01*
X108720938Y-72513835D01*
X108318458Y-72782763D01*
X108049530Y-73185243D01*
X107955095Y-73660000D01*
X105862000Y-73660000D01*
X105862000Y-70100752D01*
X107972015Y-70658115D01*
X107972015Y-71983600D01*
X107998303Y-72123308D01*
X108080870Y-72251620D01*
X108206853Y-72337701D01*
X108356400Y-72367985D01*
X110083600Y-72367985D01*
X110223308Y-72341697D01*
X110351620Y-72259130D01*
X110437701Y-72133147D01*
X110467985Y-71983600D01*
X110467985Y-71317427D01*
X110538047Y-71335934D01*
X110589530Y-71594757D01*
X110858458Y-71997237D01*
X111260938Y-72266165D01*
X111735695Y-72360600D01*
X111784305Y-72360600D01*
X112259062Y-72266165D01*
X112661542Y-71997237D01*
X112718551Y-71911917D01*
X113072999Y-72005544D01*
X113072999Y-77031500D01*
X112692102Y-77031500D01*
X112930470Y-76674757D01*
X113024905Y-76200000D01*
X112930470Y-75725243D01*
X112661542Y-75322763D01*
X112259062Y-75053835D01*
X111784305Y-74959400D01*
X111735695Y-74959400D01*
X111260938Y-75053835D01*
X110858458Y-75322763D01*
X110589530Y-75725243D01*
X110495095Y-76200000D01*
X110589530Y-76674757D01*
X110827898Y-77031500D01*
X110152102Y-77031500D01*
X110390470Y-76674757D01*
X110484905Y-76200000D01*
X110390470Y-75725243D01*
X110121542Y-75322763D01*
X109719062Y-75053835D01*
X109244305Y-74959400D01*
X109195695Y-74959400D01*
X108720938Y-75053835D01*
X108318458Y-75322763D01*
X108049530Y-75725243D01*
X107955095Y-76200000D01*
X108049530Y-76674757D01*
X108287898Y-77031500D01*
X107276761Y-77031500D01*
X107120710Y-76875176D01*
X106835233Y-76756635D01*
X106526123Y-76756366D01*
X106240440Y-76874408D01*
X106021676Y-77092790D01*
X105903135Y-77378267D01*
X105902866Y-77687377D01*
X106020908Y-77973060D01*
X106239290Y-78191824D01*
X106524767Y-78310365D01*
X106833877Y-78310634D01*
X107119560Y-78192592D01*
X107276927Y-78035500D01*
X108203039Y-78035500D01*
X108049530Y-78265243D01*
X107955095Y-78740000D01*
X108049530Y-79214757D01*
X108318458Y-79617237D01*
X108720938Y-79886165D01*
X109195695Y-79980600D01*
X109244305Y-79980600D01*
X109719062Y-79886165D01*
X110121542Y-79617237D01*
X110390470Y-79214757D01*
X110484905Y-78740000D01*
X110390470Y-78265243D01*
X110236961Y-78035500D01*
X110743039Y-78035500D01*
X110589530Y-78265243D01*
X110495095Y-78740000D01*
X110589530Y-79214757D01*
X110858458Y-79617237D01*
X111260938Y-79886165D01*
X111735695Y-79980600D01*
X111784305Y-79980600D01*
X112259062Y-79886165D01*
X112622989Y-79642997D01*
X112622989Y-80377003D01*
X112259062Y-80133835D01*
X111784305Y-80039400D01*
X111735695Y-80039400D01*
X111260938Y-80133835D01*
X110858458Y-80402763D01*
X110589530Y-80805243D01*
X110495095Y-81280000D01*
X110589530Y-81754757D01*
X110858458Y-82157237D01*
X111260938Y-82426165D01*
X111735695Y-82520600D01*
X111784305Y-82520600D01*
X112259062Y-82426165D01*
X112622989Y-82182997D01*
X112622989Y-82917003D01*
X112259062Y-82673835D01*
X111784305Y-82579400D01*
X111735695Y-82579400D01*
X111260938Y-82673835D01*
X110858458Y-82942763D01*
X110589530Y-83345243D01*
X110495095Y-83820000D01*
X110589530Y-84294757D01*
X110858458Y-84697237D01*
X111260938Y-84966165D01*
X111735695Y-85060600D01*
X111784305Y-85060600D01*
X112259062Y-84966165D01*
X112622989Y-84722997D01*
X112622989Y-91464986D01*
X112622988Y-91464991D01*
X112661201Y-91657098D01*
X112770021Y-91819959D01*
X117473083Y-96523020D01*
X116925282Y-96523020D01*
X112728971Y-92326709D01*
X112574221Y-92223308D01*
X112391681Y-92186999D01*
X109320001Y-92186999D01*
X109137461Y-92223308D01*
X108982711Y-92326709D01*
X108882710Y-92426710D01*
X108780542Y-92579615D01*
X108204000Y-92579615D01*
X108064292Y-92605903D01*
X107935980Y-92688470D01*
X107849899Y-92814453D01*
X107819615Y-92964000D01*
X107819615Y-94996000D01*
X107845903Y-95135708D01*
X107928470Y-95264020D01*
X108054453Y-95350101D01*
X108204000Y-95380385D01*
X110236000Y-95380385D01*
X110375708Y-95354097D01*
X110504020Y-95271530D01*
X110590101Y-95145547D01*
X110620385Y-94996000D01*
X110620385Y-94760892D01*
X110775000Y-94992290D01*
X111226922Y-95294254D01*
X111760000Y-95400290D01*
X112293078Y-95294254D01*
X112335784Y-95265719D01*
X112421029Y-95350964D01*
X112421031Y-95350967D01*
X114811524Y-97741459D01*
X114300000Y-97639710D01*
X113766922Y-97745746D01*
X113315000Y-98047710D01*
X113160385Y-98279108D01*
X113160385Y-98044000D01*
X113134097Y-97904292D01*
X113051530Y-97775980D01*
X112925547Y-97689899D01*
X112776000Y-97659615D01*
X110744000Y-97659615D01*
X110604292Y-97685903D01*
X110475980Y-97768470D01*
X110389899Y-97894453D01*
X110359615Y-98044000D01*
X110359615Y-100076000D01*
X110385903Y-100215708D01*
X110468470Y-100344020D01*
X110594453Y-100430101D01*
X110744000Y-100460385D01*
X112776000Y-100460385D01*
X112915708Y-100434097D01*
X113044020Y-100351530D01*
X113130101Y-100225547D01*
X113160385Y-100076000D01*
X113160385Y-99840892D01*
X113315000Y-100072290D01*
X113766922Y-100374254D01*
X114300000Y-100480290D01*
X114833078Y-100374254D01*
X115285000Y-100072290D01*
X115497756Y-99753877D01*
X132928466Y-99753877D01*
X133046508Y-100039560D01*
X133264890Y-100258324D01*
X133550367Y-100376865D01*
X133859477Y-100377134D01*
X134145160Y-100259092D01*
X134363924Y-100040710D01*
X134482465Y-99755233D01*
X134482734Y-99446123D01*
X134364692Y-99160440D01*
X134146310Y-98941676D01*
X133860833Y-98823135D01*
X133551723Y-98822866D01*
X133266040Y-98940908D01*
X133047276Y-99159290D01*
X132928735Y-99444767D01*
X132928466Y-99753877D01*
X115497756Y-99753877D01*
X115586964Y-99620368D01*
X115693000Y-99087290D01*
X115693000Y-99032710D01*
X115586964Y-98499632D01*
X115285000Y-98047710D01*
X115061731Y-97898527D01*
X115205030Y-97927031D01*
X115205035Y-97927030D01*
X139387296Y-97927030D01*
X139770601Y-98310334D01*
X139770601Y-100498598D01*
X139770600Y-100498603D01*
X139808813Y-100690710D01*
X139917633Y-100853571D01*
X141102009Y-102037946D01*
X141102011Y-102037949D01*
X142379031Y-103314969D01*
X142541892Y-103423789D01*
X142733999Y-103462002D01*
X142734004Y-103462001D01*
X143429996Y-103462001D01*
X143430001Y-103462002D01*
X143622108Y-103423789D01*
X143784969Y-103314969D01*
X144161966Y-102937971D01*
X144161969Y-102937969D01*
X144270789Y-102775108D01*
X144271560Y-102771233D01*
X144309002Y-102583001D01*
X144309001Y-102582996D01*
X144309001Y-101886999D01*
X144285970Y-101771212D01*
X144270789Y-101694891D01*
X144161969Y-101532031D01*
X143633893Y-101003955D01*
X143678927Y-100959000D01*
X144081995Y-100959000D01*
X144082000Y-100959001D01*
X144274107Y-100920788D01*
X144436968Y-100811968D01*
X144815015Y-100433921D01*
X144843036Y-100501738D01*
X145061418Y-100720502D01*
X145293256Y-100816770D01*
X145222335Y-100987567D01*
X145222066Y-101296677D01*
X145340108Y-101582360D01*
X145558490Y-101801124D01*
X145843967Y-101919665D01*
X146153077Y-101919934D01*
X146438760Y-101801892D01*
X146657524Y-101583510D01*
X146776065Y-101298033D01*
X146776334Y-100988923D01*
X146658292Y-100703240D01*
X146439910Y-100484476D01*
X146208072Y-100388208D01*
X146278993Y-100217411D01*
X146279262Y-99908301D01*
X146161220Y-99622618D01*
X145942838Y-99403854D01*
X145873764Y-99375172D01*
X149521999Y-95726936D01*
X149521999Y-97972496D01*
X149521998Y-97972501D01*
X149560211Y-98164608D01*
X149669031Y-98327469D01*
X149718058Y-98376496D01*
X149717866Y-98597379D01*
X149835908Y-98883062D01*
X150053600Y-99101134D01*
X149900176Y-99254290D01*
X149781635Y-99539767D01*
X149781427Y-99778388D01*
X149697733Y-99743635D01*
X149557513Y-99743513D01*
X149557634Y-99604623D01*
X149439592Y-99318940D01*
X149221210Y-99100176D01*
X148935733Y-98981635D01*
X148626623Y-98981366D01*
X148340940Y-99099408D01*
X148122176Y-99317790D01*
X148003635Y-99603267D01*
X148003366Y-99912377D01*
X148121408Y-100198060D01*
X148339790Y-100416824D01*
X148625267Y-100535365D01*
X148765487Y-100535487D01*
X148765366Y-100674377D01*
X148883408Y-100960060D01*
X149101790Y-101178824D01*
X149387267Y-101297365D01*
X149696377Y-101297634D01*
X149982060Y-101179592D01*
X150200824Y-100961210D01*
X150319365Y-100675733D01*
X150319573Y-100437112D01*
X150403267Y-100471865D01*
X150712377Y-100472134D01*
X150998060Y-100354092D01*
X151216824Y-100135710D01*
X151335365Y-99850233D01*
X151335634Y-99541123D01*
X151217592Y-99255440D01*
X150999900Y-99037368D01*
X151153324Y-98884212D01*
X151271865Y-98598735D01*
X151272134Y-98289625D01*
X151154092Y-98003942D01*
X151048526Y-97898191D01*
X151252060Y-97814092D01*
X151470824Y-97595710D01*
X151589365Y-97310233D01*
X151589634Y-97001123D01*
X151471592Y-96715440D01*
X151253210Y-96496676D01*
X150967733Y-96378135D01*
X150658623Y-96377866D01*
X150525999Y-96432665D01*
X150525999Y-95302277D01*
X155890066Y-95302277D01*
X156008108Y-95587960D01*
X156226490Y-95806724D01*
X156511967Y-95925265D01*
X156821077Y-95925534D01*
X157106760Y-95807492D01*
X157325524Y-95589110D01*
X157444065Y-95303633D01*
X157444334Y-94994523D01*
X157326292Y-94708840D01*
X157107910Y-94490076D01*
X156822433Y-94371535D01*
X156513323Y-94371266D01*
X156227640Y-94489308D01*
X156008876Y-94707690D01*
X155890335Y-94993167D01*
X155890066Y-95302277D01*
X150525999Y-95302277D01*
X150525999Y-92609877D01*
X152939866Y-92609877D01*
X153057908Y-92895560D01*
X153276290Y-93114324D01*
X153561767Y-93232865D01*
X153870877Y-93233134D01*
X154156560Y-93115092D01*
X154375324Y-92896710D01*
X154493865Y-92611233D01*
X154494134Y-92302123D01*
X154376092Y-92016440D01*
X154157710Y-91797676D01*
X153872233Y-91679135D01*
X153563123Y-91678866D01*
X153277440Y-91796908D01*
X153058676Y-92015290D01*
X152940135Y-92300767D01*
X152939866Y-92609877D01*
X150525999Y-92609877D01*
X150525999Y-90450877D01*
X151669866Y-90450877D01*
X151787908Y-90736560D01*
X152006290Y-90955324D01*
X152291767Y-91073865D01*
X152600877Y-91074134D01*
X152886560Y-90956092D01*
X153105324Y-90737710D01*
X153223865Y-90452233D01*
X153224134Y-90143123D01*
X153106092Y-89857440D01*
X152887710Y-89638676D01*
X152602233Y-89520135D01*
X152293123Y-89519866D01*
X152007440Y-89637908D01*
X151788676Y-89856290D01*
X151670135Y-90141767D01*
X151669866Y-90450877D01*
X150525999Y-90450877D01*
X150525999Y-87235725D01*
X150593767Y-87263865D01*
X150709964Y-87263966D01*
X152372999Y-88927001D01*
X152560192Y-89052078D01*
X152781000Y-89096001D01*
X152781005Y-89096000D01*
X155843998Y-89096000D01*
X156448966Y-89700968D01*
X156448866Y-89815877D01*
X156566677Y-90101000D01*
X155953729Y-90101000D01*
X155853092Y-89857440D01*
X155634710Y-89638676D01*
X155349233Y-89520135D01*
X155040123Y-89519866D01*
X154754440Y-89637908D01*
X154535676Y-89856290D01*
X154417135Y-90141767D01*
X154416866Y-90450877D01*
X154534908Y-90736560D01*
X154753290Y-90955324D01*
X155038767Y-91073865D01*
X155154965Y-91073966D01*
X155166997Y-91085998D01*
X155166999Y-91086001D01*
X155285505Y-91165183D01*
X155354192Y-91211078D01*
X155575000Y-91255000D01*
X157102998Y-91255000D01*
X156678922Y-91679076D01*
X156437123Y-91678866D01*
X156151440Y-91796908D01*
X155932676Y-92015290D01*
X155814135Y-92300767D01*
X155813866Y-92609877D01*
X155931908Y-92895560D01*
X156150290Y-93114324D01*
X156435767Y-93232865D01*
X156744877Y-93233134D01*
X157030560Y-93115092D01*
X157249324Y-92896710D01*
X157360122Y-92629880D01*
X158735001Y-91255000D01*
X161392883Y-91255000D01*
X161479173Y-91341441D01*
X161581949Y-91384118D01*
X156033666Y-96932400D01*
X155130361Y-96932400D01*
X154974310Y-96776076D01*
X154688833Y-96657535D01*
X154379723Y-96657266D01*
X154094040Y-96775308D01*
X153875276Y-96993690D01*
X153756735Y-97279167D01*
X153756466Y-97588277D01*
X153800315Y-97694400D01*
X153466805Y-97694400D01*
X153466800Y-97694399D01*
X153274693Y-97732612D01*
X153111832Y-97841432D01*
X152640831Y-98312433D01*
X152532011Y-98475294D01*
X152493798Y-98667401D01*
X152493799Y-98667406D01*
X152493799Y-100115258D01*
X150495056Y-102114000D01*
X149643961Y-102114000D01*
X149487910Y-101957676D01*
X149202433Y-101839135D01*
X148893323Y-101838866D01*
X148607640Y-101956908D01*
X148388876Y-102175290D01*
X148270335Y-102460767D01*
X148270066Y-102769877D01*
X148388108Y-103055560D01*
X148606490Y-103274324D01*
X148891967Y-103392865D01*
X149201077Y-103393134D01*
X149486760Y-103275092D01*
X149644127Y-103118000D01*
X150702987Y-103118000D01*
X150702992Y-103118001D01*
X150895099Y-103079788D01*
X151057960Y-102970968D01*
X152517999Y-101510928D01*
X152517999Y-104044064D01*
X151527062Y-105035000D01*
X136478935Y-105035000D01*
X131723768Y-100279832D01*
X131560907Y-100171012D01*
X131368800Y-100132799D01*
X131368795Y-100132800D01*
X129019161Y-100132800D01*
X128863110Y-99976476D01*
X128577633Y-99857935D01*
X128268523Y-99857666D01*
X127982840Y-99975708D01*
X127764076Y-100194090D01*
X127645535Y-100479567D01*
X127645266Y-100788677D01*
X127763308Y-101074360D01*
X127981690Y-101293124D01*
X128267167Y-101411665D01*
X128576277Y-101411934D01*
X128861960Y-101293892D01*
X129019327Y-101136800D01*
X131160864Y-101136800D01*
X135916030Y-105891965D01*
X135916032Y-105891968D01*
X136078893Y-106000788D01*
X136271000Y-106039001D01*
X136271005Y-106039000D01*
X151734993Y-106039000D01*
X151734998Y-106039001D01*
X151927105Y-106000788D01*
X152089966Y-105891968D01*
X153374964Y-104606969D01*
X153374967Y-104606967D01*
X153483787Y-104444106D01*
X153502275Y-104351161D01*
X153522000Y-104251999D01*
X153521999Y-104251994D01*
X153521999Y-103344635D01*
X153563974Y-103386683D01*
X154069896Y-103596760D01*
X154617701Y-103597238D01*
X155123989Y-103388044D01*
X155488792Y-103023877D01*
X156067866Y-103023877D01*
X156185908Y-103309560D01*
X156404290Y-103528324D01*
X156689767Y-103646865D01*
X156998877Y-103647134D01*
X157284560Y-103529092D01*
X157503324Y-103310710D01*
X157621865Y-103025233D01*
X157622134Y-102716123D01*
X157529818Y-102492701D01*
X157967762Y-102492701D01*
X158176956Y-102998989D01*
X158563974Y-103386683D01*
X159069896Y-103596760D01*
X159617701Y-103597238D01*
X160123989Y-103388044D01*
X160511683Y-103001026D01*
X160721760Y-102495104D01*
X160722238Y-101947299D01*
X160513044Y-101441011D01*
X160126026Y-101053317D01*
X159620104Y-100843240D01*
X159072299Y-100842762D01*
X158566011Y-101051956D01*
X158178317Y-101438974D01*
X157968240Y-101944896D01*
X157967762Y-102492701D01*
X157529818Y-102492701D01*
X157504092Y-102430440D01*
X157285710Y-102211676D01*
X157000233Y-102093135D01*
X156691123Y-102092866D01*
X156405440Y-102210908D01*
X156186676Y-102429290D01*
X156068135Y-102714767D01*
X156067866Y-103023877D01*
X155488792Y-103023877D01*
X155511683Y-103001026D01*
X155721760Y-102495104D01*
X155722238Y-101947299D01*
X155513044Y-101441011D01*
X155157236Y-101084582D01*
X155280824Y-100961210D01*
X155399365Y-100675733D01*
X155399634Y-100366623D01*
X155281592Y-100080940D01*
X155074425Y-99873411D01*
X156213816Y-99873411D01*
X156213821Y-99873412D01*
X156405928Y-99835199D01*
X156568789Y-99726379D01*
X157434182Y-98860985D01*
X166322304Y-98860985D01*
X166531498Y-99367273D01*
X166918516Y-99754967D01*
X167424438Y-99965044D01*
X167972243Y-99965522D01*
X168478531Y-99756328D01*
X168866225Y-99369310D01*
X169076302Y-98863388D01*
X169076780Y-98315583D01*
X168867586Y-97809295D01*
X168480568Y-97421601D01*
X167974646Y-97211524D01*
X167426841Y-97211046D01*
X166920553Y-97420240D01*
X166532859Y-97807258D01*
X166322782Y-98313180D01*
X166322304Y-98860985D01*
X157434182Y-98860985D01*
X166502976Y-89792191D01*
X166502979Y-89792189D01*
X166589007Y-89663439D01*
X166611799Y-89629329D01*
X166650011Y-89437221D01*
X166650011Y-75670927D01*
X167842568Y-74478370D01*
X167951388Y-74315509D01*
X167977903Y-74182211D01*
X168164490Y-74369124D01*
X168449967Y-74487665D01*
X168759077Y-74487934D01*
X169044760Y-74369892D01*
X169263524Y-74151510D01*
X169382065Y-73866033D01*
X169382334Y-73556923D01*
X169264292Y-73271240D01*
X169045910Y-73052476D01*
X168760433Y-72933935D01*
X168451323Y-72933666D01*
X168264635Y-73010804D01*
X168264734Y-72896523D01*
X168146692Y-72610840D01*
X167928310Y-72392076D01*
X167642833Y-72273535D01*
X167333723Y-72273266D01*
X167048040Y-72391308D01*
X166829276Y-72609690D01*
X166710735Y-72895167D01*
X166710569Y-73086231D01*
X166520923Y-73086066D01*
X166243000Y-73200902D01*
X166243000Y-65659000D01*
X166232994Y-65609590D01*
X166204553Y-65567965D01*
X166162159Y-65540685D01*
X166116000Y-65532000D01*
X160655000Y-65532000D01*
X160655000Y-64135000D01*
X175255776Y-64135000D01*
X181158000Y-70037224D01*
X181158000Y-70037224D01*
G37*
X181158000Y-70037224D02*
X181158000Y-78613000D01*
X177927000Y-78613000D01*
X177927000Y-71781877D01*
X179435866Y-71781877D01*
X179553908Y-72067560D01*
X179772290Y-72286324D01*
X180057767Y-72404865D01*
X180366877Y-72405134D01*
X180652560Y-72287092D01*
X180871324Y-72068710D01*
X180989865Y-71783233D01*
X180990134Y-71474123D01*
X180872092Y-71188440D01*
X180653710Y-70969676D01*
X180368233Y-70851135D01*
X180059123Y-70850866D01*
X179773440Y-70968908D01*
X179554676Y-71187290D01*
X179436135Y-71472767D01*
X179435866Y-71781877D01*
X177927000Y-71781877D01*
X177927000Y-71120000D01*
X177916994Y-71070590D01*
X177888553Y-71028965D01*
X177846159Y-71001685D01*
X177800000Y-70993000D01*
X175387000Y-70993000D01*
X175387000Y-69977000D01*
X175376994Y-69927590D01*
X175349803Y-69887197D01*
X172936803Y-67474197D01*
X172894789Y-67446334D01*
X172847000Y-67437000D01*
X171450000Y-67437000D01*
X171400590Y-67447006D01*
X171358965Y-67475447D01*
X171331685Y-67517841D01*
X171323000Y-67564000D01*
X171323000Y-69894007D01*
X171299676Y-69917290D01*
X171181135Y-70202767D01*
X171180866Y-70511877D01*
X171264599Y-70714527D01*
X171172676Y-70806290D01*
X171054135Y-71091767D01*
X171053866Y-71400877D01*
X171171908Y-71686560D01*
X171240156Y-71754928D01*
X171172676Y-71822290D01*
X171054135Y-72107767D01*
X171053866Y-72416877D01*
X171100513Y-72529771D01*
X170918676Y-72711290D01*
X170800135Y-72996767D01*
X170799866Y-73305877D01*
X170917908Y-73591560D01*
X171136290Y-73810324D01*
X171323000Y-73887853D01*
X171323000Y-74977733D01*
X171196000Y-74952015D01*
X169164000Y-74952015D01*
X169024292Y-74978303D01*
X168895980Y-75060870D01*
X168809899Y-75186853D01*
X168779615Y-75336400D01*
X168779615Y-77063600D01*
X168805903Y-77203308D01*
X168888470Y-77331620D01*
X169014453Y-77417701D01*
X169164000Y-77447985D01*
X171196000Y-77447985D01*
X171323000Y-77424088D01*
X171323000Y-77991581D01*
X171236927Y-77862763D01*
X170834447Y-77593835D01*
X170359690Y-77499400D01*
X170000310Y-77499400D01*
X169525553Y-77593835D01*
X169123073Y-77862763D01*
X168854145Y-78265243D01*
X168759710Y-78740000D01*
X168854145Y-79214757D01*
X169123073Y-79617237D01*
X169525553Y-79886165D01*
X170000310Y-79980600D01*
X170359690Y-79980600D01*
X170834447Y-79886165D01*
X171236927Y-79617237D01*
X171323000Y-79488419D01*
X171323000Y-80531581D01*
X171236927Y-80402763D01*
X170834447Y-80133835D01*
X170359690Y-80039400D01*
X170000310Y-80039400D01*
X169525553Y-80133835D01*
X169123073Y-80402763D01*
X168854145Y-80805243D01*
X168759710Y-81280000D01*
X168854145Y-81754757D01*
X169123073Y-82157237D01*
X169525553Y-82426165D01*
X170000310Y-82520600D01*
X170359690Y-82520600D01*
X170834447Y-82426165D01*
X171236927Y-82157237D01*
X171323000Y-82028419D01*
X171323000Y-83071581D01*
X171236927Y-82942763D01*
X170834447Y-82673835D01*
X170359690Y-82579400D01*
X170000310Y-82579400D01*
X169525553Y-82673835D01*
X169123073Y-82942763D01*
X168854145Y-83345243D01*
X168759710Y-83820000D01*
X168854145Y-84294757D01*
X169123073Y-84697237D01*
X169525553Y-84966165D01*
X170000310Y-85060600D01*
X170359690Y-85060600D01*
X170834447Y-84966165D01*
X171236927Y-84697237D01*
X171323000Y-84568419D01*
X171323000Y-96012855D01*
X171130328Y-95546553D01*
X170743310Y-95158859D01*
X170237388Y-94948782D01*
X169689583Y-94948304D01*
X169183295Y-95157498D01*
X168795601Y-95544516D01*
X168585524Y-96050438D01*
X168585046Y-96598243D01*
X168794240Y-97104531D01*
X169181258Y-97492225D01*
X169687180Y-97702302D01*
X170234985Y-97702780D01*
X170741273Y-97493586D01*
X171128967Y-97106568D01*
X171323000Y-96639284D01*
X171323000Y-98282545D01*
X171298048Y-98272184D01*
X170750243Y-98271706D01*
X170243955Y-98480900D01*
X169856261Y-98867918D01*
X169646184Y-99373840D01*
X169645706Y-99921645D01*
X169854900Y-100427933D01*
X170241918Y-100815627D01*
X170747840Y-101025704D01*
X171295645Y-101026182D01*
X171323000Y-101014879D01*
X171323000Y-105201728D01*
X170891664Y-105201352D01*
X170385376Y-105410546D01*
X169997682Y-105797564D01*
X169787605Y-106303486D01*
X169787127Y-106851291D01*
X169996321Y-107357579D01*
X170383339Y-107745273D01*
X170889261Y-107955350D01*
X171323000Y-107955728D01*
X171323000Y-109977776D01*
X158562776Y-122738000D01*
X128457224Y-122738000D01*
X124235624Y-118516400D01*
X135912015Y-118516400D01*
X135912015Y-120243600D01*
X135938303Y-120383308D01*
X136020870Y-120511620D01*
X136146853Y-120597701D01*
X136296400Y-120627985D01*
X138023600Y-120627985D01*
X138163308Y-120601697D01*
X138291620Y-120519130D01*
X138377701Y-120393147D01*
X138407985Y-120243600D01*
X138407985Y-119355695D01*
X138459400Y-119355695D01*
X138459400Y-119404305D01*
X138553835Y-119879062D01*
X138822763Y-120281542D01*
X139225243Y-120550470D01*
X139700000Y-120644905D01*
X140174757Y-120550470D01*
X140577237Y-120281542D01*
X140846165Y-119879062D01*
X140940600Y-119404305D01*
X140940600Y-119355695D01*
X140999400Y-119355695D01*
X140999400Y-119404305D01*
X141093835Y-119879062D01*
X141362763Y-120281542D01*
X141765243Y-120550470D01*
X142240000Y-120644905D01*
X142714757Y-120550470D01*
X143117237Y-120281542D01*
X143386165Y-119879062D01*
X143480600Y-119404305D01*
X143480600Y-119355695D01*
X143539400Y-119355695D01*
X143539400Y-119404305D01*
X143633835Y-119879062D01*
X143902763Y-120281542D01*
X144305243Y-120550470D01*
X144780000Y-120644905D01*
X145254757Y-120550470D01*
X145657237Y-120281542D01*
X145926165Y-119879062D01*
X146020600Y-119404305D01*
X146020600Y-119355695D01*
X145926165Y-118880938D01*
X145657237Y-118478458D01*
X145254757Y-118209530D01*
X144780000Y-118115095D01*
X144305243Y-118209530D01*
X143902763Y-118478458D01*
X143633835Y-118880938D01*
X143539400Y-119355695D01*
X143480600Y-119355695D01*
X143386165Y-118880938D01*
X143117237Y-118478458D01*
X142714757Y-118209530D01*
X142240000Y-118115095D01*
X141765243Y-118209530D01*
X141362763Y-118478458D01*
X141093835Y-118880938D01*
X140999400Y-119355695D01*
X140940600Y-119355695D01*
X140846165Y-118880938D01*
X140577237Y-118478458D01*
X140174757Y-118209530D01*
X139700000Y-118115095D01*
X139225243Y-118209530D01*
X138822763Y-118478458D01*
X138553835Y-118880938D01*
X138459400Y-119355695D01*
X138407985Y-119355695D01*
X138407985Y-118516400D01*
X138381697Y-118376692D01*
X138299130Y-118248380D01*
X138173147Y-118162299D01*
X138023600Y-118132015D01*
X136296400Y-118132015D01*
X136156692Y-118158303D01*
X136028380Y-118240870D01*
X135942299Y-118366853D01*
X135912015Y-118516400D01*
X124235624Y-118516400D01*
X122534919Y-116815695D01*
X135919400Y-116815695D01*
X135919400Y-116864305D01*
X136013835Y-117339062D01*
X136282763Y-117741542D01*
X136685243Y-118010470D01*
X137160000Y-118104905D01*
X137634757Y-118010470D01*
X138037237Y-117741542D01*
X138306165Y-117339062D01*
X138400600Y-116864305D01*
X138400600Y-116815695D01*
X138459400Y-116815695D01*
X138459400Y-116864305D01*
X138553835Y-117339062D01*
X138822763Y-117741542D01*
X139225243Y-118010470D01*
X139700000Y-118104905D01*
X140174757Y-118010470D01*
X140577237Y-117741542D01*
X140846165Y-117339062D01*
X140940600Y-116864305D01*
X140940600Y-116815695D01*
X140999400Y-116815695D01*
X140999400Y-116864305D01*
X141093835Y-117339062D01*
X141362763Y-117741542D01*
X141765243Y-118010470D01*
X142240000Y-118104905D01*
X142714757Y-118010470D01*
X143117237Y-117741542D01*
X143386165Y-117339062D01*
X143480600Y-116864305D01*
X143480600Y-116815695D01*
X143539400Y-116815695D01*
X143539400Y-116864305D01*
X143633835Y-117339062D01*
X143902763Y-117741542D01*
X144305243Y-118010470D01*
X144780000Y-118104905D01*
X145254757Y-118010470D01*
X145657237Y-117741542D01*
X145926165Y-117339062D01*
X145995060Y-116992701D01*
X152967762Y-116992701D01*
X153176956Y-117498989D01*
X153563974Y-117886683D01*
X154069896Y-118096760D01*
X154617701Y-118097238D01*
X155123989Y-117888044D01*
X155511683Y-117501026D01*
X155594945Y-117300508D01*
X155676956Y-117498989D01*
X156063974Y-117886683D01*
X156569896Y-118096760D01*
X157117701Y-118097238D01*
X157623989Y-117888044D01*
X158011683Y-117501026D01*
X158094945Y-117300508D01*
X158176956Y-117498989D01*
X158563974Y-117886683D01*
X159069896Y-118096760D01*
X159617701Y-118097238D01*
X160123989Y-117888044D01*
X160511683Y-117501026D01*
X160721760Y-116995104D01*
X160722238Y-116447299D01*
X160513044Y-115941011D01*
X160126026Y-115553317D01*
X159620104Y-115343240D01*
X159072299Y-115342762D01*
X158566011Y-115551956D01*
X158178317Y-115938974D01*
X158095055Y-116139492D01*
X158013044Y-115941011D01*
X157626026Y-115553317D01*
X157120104Y-115343240D01*
X156572299Y-115342762D01*
X156066011Y-115551956D01*
X155678317Y-115938974D01*
X155595055Y-116139492D01*
X155513044Y-115941011D01*
X155126026Y-115553317D01*
X154620104Y-115343240D01*
X154072299Y-115342762D01*
X153566011Y-115551956D01*
X153178317Y-115938974D01*
X152968240Y-116444896D01*
X152967762Y-116992701D01*
X145995060Y-116992701D01*
X146020600Y-116864305D01*
X146020600Y-116815695D01*
X145926165Y-116340938D01*
X145657237Y-115938458D01*
X145254757Y-115669530D01*
X144780000Y-115575095D01*
X144305243Y-115669530D01*
X143902763Y-115938458D01*
X143633835Y-116340938D01*
X143539400Y-116815695D01*
X143480600Y-116815695D01*
X143386165Y-116340938D01*
X143117237Y-115938458D01*
X142714757Y-115669530D01*
X142240000Y-115575095D01*
X141765243Y-115669530D01*
X141362763Y-115938458D01*
X141093835Y-116340938D01*
X140999400Y-116815695D01*
X140940600Y-116815695D01*
X140846165Y-116340938D01*
X140577237Y-115938458D01*
X140174757Y-115669530D01*
X139700000Y-115575095D01*
X139225243Y-115669530D01*
X138822763Y-115938458D01*
X138553835Y-116340938D01*
X138459400Y-116815695D01*
X138400600Y-116815695D01*
X138306165Y-116340938D01*
X138037237Y-115938458D01*
X137634757Y-115669530D01*
X137160000Y-115575095D01*
X136685243Y-115669530D01*
X136282763Y-115938458D01*
X136013835Y-116340938D01*
X135919400Y-116815695D01*
X122534919Y-116815695D01*
X120109601Y-114390377D01*
X121968366Y-114390377D01*
X122086408Y-114676060D01*
X122304790Y-114894824D01*
X122590267Y-115013365D01*
X122899377Y-115013634D01*
X123185060Y-114895592D01*
X123403824Y-114677210D01*
X123522365Y-114391733D01*
X123522634Y-114082623D01*
X123404592Y-113796940D01*
X123186210Y-113578176D01*
X122900733Y-113459635D01*
X122591623Y-113459366D01*
X122305940Y-113577408D01*
X122087176Y-113795790D01*
X121968635Y-114081267D01*
X121968366Y-114390377D01*
X120109601Y-114390377D01*
X118953901Y-113234677D01*
X153248466Y-113234677D01*
X153366508Y-113520360D01*
X153584890Y-113739124D01*
X153870367Y-113857665D01*
X154179477Y-113857934D01*
X154465160Y-113739892D01*
X154683924Y-113521510D01*
X154802465Y-113236033D01*
X154802734Y-112926923D01*
X154684692Y-112641240D01*
X154466310Y-112422476D01*
X154180833Y-112303935D01*
X153871723Y-112303666D01*
X153586040Y-112421708D01*
X153367276Y-112640090D01*
X153248735Y-112925567D01*
X153248466Y-113234677D01*
X118953901Y-113234677D01*
X117379101Y-111659877D01*
X120253866Y-111659877D01*
X120371908Y-111945560D01*
X120590290Y-112164324D01*
X120875767Y-112282865D01*
X121184877Y-112283134D01*
X121470560Y-112165092D01*
X121689324Y-111946710D01*
X121807865Y-111661233D01*
X121808115Y-111373877D01*
X137703666Y-111373877D01*
X137821708Y-111659560D01*
X138040090Y-111878324D01*
X138325567Y-111996865D01*
X138634677Y-111997134D01*
X138920360Y-111879092D01*
X139139124Y-111660710D01*
X139257665Y-111375233D01*
X139257934Y-111066123D01*
X139139892Y-110780440D01*
X139104991Y-110745477D01*
X144256866Y-110745477D01*
X144374908Y-111031160D01*
X144593290Y-111249924D01*
X144878767Y-111368465D01*
X145187877Y-111368734D01*
X145473560Y-111250692D01*
X145692324Y-111032310D01*
X145810865Y-110746833D01*
X145811134Y-110437723D01*
X145693092Y-110152040D01*
X145474710Y-109933276D01*
X145189233Y-109814735D01*
X144880123Y-109814466D01*
X144594440Y-109932508D01*
X144375676Y-110150890D01*
X144257135Y-110436367D01*
X144256866Y-110745477D01*
X139104991Y-110745477D01*
X138921510Y-110561676D01*
X138636033Y-110443135D01*
X138326923Y-110442866D01*
X138041240Y-110560908D01*
X137822476Y-110779290D01*
X137703935Y-111064767D01*
X137703666Y-111373877D01*
X121808115Y-111373877D01*
X121808134Y-111352123D01*
X121690092Y-111066440D01*
X121652727Y-111029010D01*
X121933514Y-111216626D01*
X122456872Y-111320728D01*
X122980230Y-111216626D01*
X123423911Y-110920167D01*
X124653338Y-109690740D01*
X147467588Y-109690740D01*
X147828703Y-110564703D01*
X148496780Y-111233947D01*
X149370111Y-111596586D01*
X150315740Y-111597412D01*
X151189703Y-111236297D01*
X151858947Y-110568220D01*
X152221586Y-109694889D01*
X152221589Y-109690740D01*
X161467588Y-109690740D01*
X161828703Y-110564703D01*
X162496780Y-111233947D01*
X163370111Y-111596586D01*
X164315740Y-111597412D01*
X165189703Y-111236297D01*
X165858947Y-110568220D01*
X166221586Y-109694889D01*
X166222412Y-108749260D01*
X165861297Y-107875297D01*
X165193220Y-107206053D01*
X164319889Y-106843414D01*
X163374260Y-106842588D01*
X162500297Y-107203703D01*
X161831053Y-107871780D01*
X161468414Y-108745111D01*
X161467588Y-109690740D01*
X152221589Y-109690740D01*
X152222412Y-108749260D01*
X151861297Y-107875297D01*
X151193220Y-107206053D01*
X150319889Y-106843414D01*
X149374260Y-106842588D01*
X148500297Y-107203703D01*
X147831053Y-107871780D01*
X147468414Y-108745111D01*
X147467588Y-109690740D01*
X124653338Y-109690740D01*
X124890167Y-109453911D01*
X125186626Y-109010230D01*
X125290728Y-108486872D01*
X125186626Y-107963514D01*
X124890167Y-107519833D01*
X124671730Y-107373877D01*
X137703666Y-107373877D01*
X137821708Y-107659560D01*
X138040090Y-107878324D01*
X138325567Y-107996865D01*
X138634677Y-107997134D01*
X138920360Y-107879092D01*
X139139124Y-107660710D01*
X139257665Y-107375233D01*
X139257934Y-107066123D01*
X139139892Y-106780440D01*
X138921510Y-106561676D01*
X138636033Y-106443135D01*
X138326923Y-106442866D01*
X138041240Y-106560908D01*
X137822476Y-106779290D01*
X137703935Y-107064767D01*
X137703666Y-107373877D01*
X124671730Y-107373877D01*
X124446486Y-107223374D01*
X123923128Y-107119272D01*
X123399770Y-107223374D01*
X122956089Y-107519833D01*
X121489833Y-108986089D01*
X121193374Y-109429770D01*
X121089272Y-109953128D01*
X121193374Y-110476486D01*
X121429755Y-110830255D01*
X121186233Y-110729135D01*
X120877123Y-110728866D01*
X120591440Y-110846908D01*
X120372676Y-111065290D01*
X120254135Y-111350767D01*
X120253866Y-111659877D01*
X117379101Y-111659877D01*
X113632601Y-107913377D01*
X114157866Y-107913377D01*
X114275908Y-108199060D01*
X114494290Y-108417824D01*
X114779767Y-108536365D01*
X115088877Y-108536634D01*
X115374560Y-108418592D01*
X115593324Y-108200210D01*
X115711865Y-107914733D01*
X115712134Y-107605623D01*
X115594092Y-107319940D01*
X115375710Y-107101176D01*
X115090233Y-106982635D01*
X114781123Y-106982366D01*
X114495440Y-107100408D01*
X114276676Y-107318790D01*
X114158135Y-107604267D01*
X114157866Y-107913377D01*
X113632601Y-107913377D01*
X112136818Y-106417594D01*
X117553738Y-106417594D01*
X117657840Y-106940952D01*
X117954299Y-107384633D01*
X118397980Y-107681092D01*
X118921338Y-107785194D01*
X119444696Y-107681092D01*
X119888377Y-107384633D01*
X121354633Y-105918377D01*
X121651092Y-105474696D01*
X121755194Y-104951338D01*
X121651092Y-104427980D01*
X121354633Y-103984299D01*
X120910952Y-103687840D01*
X120387594Y-103583738D01*
X119864236Y-103687840D01*
X119420555Y-103984299D01*
X117954299Y-105450555D01*
X117657840Y-105894236D01*
X117553738Y-106417594D01*
X112136818Y-106417594D01*
X105862000Y-100142776D01*
X105862000Y-91784377D01*
X105902866Y-91784377D01*
X106020908Y-92070060D01*
X106239290Y-92288824D01*
X106524767Y-92407365D01*
X106833877Y-92407634D01*
X107119560Y-92289592D01*
X107338324Y-92071210D01*
X107456865Y-91785733D01*
X107457134Y-91476623D01*
X107339092Y-91190940D01*
X107120710Y-90972176D01*
X106835233Y-90853635D01*
X106526123Y-90853366D01*
X106240440Y-90971408D01*
X106021676Y-91189790D01*
X105903135Y-91475267D01*
X105902866Y-91784377D01*
X105862000Y-91784377D01*
X105862000Y-88900000D01*
X107955095Y-88900000D01*
X108049530Y-89374757D01*
X108318458Y-89777237D01*
X108720938Y-90046165D01*
X109195695Y-90140600D01*
X109244305Y-90140600D01*
X109719062Y-90046165D01*
X110121542Y-89777237D01*
X110390470Y-89374757D01*
X110484905Y-88900000D01*
X110390470Y-88425243D01*
X110121542Y-88022763D01*
X109719062Y-87753835D01*
X109244305Y-87659400D01*
X109195695Y-87659400D01*
X108720938Y-87753835D01*
X108318458Y-88022763D01*
X108049530Y-88425243D01*
X107955095Y-88900000D01*
X105862000Y-88900000D01*
X105862000Y-87085377D01*
X105902866Y-87085377D01*
X106020908Y-87371060D01*
X106239290Y-87589824D01*
X106524767Y-87708365D01*
X106833877Y-87708634D01*
X107119560Y-87590592D01*
X107338324Y-87372210D01*
X107456865Y-87086733D01*
X107457134Y-86777623D01*
X107339092Y-86491940D01*
X107207383Y-86360000D01*
X107955095Y-86360000D01*
X108049530Y-86834757D01*
X108318458Y-87237237D01*
X108720938Y-87506165D01*
X109195695Y-87600600D01*
X109244305Y-87600600D01*
X109719062Y-87506165D01*
X110121542Y-87237237D01*
X110390470Y-86834757D01*
X110484905Y-86360000D01*
X110390470Y-85885243D01*
X110121542Y-85482763D01*
X109719062Y-85213835D01*
X109244305Y-85119400D01*
X109195695Y-85119400D01*
X108720938Y-85213835D01*
X108318458Y-85482763D01*
X108049530Y-85885243D01*
X107955095Y-86360000D01*
X107207383Y-86360000D01*
X107120710Y-86273176D01*
X106835233Y-86154635D01*
X106526123Y-86154366D01*
X106240440Y-86272408D01*
X106021676Y-86490790D01*
X105903135Y-86776267D01*
X105902866Y-87085377D01*
X105862000Y-87085377D01*
X105862000Y-83820000D01*
X107955095Y-83820000D01*
X108049530Y-84294757D01*
X108318458Y-84697237D01*
X108720938Y-84966165D01*
X109195695Y-85060600D01*
X109244305Y-85060600D01*
X109719062Y-84966165D01*
X110121542Y-84697237D01*
X110390470Y-84294757D01*
X110484905Y-83820000D01*
X110390470Y-83345243D01*
X110121542Y-82942763D01*
X109719062Y-82673835D01*
X109244305Y-82579400D01*
X109195695Y-82579400D01*
X108720938Y-82673835D01*
X108318458Y-82942763D01*
X108049530Y-83345243D01*
X107955095Y-83820000D01*
X105862000Y-83820000D01*
X105862000Y-82409374D01*
X106432943Y-82409374D01*
X106550985Y-82695057D01*
X106769367Y-82913821D01*
X107054844Y-83032362D01*
X107363954Y-83032631D01*
X107649637Y-82914589D01*
X107868401Y-82696207D01*
X107986942Y-82410730D01*
X107987211Y-82101620D01*
X107869169Y-81815937D01*
X107650787Y-81597173D01*
X107365310Y-81478632D01*
X107056200Y-81478363D01*
X106770517Y-81596405D01*
X106551753Y-81814787D01*
X106433212Y-82100264D01*
X106432943Y-82409374D01*
X105862000Y-82409374D01*
X105862000Y-81280000D01*
X107955095Y-81280000D01*
X108049530Y-81754757D01*
X108318458Y-82157237D01*
X108720938Y-82426165D01*
X109195695Y-82520600D01*
X109244305Y-82520600D01*
X109719062Y-82426165D01*
X110121542Y-82157237D01*
X110390470Y-81754757D01*
X110484905Y-81280000D01*
X110390470Y-80805243D01*
X110121542Y-80402763D01*
X109719062Y-80133835D01*
X109244305Y-80039400D01*
X109195695Y-80039400D01*
X108720938Y-80133835D01*
X108318458Y-80402763D01*
X108049530Y-80805243D01*
X107955095Y-81280000D01*
X105862000Y-81280000D01*
X105862000Y-73660000D01*
X107955095Y-73660000D01*
X108049530Y-74134757D01*
X108318458Y-74537237D01*
X108720938Y-74806165D01*
X109195695Y-74900600D01*
X109244305Y-74900600D01*
X109719062Y-74806165D01*
X110121542Y-74537237D01*
X110390470Y-74134757D01*
X110484905Y-73660000D01*
X110495095Y-73660000D01*
X110589530Y-74134757D01*
X110858458Y-74537237D01*
X111260938Y-74806165D01*
X111735695Y-74900600D01*
X111784305Y-74900600D01*
X112259062Y-74806165D01*
X112661542Y-74537237D01*
X112930470Y-74134757D01*
X113024905Y-73660000D01*
X112930470Y-73185243D01*
X112661542Y-72782763D01*
X112259062Y-72513835D01*
X111784305Y-72419400D01*
X111735695Y-72419400D01*
X111260938Y-72513835D01*
X110858458Y-72782763D01*
X110589530Y-73185243D01*
X110495095Y-73660000D01*
X110484905Y-73660000D01*
X110390470Y-73185243D01*
X110121542Y-72782763D01*
X109719062Y-72513835D01*
X109244305Y-72419400D01*
X109195695Y-72419400D01*
X108720938Y-72513835D01*
X108318458Y-72782763D01*
X108049530Y-73185243D01*
X107955095Y-73660000D01*
X105862000Y-73660000D01*
X105862000Y-70100752D01*
X107972015Y-70658115D01*
X107972015Y-71983600D01*
X107998303Y-72123308D01*
X108080870Y-72251620D01*
X108206853Y-72337701D01*
X108356400Y-72367985D01*
X110083600Y-72367985D01*
X110223308Y-72341697D01*
X110351620Y-72259130D01*
X110437701Y-72133147D01*
X110467985Y-71983600D01*
X110467985Y-71317427D01*
X110538047Y-71335934D01*
X110589530Y-71594757D01*
X110858458Y-71997237D01*
X111260938Y-72266165D01*
X111735695Y-72360600D01*
X111784305Y-72360600D01*
X112259062Y-72266165D01*
X112661542Y-71997237D01*
X112718551Y-71911917D01*
X113072999Y-72005544D01*
X113072999Y-77031500D01*
X112692102Y-77031500D01*
X112930470Y-76674757D01*
X113024905Y-76200000D01*
X112930470Y-75725243D01*
X112661542Y-75322763D01*
X112259062Y-75053835D01*
X111784305Y-74959400D01*
X111735695Y-74959400D01*
X111260938Y-75053835D01*
X110858458Y-75322763D01*
X110589530Y-75725243D01*
X110495095Y-76200000D01*
X110589530Y-76674757D01*
X110827898Y-77031500D01*
X110152102Y-77031500D01*
X110390470Y-76674757D01*
X110484905Y-76200000D01*
X110390470Y-75725243D01*
X110121542Y-75322763D01*
X109719062Y-75053835D01*
X109244305Y-74959400D01*
X109195695Y-74959400D01*
X108720938Y-75053835D01*
X108318458Y-75322763D01*
X108049530Y-75725243D01*
X107955095Y-76200000D01*
X108049530Y-76674757D01*
X108287898Y-77031500D01*
X107276761Y-77031500D01*
X107120710Y-76875176D01*
X106835233Y-76756635D01*
X106526123Y-76756366D01*
X106240440Y-76874408D01*
X106021676Y-77092790D01*
X105903135Y-77378267D01*
X105902866Y-77687377D01*
X106020908Y-77973060D01*
X106239290Y-78191824D01*
X106524767Y-78310365D01*
X106833877Y-78310634D01*
X107119560Y-78192592D01*
X107276927Y-78035500D01*
X108203039Y-78035500D01*
X108049530Y-78265243D01*
X107955095Y-78740000D01*
X108049530Y-79214757D01*
X108318458Y-79617237D01*
X108720938Y-79886165D01*
X109195695Y-79980600D01*
X109244305Y-79980600D01*
X109719062Y-79886165D01*
X110121542Y-79617237D01*
X110390470Y-79214757D01*
X110484905Y-78740000D01*
X110390470Y-78265243D01*
X110236961Y-78035500D01*
X110743039Y-78035500D01*
X110589530Y-78265243D01*
X110495095Y-78740000D01*
X110589530Y-79214757D01*
X110858458Y-79617237D01*
X111260938Y-79886165D01*
X111735695Y-79980600D01*
X111784305Y-79980600D01*
X112259062Y-79886165D01*
X112622989Y-79642997D01*
X112622989Y-80377003D01*
X112259062Y-80133835D01*
X111784305Y-80039400D01*
X111735695Y-80039400D01*
X111260938Y-80133835D01*
X110858458Y-80402763D01*
X110589530Y-80805243D01*
X110495095Y-81280000D01*
X110589530Y-81754757D01*
X110858458Y-82157237D01*
X111260938Y-82426165D01*
X111735695Y-82520600D01*
X111784305Y-82520600D01*
X112259062Y-82426165D01*
X112622989Y-82182997D01*
X112622989Y-82917003D01*
X112259062Y-82673835D01*
X111784305Y-82579400D01*
X111735695Y-82579400D01*
X111260938Y-82673835D01*
X110858458Y-82942763D01*
X110589530Y-83345243D01*
X110495095Y-83820000D01*
X110589530Y-84294757D01*
X110858458Y-84697237D01*
X111260938Y-84966165D01*
X111735695Y-85060600D01*
X111784305Y-85060600D01*
X112259062Y-84966165D01*
X112622989Y-84722997D01*
X112622989Y-91464986D01*
X112622988Y-91464991D01*
X112661201Y-91657098D01*
X112770021Y-91819959D01*
X117473083Y-96523020D01*
X116925282Y-96523020D01*
X112728971Y-92326709D01*
X112574221Y-92223308D01*
X112391681Y-92186999D01*
X109320001Y-92186999D01*
X109137461Y-92223308D01*
X108982711Y-92326709D01*
X108882710Y-92426710D01*
X108780542Y-92579615D01*
X108204000Y-92579615D01*
X108064292Y-92605903D01*
X107935980Y-92688470D01*
X107849899Y-92814453D01*
X107819615Y-92964000D01*
X107819615Y-94996000D01*
X107845903Y-95135708D01*
X107928470Y-95264020D01*
X108054453Y-95350101D01*
X108204000Y-95380385D01*
X110236000Y-95380385D01*
X110375708Y-95354097D01*
X110504020Y-95271530D01*
X110590101Y-95145547D01*
X110620385Y-94996000D01*
X110620385Y-94760892D01*
X110775000Y-94992290D01*
X111226922Y-95294254D01*
X111760000Y-95400290D01*
X112293078Y-95294254D01*
X112335784Y-95265719D01*
X112421029Y-95350964D01*
X112421031Y-95350967D01*
X114811524Y-97741459D01*
X114300000Y-97639710D01*
X113766922Y-97745746D01*
X113315000Y-98047710D01*
X113160385Y-98279108D01*
X113160385Y-98044000D01*
X113134097Y-97904292D01*
X113051530Y-97775980D01*
X112925547Y-97689899D01*
X112776000Y-97659615D01*
X110744000Y-97659615D01*
X110604292Y-97685903D01*
X110475980Y-97768470D01*
X110389899Y-97894453D01*
X110359615Y-98044000D01*
X110359615Y-100076000D01*
X110385903Y-100215708D01*
X110468470Y-100344020D01*
X110594453Y-100430101D01*
X110744000Y-100460385D01*
X112776000Y-100460385D01*
X112915708Y-100434097D01*
X113044020Y-100351530D01*
X113130101Y-100225547D01*
X113160385Y-100076000D01*
X113160385Y-99840892D01*
X113315000Y-100072290D01*
X113766922Y-100374254D01*
X114300000Y-100480290D01*
X114833078Y-100374254D01*
X115285000Y-100072290D01*
X115497756Y-99753877D01*
X132928466Y-99753877D01*
X133046508Y-100039560D01*
X133264890Y-100258324D01*
X133550367Y-100376865D01*
X133859477Y-100377134D01*
X134145160Y-100259092D01*
X134363924Y-100040710D01*
X134482465Y-99755233D01*
X134482734Y-99446123D01*
X134364692Y-99160440D01*
X134146310Y-98941676D01*
X133860833Y-98823135D01*
X133551723Y-98822866D01*
X133266040Y-98940908D01*
X133047276Y-99159290D01*
X132928735Y-99444767D01*
X132928466Y-99753877D01*
X115497756Y-99753877D01*
X115586964Y-99620368D01*
X115693000Y-99087290D01*
X115693000Y-99032710D01*
X115586964Y-98499632D01*
X115285000Y-98047710D01*
X115061731Y-97898527D01*
X115205030Y-97927031D01*
X115205035Y-97927030D01*
X139387296Y-97927030D01*
X139770601Y-98310334D01*
X139770601Y-100498598D01*
X139770600Y-100498603D01*
X139808813Y-100690710D01*
X139917633Y-100853571D01*
X141102009Y-102037946D01*
X141102011Y-102037949D01*
X142379031Y-103314969D01*
X142541892Y-103423789D01*
X142733999Y-103462002D01*
X142734004Y-103462001D01*
X143429996Y-103462001D01*
X143430001Y-103462002D01*
X143622108Y-103423789D01*
X143784969Y-103314969D01*
X144161966Y-102937971D01*
X144161969Y-102937969D01*
X144270789Y-102775108D01*
X144271560Y-102771233D01*
X144309002Y-102583001D01*
X144309001Y-102582996D01*
X144309001Y-101886999D01*
X144285970Y-101771212D01*
X144270789Y-101694891D01*
X144161969Y-101532031D01*
X143633893Y-101003955D01*
X143678927Y-100959000D01*
X144081995Y-100959000D01*
X144082000Y-100959001D01*
X144274107Y-100920788D01*
X144436968Y-100811968D01*
X144815015Y-100433921D01*
X144843036Y-100501738D01*
X145061418Y-100720502D01*
X145293256Y-100816770D01*
X145222335Y-100987567D01*
X145222066Y-101296677D01*
X145340108Y-101582360D01*
X145558490Y-101801124D01*
X145843967Y-101919665D01*
X146153077Y-101919934D01*
X146438760Y-101801892D01*
X146657524Y-101583510D01*
X146776065Y-101298033D01*
X146776334Y-100988923D01*
X146658292Y-100703240D01*
X146439910Y-100484476D01*
X146208072Y-100388208D01*
X146278993Y-100217411D01*
X146279262Y-99908301D01*
X146161220Y-99622618D01*
X145942838Y-99403854D01*
X145873764Y-99375172D01*
X149521999Y-95726936D01*
X149521999Y-97972496D01*
X149521998Y-97972501D01*
X149560211Y-98164608D01*
X149669031Y-98327469D01*
X149718058Y-98376496D01*
X149717866Y-98597379D01*
X149835908Y-98883062D01*
X150053600Y-99101134D01*
X149900176Y-99254290D01*
X149781635Y-99539767D01*
X149781427Y-99778388D01*
X149697733Y-99743635D01*
X149557513Y-99743513D01*
X149557634Y-99604623D01*
X149439592Y-99318940D01*
X149221210Y-99100176D01*
X148935733Y-98981635D01*
X148626623Y-98981366D01*
X148340940Y-99099408D01*
X148122176Y-99317790D01*
X148003635Y-99603267D01*
X148003366Y-99912377D01*
X148121408Y-100198060D01*
X148339790Y-100416824D01*
X148625267Y-100535365D01*
X148765487Y-100535487D01*
X148765366Y-100674377D01*
X148883408Y-100960060D01*
X149101790Y-101178824D01*
X149387267Y-101297365D01*
X149696377Y-101297634D01*
X149982060Y-101179592D01*
X150200824Y-100961210D01*
X150319365Y-100675733D01*
X150319573Y-100437112D01*
X150403267Y-100471865D01*
X150712377Y-100472134D01*
X150998060Y-100354092D01*
X151216824Y-100135710D01*
X151335365Y-99850233D01*
X151335634Y-99541123D01*
X151217592Y-99255440D01*
X150999900Y-99037368D01*
X151153324Y-98884212D01*
X151271865Y-98598735D01*
X151272134Y-98289625D01*
X151154092Y-98003942D01*
X151048526Y-97898191D01*
X151252060Y-97814092D01*
X151470824Y-97595710D01*
X151589365Y-97310233D01*
X151589634Y-97001123D01*
X151471592Y-96715440D01*
X151253210Y-96496676D01*
X150967733Y-96378135D01*
X150658623Y-96377866D01*
X150525999Y-96432665D01*
X150525999Y-95302277D01*
X155890066Y-95302277D01*
X156008108Y-95587960D01*
X156226490Y-95806724D01*
X156511967Y-95925265D01*
X156821077Y-95925534D01*
X157106760Y-95807492D01*
X157325524Y-95589110D01*
X157444065Y-95303633D01*
X157444334Y-94994523D01*
X157326292Y-94708840D01*
X157107910Y-94490076D01*
X156822433Y-94371535D01*
X156513323Y-94371266D01*
X156227640Y-94489308D01*
X156008876Y-94707690D01*
X155890335Y-94993167D01*
X155890066Y-95302277D01*
X150525999Y-95302277D01*
X150525999Y-92609877D01*
X152939866Y-92609877D01*
X153057908Y-92895560D01*
X153276290Y-93114324D01*
X153561767Y-93232865D01*
X153870877Y-93233134D01*
X154156560Y-93115092D01*
X154375324Y-92896710D01*
X154493865Y-92611233D01*
X154494134Y-92302123D01*
X154376092Y-92016440D01*
X154157710Y-91797676D01*
X153872233Y-91679135D01*
X153563123Y-91678866D01*
X153277440Y-91796908D01*
X153058676Y-92015290D01*
X152940135Y-92300767D01*
X152939866Y-92609877D01*
X150525999Y-92609877D01*
X150525999Y-90450877D01*
X151669866Y-90450877D01*
X151787908Y-90736560D01*
X152006290Y-90955324D01*
X152291767Y-91073865D01*
X152600877Y-91074134D01*
X152886560Y-90956092D01*
X153105324Y-90737710D01*
X153223865Y-90452233D01*
X153224134Y-90143123D01*
X153106092Y-89857440D01*
X152887710Y-89638676D01*
X152602233Y-89520135D01*
X152293123Y-89519866D01*
X152007440Y-89637908D01*
X151788676Y-89856290D01*
X151670135Y-90141767D01*
X151669866Y-90450877D01*
X150525999Y-90450877D01*
X150525999Y-87235725D01*
X150593767Y-87263865D01*
X150709964Y-87263966D01*
X152372999Y-88927001D01*
X152560192Y-89052078D01*
X152781000Y-89096001D01*
X152781005Y-89096000D01*
X155843998Y-89096000D01*
X156448966Y-89700968D01*
X156448866Y-89815877D01*
X156566677Y-90101000D01*
X155953729Y-90101000D01*
X155853092Y-89857440D01*
X155634710Y-89638676D01*
X155349233Y-89520135D01*
X155040123Y-89519866D01*
X154754440Y-89637908D01*
X154535676Y-89856290D01*
X154417135Y-90141767D01*
X154416866Y-90450877D01*
X154534908Y-90736560D01*
X154753290Y-90955324D01*
X155038767Y-91073865D01*
X155154965Y-91073966D01*
X155166997Y-91085998D01*
X155166999Y-91086001D01*
X155285505Y-91165183D01*
X155354192Y-91211078D01*
X155575000Y-91255000D01*
X157102998Y-91255000D01*
X156678922Y-91679076D01*
X156437123Y-91678866D01*
X156151440Y-91796908D01*
X155932676Y-92015290D01*
X155814135Y-92300767D01*
X155813866Y-92609877D01*
X155931908Y-92895560D01*
X156150290Y-93114324D01*
X156435767Y-93232865D01*
X156744877Y-93233134D01*
X157030560Y-93115092D01*
X157249324Y-92896710D01*
X157360122Y-92629880D01*
X158735001Y-91255000D01*
X161392883Y-91255000D01*
X161479173Y-91341441D01*
X161581949Y-91384118D01*
X156033666Y-96932400D01*
X155130361Y-96932400D01*
X154974310Y-96776076D01*
X154688833Y-96657535D01*
X154379723Y-96657266D01*
X154094040Y-96775308D01*
X153875276Y-96993690D01*
X153756735Y-97279167D01*
X153756466Y-97588277D01*
X153800315Y-97694400D01*
X153466805Y-97694400D01*
X153466800Y-97694399D01*
X153274693Y-97732612D01*
X153111832Y-97841432D01*
X152640831Y-98312433D01*
X152532011Y-98475294D01*
X152493798Y-98667401D01*
X152493799Y-98667406D01*
X152493799Y-100115258D01*
X150495056Y-102114000D01*
X149643961Y-102114000D01*
X149487910Y-101957676D01*
X149202433Y-101839135D01*
X148893323Y-101838866D01*
X148607640Y-101956908D01*
X148388876Y-102175290D01*
X148270335Y-102460767D01*
X148270066Y-102769877D01*
X148388108Y-103055560D01*
X148606490Y-103274324D01*
X148891967Y-103392865D01*
X149201077Y-103393134D01*
X149486760Y-103275092D01*
X149644127Y-103118000D01*
X150702987Y-103118000D01*
X150702992Y-103118001D01*
X150895099Y-103079788D01*
X151057960Y-102970968D01*
X152517999Y-101510928D01*
X152517999Y-104044064D01*
X151527062Y-105035000D01*
X136478935Y-105035000D01*
X131723768Y-100279832D01*
X131560907Y-100171012D01*
X131368800Y-100132799D01*
X131368795Y-100132800D01*
X129019161Y-100132800D01*
X128863110Y-99976476D01*
X128577633Y-99857935D01*
X128268523Y-99857666D01*
X127982840Y-99975708D01*
X127764076Y-100194090D01*
X127645535Y-100479567D01*
X127645266Y-100788677D01*
X127763308Y-101074360D01*
X127981690Y-101293124D01*
X128267167Y-101411665D01*
X128576277Y-101411934D01*
X128861960Y-101293892D01*
X129019327Y-101136800D01*
X131160864Y-101136800D01*
X135916030Y-105891965D01*
X135916032Y-105891968D01*
X136078893Y-106000788D01*
X136271000Y-106039001D01*
X136271005Y-106039000D01*
X151734993Y-106039000D01*
X151734998Y-106039001D01*
X151927105Y-106000788D01*
X152089966Y-105891968D01*
X153374964Y-104606969D01*
X153374967Y-104606967D01*
X153483787Y-104444106D01*
X153502275Y-104351161D01*
X153522000Y-104251999D01*
X153521999Y-104251994D01*
X153521999Y-103344635D01*
X153563974Y-103386683D01*
X154069896Y-103596760D01*
X154617701Y-103597238D01*
X155123989Y-103388044D01*
X155488792Y-103023877D01*
X156067866Y-103023877D01*
X156185908Y-103309560D01*
X156404290Y-103528324D01*
X156689767Y-103646865D01*
X156998877Y-103647134D01*
X157284560Y-103529092D01*
X157503324Y-103310710D01*
X157621865Y-103025233D01*
X157622134Y-102716123D01*
X157529818Y-102492701D01*
X157967762Y-102492701D01*
X158176956Y-102998989D01*
X158563974Y-103386683D01*
X159069896Y-103596760D01*
X159617701Y-103597238D01*
X160123989Y-103388044D01*
X160511683Y-103001026D01*
X160721760Y-102495104D01*
X160722238Y-101947299D01*
X160513044Y-101441011D01*
X160126026Y-101053317D01*
X159620104Y-100843240D01*
X159072299Y-100842762D01*
X158566011Y-101051956D01*
X158178317Y-101438974D01*
X157968240Y-101944896D01*
X157967762Y-102492701D01*
X157529818Y-102492701D01*
X157504092Y-102430440D01*
X157285710Y-102211676D01*
X157000233Y-102093135D01*
X156691123Y-102092866D01*
X156405440Y-102210908D01*
X156186676Y-102429290D01*
X156068135Y-102714767D01*
X156067866Y-103023877D01*
X155488792Y-103023877D01*
X155511683Y-103001026D01*
X155721760Y-102495104D01*
X155722238Y-101947299D01*
X155513044Y-101441011D01*
X155157236Y-101084582D01*
X155280824Y-100961210D01*
X155399365Y-100675733D01*
X155399634Y-100366623D01*
X155281592Y-100080940D01*
X155074425Y-99873411D01*
X156213816Y-99873411D01*
X156213821Y-99873412D01*
X156405928Y-99835199D01*
X156568789Y-99726379D01*
X157434182Y-98860985D01*
X166322304Y-98860985D01*
X166531498Y-99367273D01*
X166918516Y-99754967D01*
X167424438Y-99965044D01*
X167972243Y-99965522D01*
X168478531Y-99756328D01*
X168866225Y-99369310D01*
X169076302Y-98863388D01*
X169076780Y-98315583D01*
X168867586Y-97809295D01*
X168480568Y-97421601D01*
X167974646Y-97211524D01*
X167426841Y-97211046D01*
X166920553Y-97420240D01*
X166532859Y-97807258D01*
X166322782Y-98313180D01*
X166322304Y-98860985D01*
X157434182Y-98860985D01*
X166502976Y-89792191D01*
X166502979Y-89792189D01*
X166589007Y-89663439D01*
X166611799Y-89629329D01*
X166650011Y-89437221D01*
X166650011Y-75670927D01*
X167842568Y-74478370D01*
X167951388Y-74315509D01*
X167977903Y-74182211D01*
X168164490Y-74369124D01*
X168449967Y-74487665D01*
X168759077Y-74487934D01*
X169044760Y-74369892D01*
X169263524Y-74151510D01*
X169382065Y-73866033D01*
X169382334Y-73556923D01*
X169264292Y-73271240D01*
X169045910Y-73052476D01*
X168760433Y-72933935D01*
X168451323Y-72933666D01*
X168264635Y-73010804D01*
X168264734Y-72896523D01*
X168146692Y-72610840D01*
X167928310Y-72392076D01*
X167642833Y-72273535D01*
X167333723Y-72273266D01*
X167048040Y-72391308D01*
X166829276Y-72609690D01*
X166710735Y-72895167D01*
X166710569Y-73086231D01*
X166520923Y-73086066D01*
X166243000Y-73200902D01*
X166243000Y-65659000D01*
X166232994Y-65609590D01*
X166204553Y-65567965D01*
X166162159Y-65540685D01*
X166116000Y-65532000D01*
X160655000Y-65532000D01*
X160655000Y-64135000D01*
X175255776Y-64135000D01*
X181158000Y-70037224D01*
G36*
X140053220Y-93842322D02*
X140338697Y-93960863D01*
X140647807Y-93961132D01*
X140933490Y-93843090D01*
X140993845Y-93782840D01*
X141053223Y-93842322D01*
X141338700Y-93960863D01*
X141647810Y-93961132D01*
X141933493Y-93843090D01*
X141993844Y-93782845D01*
X142053224Y-93842329D01*
X142338701Y-93960870D01*
X142647811Y-93961139D01*
X142933494Y-93843097D01*
X142998627Y-93778077D01*
X143062760Y-93842322D01*
X143348237Y-93960863D01*
X143417516Y-93960923D01*
X141905438Y-95473001D01*
X128179376Y-95473001D01*
X127519252Y-94812877D01*
X138713864Y-94812877D01*
X138831906Y-95098560D01*
X139050288Y-95317324D01*
X139335765Y-95435865D01*
X139644875Y-95436134D01*
X139930558Y-95318092D01*
X140149322Y-95099710D01*
X140267863Y-94814233D01*
X140268132Y-94505123D01*
X140150090Y-94219440D01*
X139931708Y-94000676D01*
X139646231Y-93882135D01*
X139337121Y-93881866D01*
X139051438Y-93999908D01*
X138832674Y-94218290D01*
X138714133Y-94503767D01*
X138713864Y-94812877D01*
X127519252Y-94812877D01*
X126469396Y-93763021D01*
X136207500Y-93763021D01*
X136428308Y-93719099D01*
X136477848Y-93685998D01*
X139897169Y-93685998D01*
X140053220Y-93842322D01*
X140053220Y-93842322D01*
G37*
X140053220Y-93842322D02*
X140338697Y-93960863D01*
X140647807Y-93961132D01*
X140933490Y-93843090D01*
X140993845Y-93782840D01*
X141053223Y-93842322D01*
X141338700Y-93960863D01*
X141647810Y-93961132D01*
X141933493Y-93843090D01*
X141993844Y-93782845D01*
X142053224Y-93842329D01*
X142338701Y-93960870D01*
X142647811Y-93961139D01*
X142933494Y-93843097D01*
X142998627Y-93778077D01*
X143062760Y-93842322D01*
X143348237Y-93960863D01*
X143417516Y-93960923D01*
X141905438Y-95473001D01*
X128179376Y-95473001D01*
X127519252Y-94812877D01*
X138713864Y-94812877D01*
X138831906Y-95098560D01*
X139050288Y-95317324D01*
X139335765Y-95435865D01*
X139644875Y-95436134D01*
X139930558Y-95318092D01*
X140149322Y-95099710D01*
X140267863Y-94814233D01*
X140268132Y-94505123D01*
X140150090Y-94219440D01*
X139931708Y-94000676D01*
X139646231Y-93882135D01*
X139337121Y-93881866D01*
X139051438Y-93999908D01*
X138832674Y-94218290D01*
X138714133Y-94503767D01*
X138713864Y-94812877D01*
X127519252Y-94812877D01*
X126469396Y-93763021D01*
X136207500Y-93763021D01*
X136428308Y-93719099D01*
X136477848Y-93685998D01*
X139897169Y-93685998D01*
X140053220Y-93842322D01*
G36*
X138488029Y-90359967D02*
X138597859Y-90433353D01*
X138371440Y-90526908D01*
X138152676Y-90745290D01*
X138034135Y-91030767D01*
X138033866Y-91339877D01*
X138062428Y-91409001D01*
X136475430Y-91409001D01*
X136480007Y-91385991D01*
X136437850Y-91174058D01*
X137574907Y-90037000D01*
X138165062Y-90037000D01*
X138488029Y-90359967D01*
X138488029Y-90359967D01*
G37*
X138488029Y-90359967D02*
X138597859Y-90433353D01*
X138371440Y-90526908D01*
X138152676Y-90745290D01*
X138034135Y-91030767D01*
X138033866Y-91339877D01*
X138062428Y-91409001D01*
X136475430Y-91409001D01*
X136480007Y-91385991D01*
X136437850Y-91174058D01*
X137574907Y-90037000D01*
X138165062Y-90037000D01*
X138488029Y-90359967D01*
G36*
X128980703Y-88201966D02*
X128980705Y-88201969D01*
X129060449Y-88255252D01*
X129143566Y-88310789D01*
X129335673Y-88349002D01*
X129335678Y-88349001D01*
X135475996Y-88349001D01*
X135476001Y-88349002D01*
X135668108Y-88310789D01*
X135830969Y-88201969D01*
X136518928Y-87514009D01*
X136590124Y-87407458D01*
X137076571Y-86921011D01*
X140637911Y-86921011D01*
X142548400Y-88831500D01*
X142496308Y-88909461D01*
X142459999Y-89092001D01*
X142459999Y-89502999D01*
X139560973Y-89502999D01*
X139596324Y-89467710D01*
X139714865Y-89182233D01*
X139715134Y-88873123D01*
X139597092Y-88587440D01*
X139378710Y-88368676D01*
X139093233Y-88250135D01*
X138784123Y-88249866D01*
X138498440Y-88367908D01*
X138279676Y-88586290D01*
X138161135Y-88871767D01*
X138160995Y-89033000D01*
X137366972Y-89033000D01*
X137174864Y-89071212D01*
X137124818Y-89104652D01*
X137012004Y-89180032D01*
X137012002Y-89180035D01*
X136083534Y-90108502D01*
X135990292Y-89882840D01*
X135771910Y-89664076D01*
X135486433Y-89545535D01*
X135177323Y-89545266D01*
X134891640Y-89663308D01*
X134672876Y-89881690D01*
X134554335Y-90167167D01*
X134554066Y-90476277D01*
X134672108Y-90761960D01*
X134719057Y-90808991D01*
X127337392Y-90808991D01*
X122776318Y-86247916D01*
X123026377Y-86248134D01*
X123312060Y-86130092D01*
X123530824Y-85911710D01*
X123649365Y-85626233D01*
X123649634Y-85317123D01*
X123588230Y-85168515D01*
X123724877Y-85168634D01*
X124010560Y-85050592D01*
X124229324Y-84832210D01*
X124347865Y-84546733D01*
X124348134Y-84237623D01*
X124230092Y-83951940D01*
X124011710Y-83733176D01*
X123726233Y-83614635D01*
X123417123Y-83614366D01*
X123131440Y-83732408D01*
X122912676Y-83950790D01*
X122794135Y-84236267D01*
X122793866Y-84545377D01*
X122855270Y-84693985D01*
X122718623Y-84693866D01*
X122432940Y-84811908D01*
X122214176Y-85030290D01*
X122095635Y-85315767D01*
X122095416Y-85567015D01*
X118940974Y-82412572D01*
X119127477Y-82412734D01*
X119413160Y-82294692D01*
X119631924Y-82076310D01*
X119750465Y-81790833D01*
X119750734Y-81481723D01*
X119632692Y-81196040D01*
X119414310Y-80977276D01*
X119128833Y-80858735D01*
X118819723Y-80858466D01*
X118534040Y-80976508D01*
X118315276Y-81194890D01*
X118242226Y-81370812D01*
X118260290Y-81280000D01*
X118165855Y-80805243D01*
X117896927Y-80402763D01*
X117494447Y-80133835D01*
X117019690Y-80039400D01*
X116660310Y-80039400D01*
X116185553Y-80133835D01*
X116000990Y-80257156D01*
X116000990Y-77702612D01*
X116328919Y-77374682D01*
X116660310Y-77440600D01*
X117019690Y-77440600D01*
X117494447Y-77346165D01*
X117872377Y-77093641D01*
X128980703Y-88201966D01*
X128980703Y-88201966D01*
G37*
X128980703Y-88201966D02*
X128980705Y-88201969D01*
X129060449Y-88255252D01*
X129143566Y-88310789D01*
X129335673Y-88349002D01*
X129335678Y-88349001D01*
X135475996Y-88349001D01*
X135476001Y-88349002D01*
X135668108Y-88310789D01*
X135830969Y-88201969D01*
X136518928Y-87514009D01*
X136590124Y-87407458D01*
X137076571Y-86921011D01*
X140637911Y-86921011D01*
X142548400Y-88831500D01*
X142496308Y-88909461D01*
X142459999Y-89092001D01*
X142459999Y-89502999D01*
X139560973Y-89502999D01*
X139596324Y-89467710D01*
X139714865Y-89182233D01*
X139715134Y-88873123D01*
X139597092Y-88587440D01*
X139378710Y-88368676D01*
X139093233Y-88250135D01*
X138784123Y-88249866D01*
X138498440Y-88367908D01*
X138279676Y-88586290D01*
X138161135Y-88871767D01*
X138160995Y-89033000D01*
X137366972Y-89033000D01*
X137174864Y-89071212D01*
X137124818Y-89104652D01*
X137012004Y-89180032D01*
X137012002Y-89180035D01*
X136083534Y-90108502D01*
X135990292Y-89882840D01*
X135771910Y-89664076D01*
X135486433Y-89545535D01*
X135177323Y-89545266D01*
X134891640Y-89663308D01*
X134672876Y-89881690D01*
X134554335Y-90167167D01*
X134554066Y-90476277D01*
X134672108Y-90761960D01*
X134719057Y-90808991D01*
X127337392Y-90808991D01*
X122776318Y-86247916D01*
X123026377Y-86248134D01*
X123312060Y-86130092D01*
X123530824Y-85911710D01*
X123649365Y-85626233D01*
X123649634Y-85317123D01*
X123588230Y-85168515D01*
X123724877Y-85168634D01*
X124010560Y-85050592D01*
X124229324Y-84832210D01*
X124347865Y-84546733D01*
X124348134Y-84237623D01*
X124230092Y-83951940D01*
X124011710Y-83733176D01*
X123726233Y-83614635D01*
X123417123Y-83614366D01*
X123131440Y-83732408D01*
X122912676Y-83950790D01*
X122794135Y-84236267D01*
X122793866Y-84545377D01*
X122855270Y-84693985D01*
X122718623Y-84693866D01*
X122432940Y-84811908D01*
X122214176Y-85030290D01*
X122095635Y-85315767D01*
X122095416Y-85567015D01*
X118940974Y-82412572D01*
X119127477Y-82412734D01*
X119413160Y-82294692D01*
X119631924Y-82076310D01*
X119750465Y-81790833D01*
X119750734Y-81481723D01*
X119632692Y-81196040D01*
X119414310Y-80977276D01*
X119128833Y-80858735D01*
X118819723Y-80858466D01*
X118534040Y-80976508D01*
X118315276Y-81194890D01*
X118242226Y-81370812D01*
X118260290Y-81280000D01*
X118165855Y-80805243D01*
X117896927Y-80402763D01*
X117494447Y-80133835D01*
X117019690Y-80039400D01*
X116660310Y-80039400D01*
X116185553Y-80133835D01*
X116000990Y-80257156D01*
X116000990Y-77702612D01*
X116328919Y-77374682D01*
X116660310Y-77440600D01*
X117019690Y-77440600D01*
X117494447Y-77346165D01*
X117872377Y-77093641D01*
X128980703Y-88201966D01*
G36*
X164595001Y-86727934D02*
X164595001Y-89007476D01*
X163366800Y-90235677D01*
X163366800Y-87864802D01*
X163352810Y-87794468D01*
X163333566Y-87697721D01*
X163487560Y-87634092D01*
X163706324Y-87415710D01*
X163824865Y-87130233D01*
X163825134Y-86821123D01*
X163707092Y-86535440D01*
X163488710Y-86316676D01*
X163385934Y-86273999D01*
X163763500Y-85896433D01*
X164595001Y-86727934D01*
X164595001Y-86727934D01*
G37*
X164595001Y-86727934D02*
X164595001Y-89007476D01*
X163366800Y-90235677D01*
X163366800Y-87864802D01*
X163352810Y-87794468D01*
X163333566Y-87697721D01*
X163487560Y-87634092D01*
X163706324Y-87415710D01*
X163824865Y-87130233D01*
X163825134Y-86821123D01*
X163707092Y-86535440D01*
X163488710Y-86316676D01*
X163385934Y-86273999D01*
X163763500Y-85896433D01*
X164595001Y-86727934D01*
G36*
X163037001Y-85203062D02*
X161968031Y-86272031D01*
X161859211Y-86434892D01*
X161820998Y-86626999D01*
X161820999Y-86627004D01*
X161820999Y-87322996D01*
X161820998Y-87323001D01*
X161859211Y-87515108D01*
X161968031Y-87677969D01*
X162362800Y-88072737D01*
X162362800Y-90027004D01*
X162360593Y-90024793D01*
X162075116Y-89906252D01*
X161766006Y-89905983D01*
X161480323Y-90024025D01*
X161403213Y-90101000D01*
X159000001Y-90101000D01*
X159497001Y-89604000D01*
X159741883Y-89604000D01*
X159828173Y-89690441D01*
X160113650Y-89808982D01*
X160422760Y-89809251D01*
X160708443Y-89691209D01*
X160927207Y-89472827D01*
X161045748Y-89187350D01*
X161046017Y-88878240D01*
X160927975Y-88592557D01*
X160709593Y-88373793D01*
X160424116Y-88255252D01*
X160115006Y-88254983D01*
X159829323Y-88373025D01*
X159752213Y-88450000D01*
X159258005Y-88450000D01*
X159258000Y-88449999D01*
X159046859Y-88491999D01*
X159037192Y-88493922D01*
X158849999Y-88618999D01*
X158849997Y-88619002D01*
X157990778Y-89478220D01*
X157885092Y-89222440D01*
X157666710Y-89003676D01*
X157381233Y-88885135D01*
X157265036Y-88885034D01*
X156491001Y-88110999D01*
X156303808Y-87985922D01*
X156083000Y-87941999D01*
X156082995Y-87942000D01*
X153567926Y-87942000D01*
X153629824Y-87880210D01*
X153748365Y-87594733D01*
X153748450Y-87497000D01*
X155168739Y-87497000D01*
X155324790Y-87653324D01*
X155610267Y-87771865D01*
X155919377Y-87772134D01*
X156205060Y-87654092D01*
X156423824Y-87435710D01*
X156542365Y-87150233D01*
X156542465Y-87035468D01*
X156617877Y-87035534D01*
X156903560Y-86917492D01*
X157122324Y-86699110D01*
X157240865Y-86413633D01*
X157241134Y-86104523D01*
X157123092Y-85818840D01*
X156904710Y-85600076D01*
X156619233Y-85481535D01*
X156421641Y-85481363D01*
X163037001Y-78866003D01*
X163037001Y-85203062D01*
X163037001Y-85203062D01*
G37*
X163037001Y-85203062D02*
X161968031Y-86272031D01*
X161859211Y-86434892D01*
X161820998Y-86626999D01*
X161820999Y-86627004D01*
X161820999Y-87322996D01*
X161820998Y-87323001D01*
X161859211Y-87515108D01*
X161968031Y-87677969D01*
X162362800Y-88072737D01*
X162362800Y-90027004D01*
X162360593Y-90024793D01*
X162075116Y-89906252D01*
X161766006Y-89905983D01*
X161480323Y-90024025D01*
X161403213Y-90101000D01*
X159000001Y-90101000D01*
X159497001Y-89604000D01*
X159741883Y-89604000D01*
X159828173Y-89690441D01*
X160113650Y-89808982D01*
X160422760Y-89809251D01*
X160708443Y-89691209D01*
X160927207Y-89472827D01*
X161045748Y-89187350D01*
X161046017Y-88878240D01*
X160927975Y-88592557D01*
X160709593Y-88373793D01*
X160424116Y-88255252D01*
X160115006Y-88254983D01*
X159829323Y-88373025D01*
X159752213Y-88450000D01*
X159258005Y-88450000D01*
X159258000Y-88449999D01*
X159046859Y-88491999D01*
X159037192Y-88493922D01*
X158849999Y-88618999D01*
X158849997Y-88619002D01*
X157990778Y-89478220D01*
X157885092Y-89222440D01*
X157666710Y-89003676D01*
X157381233Y-88885135D01*
X157265036Y-88885034D01*
X156491001Y-88110999D01*
X156303808Y-87985922D01*
X156083000Y-87941999D01*
X156082995Y-87942000D01*
X153567926Y-87942000D01*
X153629824Y-87880210D01*
X153748365Y-87594733D01*
X153748450Y-87497000D01*
X155168739Y-87497000D01*
X155324790Y-87653324D01*
X155610267Y-87771865D01*
X155919377Y-87772134D01*
X156205060Y-87654092D01*
X156423824Y-87435710D01*
X156542365Y-87150233D01*
X156542465Y-87035468D01*
X156617877Y-87035534D01*
X156903560Y-86917492D01*
X157122324Y-86699110D01*
X157240865Y-86413633D01*
X157241134Y-86104523D01*
X157123092Y-85818840D01*
X156904710Y-85600076D01*
X156619233Y-85481535D01*
X156421641Y-85481363D01*
X163037001Y-78866003D01*
X163037001Y-85203062D01*
G36*
X145122311Y-78728010D02*
X146957208Y-78728010D01*
X146847935Y-78991167D01*
X146847666Y-79300277D01*
X146965708Y-79585960D01*
X147184090Y-79804724D01*
X147469567Y-79923265D01*
X147778677Y-79923534D01*
X148064360Y-79805492D01*
X148246771Y-79623400D01*
X148798820Y-79623400D01*
X150146322Y-80970902D01*
X147241971Y-83875253D01*
X147181361Y-83887309D01*
X147026611Y-83990710D01*
X144812106Y-86205215D01*
X144708705Y-86359965D01*
X144672396Y-86542505D01*
X144672396Y-87909242D01*
X143186500Y-86423346D01*
X143186500Y-85598000D01*
X143178190Y-85556220D01*
X143148288Y-85405892D01*
X143088068Y-85315767D01*
X143039468Y-85243032D01*
X143039465Y-85243030D01*
X142304446Y-84508011D01*
X143042690Y-84508011D01*
X143225230Y-84471702D01*
X143379980Y-84368301D01*
X143978301Y-83769980D01*
X144081702Y-83615230D01*
X144118011Y-83432690D01*
X144118011Y-82221887D01*
X144228724Y-82221983D01*
X144514407Y-82103941D01*
X144733171Y-81885559D01*
X144752451Y-81839126D01*
X145313866Y-81839126D01*
X145431908Y-82124809D01*
X145650290Y-82343573D01*
X145935767Y-82462114D01*
X146244877Y-82462383D01*
X146526928Y-82345842D01*
X146477442Y-82465017D01*
X146477173Y-82774127D01*
X146595215Y-83059810D01*
X146813597Y-83278574D01*
X147099074Y-83397115D01*
X147408184Y-83397384D01*
X147693867Y-83279342D01*
X147912631Y-83060960D01*
X148031172Y-82775483D01*
X148031441Y-82466373D01*
X147913399Y-82180690D01*
X147695017Y-81961926D01*
X147409540Y-81843385D01*
X147100430Y-81843116D01*
X146818379Y-81959657D01*
X146867865Y-81840482D01*
X146868134Y-81531372D01*
X146750092Y-81245689D01*
X146531710Y-81026925D01*
X146246233Y-80908384D01*
X145937123Y-80908115D01*
X145651440Y-81026157D01*
X145432676Y-81244539D01*
X145314135Y-81530016D01*
X145313866Y-81839126D01*
X144752451Y-81839126D01*
X144851712Y-81600082D01*
X144851981Y-81290972D01*
X144733939Y-81005289D01*
X144515557Y-80786525D01*
X144230080Y-80667984D01*
X143920970Y-80667715D01*
X143851846Y-80696277D01*
X143851846Y-80382846D01*
X143847852Y-80362767D01*
X143815537Y-80200305D01*
X143712136Y-80045556D01*
X142375580Y-78709000D01*
X145026740Y-78709000D01*
X145122311Y-78728010D01*
X145122311Y-78728010D01*
G37*
X145122311Y-78728010D02*
X146957208Y-78728010D01*
X146847935Y-78991167D01*
X146847666Y-79300277D01*
X146965708Y-79585960D01*
X147184090Y-79804724D01*
X147469567Y-79923265D01*
X147778677Y-79923534D01*
X148064360Y-79805492D01*
X148246771Y-79623400D01*
X148798820Y-79623400D01*
X150146322Y-80970902D01*
X147241971Y-83875253D01*
X147181361Y-83887309D01*
X147026611Y-83990710D01*
X144812106Y-86205215D01*
X144708705Y-86359965D01*
X144672396Y-86542505D01*
X144672396Y-87909242D01*
X143186500Y-86423346D01*
X143186500Y-85598000D01*
X143178190Y-85556220D01*
X143148288Y-85405892D01*
X143088068Y-85315767D01*
X143039468Y-85243032D01*
X143039465Y-85243030D01*
X142304446Y-84508011D01*
X143042690Y-84508011D01*
X143225230Y-84471702D01*
X143379980Y-84368301D01*
X143978301Y-83769980D01*
X144081702Y-83615230D01*
X144118011Y-83432690D01*
X144118011Y-82221887D01*
X144228724Y-82221983D01*
X144514407Y-82103941D01*
X144733171Y-81885559D01*
X144752451Y-81839126D01*
X145313866Y-81839126D01*
X145431908Y-82124809D01*
X145650290Y-82343573D01*
X145935767Y-82462114D01*
X146244877Y-82462383D01*
X146526928Y-82345842D01*
X146477442Y-82465017D01*
X146477173Y-82774127D01*
X146595215Y-83059810D01*
X146813597Y-83278574D01*
X147099074Y-83397115D01*
X147408184Y-83397384D01*
X147693867Y-83279342D01*
X147912631Y-83060960D01*
X148031172Y-82775483D01*
X148031441Y-82466373D01*
X147913399Y-82180690D01*
X147695017Y-81961926D01*
X147409540Y-81843385D01*
X147100430Y-81843116D01*
X146818379Y-81959657D01*
X146867865Y-81840482D01*
X146868134Y-81531372D01*
X146750092Y-81245689D01*
X146531710Y-81026925D01*
X146246233Y-80908384D01*
X145937123Y-80908115D01*
X145651440Y-81026157D01*
X145432676Y-81244539D01*
X145314135Y-81530016D01*
X145313866Y-81839126D01*
X144752451Y-81839126D01*
X144851712Y-81600082D01*
X144851981Y-81290972D01*
X144733939Y-81005289D01*
X144515557Y-80786525D01*
X144230080Y-80667984D01*
X143920970Y-80667715D01*
X143851846Y-80696277D01*
X143851846Y-80382846D01*
X143847852Y-80362767D01*
X143815537Y-80200305D01*
X143712136Y-80045556D01*
X142375580Y-78709000D01*
X145026740Y-78709000D01*
X145122311Y-78728010D01*
G36*
X162154908Y-76334760D02*
X162237000Y-76416996D01*
X162237000Y-78034000D01*
X157876007Y-82394993D01*
X157876134Y-82249123D01*
X157758092Y-81963440D01*
X157539710Y-81744676D01*
X157254233Y-81626135D01*
X156945123Y-81625866D01*
X156659440Y-81743908D01*
X156440676Y-81962290D01*
X156322135Y-82247767D01*
X156321866Y-82556877D01*
X156439908Y-82842560D01*
X156658290Y-83061324D01*
X156943767Y-83179865D01*
X157091007Y-83179993D01*
X154703117Y-85567883D01*
X153804868Y-85567883D01*
X153879171Y-85493710D01*
X153997712Y-85208233D01*
X153997981Y-84899123D01*
X153879939Y-84613440D01*
X153661557Y-84394676D01*
X153376080Y-84276135D01*
X153066970Y-84275866D01*
X152781287Y-84393908D01*
X152708889Y-84466180D01*
X152637510Y-84394676D01*
X152352033Y-84276135D01*
X152076725Y-84275895D01*
X152734343Y-83618277D01*
X153858066Y-83618277D01*
X153976108Y-83903960D01*
X154194490Y-84122724D01*
X154479967Y-84241265D01*
X154789077Y-84241534D01*
X155074760Y-84123492D01*
X155293524Y-83905110D01*
X155412065Y-83619633D01*
X155412334Y-83310523D01*
X155294292Y-83024840D01*
X155075910Y-82806076D01*
X154790433Y-82687535D01*
X154481323Y-82687266D01*
X154195640Y-82805308D01*
X153976876Y-83023690D01*
X153858335Y-83309167D01*
X153858066Y-83618277D01*
X152734343Y-83618277D01*
X156569743Y-79782877D01*
X158480866Y-79782877D01*
X158598908Y-80068560D01*
X158817290Y-80287324D01*
X159102767Y-80405865D01*
X159411877Y-80406134D01*
X159697560Y-80288092D01*
X159916324Y-80069710D01*
X160034865Y-79784233D01*
X160035134Y-79475123D01*
X159917092Y-79189440D01*
X159698710Y-78970676D01*
X159413233Y-78852135D01*
X159104123Y-78851866D01*
X158818440Y-78969908D01*
X158599676Y-79188290D01*
X158481135Y-79473767D01*
X158480866Y-79782877D01*
X156569743Y-79782877D01*
X160025620Y-76327000D01*
X162151702Y-76327000D01*
X162154908Y-76334760D01*
X162154908Y-76334760D01*
G37*
X162154908Y-76334760D02*
X162237000Y-76416996D01*
X162237000Y-78034000D01*
X157876007Y-82394993D01*
X157876134Y-82249123D01*
X157758092Y-81963440D01*
X157539710Y-81744676D01*
X157254233Y-81626135D01*
X156945123Y-81625866D01*
X156659440Y-81743908D01*
X156440676Y-81962290D01*
X156322135Y-82247767D01*
X156321866Y-82556877D01*
X156439908Y-82842560D01*
X156658290Y-83061324D01*
X156943767Y-83179865D01*
X157091007Y-83179993D01*
X154703117Y-85567883D01*
X153804868Y-85567883D01*
X153879171Y-85493710D01*
X153997712Y-85208233D01*
X153997981Y-84899123D01*
X153879939Y-84613440D01*
X153661557Y-84394676D01*
X153376080Y-84276135D01*
X153066970Y-84275866D01*
X152781287Y-84393908D01*
X152708889Y-84466180D01*
X152637510Y-84394676D01*
X152352033Y-84276135D01*
X152076725Y-84275895D01*
X152734343Y-83618277D01*
X153858066Y-83618277D01*
X153976108Y-83903960D01*
X154194490Y-84122724D01*
X154479967Y-84241265D01*
X154789077Y-84241534D01*
X155074760Y-84123492D01*
X155293524Y-83905110D01*
X155412065Y-83619633D01*
X155412334Y-83310523D01*
X155294292Y-83024840D01*
X155075910Y-82806076D01*
X154790433Y-82687535D01*
X154481323Y-82687266D01*
X154195640Y-82805308D01*
X153976876Y-83023690D01*
X153858335Y-83309167D01*
X153858066Y-83618277D01*
X152734343Y-83618277D01*
X156569743Y-79782877D01*
X158480866Y-79782877D01*
X158598908Y-80068560D01*
X158817290Y-80287324D01*
X159102767Y-80405865D01*
X159411877Y-80406134D01*
X159697560Y-80288092D01*
X159916324Y-80069710D01*
X160034865Y-79784233D01*
X160035134Y-79475123D01*
X159917092Y-79189440D01*
X159698710Y-78970676D01*
X159413233Y-78852135D01*
X159104123Y-78851866D01*
X158818440Y-78969908D01*
X158599676Y-79188290D01*
X158481135Y-79473767D01*
X158480866Y-79782877D01*
X156569743Y-79782877D01*
X160025620Y-76327000D01*
X162151702Y-76327000D01*
X162154908Y-76334760D01*
G36*
X127227773Y-75744541D02*
X133854853Y-82371621D01*
X134009603Y-82475022D01*
X134192143Y-82511331D01*
X137536670Y-82511331D01*
X138763997Y-83738658D01*
X138625440Y-83795908D01*
X138406676Y-84014290D01*
X138288135Y-84299767D01*
X138287866Y-84608877D01*
X138405908Y-84894560D01*
X138624290Y-85113324D01*
X138797582Y-85185282D01*
X138796135Y-85188767D01*
X138795866Y-85497877D01*
X138824428Y-85567001D01*
X133157999Y-85567001D01*
X133156836Y-85567232D01*
X133032500Y-85542500D01*
X132756766Y-85542500D01*
X131008951Y-83794685D01*
X135463366Y-83794685D01*
X135581408Y-84080368D01*
X135799790Y-84299132D01*
X136085267Y-84417673D01*
X136394377Y-84417942D01*
X136680060Y-84299900D01*
X136898824Y-84081518D01*
X137017365Y-83796041D01*
X137017634Y-83486931D01*
X136899592Y-83201248D01*
X136681210Y-82982484D01*
X136395733Y-82863943D01*
X136086623Y-82863674D01*
X135800940Y-82981716D01*
X135582176Y-83200098D01*
X135463635Y-83485575D01*
X135463366Y-83794685D01*
X131008951Y-83794685D01*
X125193743Y-77979477D01*
X126476866Y-77979477D01*
X126594908Y-78265160D01*
X126813290Y-78483924D01*
X127098767Y-78602465D01*
X127407877Y-78602734D01*
X127693560Y-78484692D01*
X127912324Y-78266310D01*
X128030865Y-77980833D01*
X128031134Y-77671723D01*
X127913092Y-77386040D01*
X127694710Y-77167276D01*
X127409233Y-77048735D01*
X127100123Y-77048466D01*
X126814440Y-77166508D01*
X126595676Y-77384890D01*
X126477135Y-77670367D01*
X126476866Y-77979477D01*
X125193743Y-77979477D01*
X121542536Y-74328270D01*
X121866175Y-74328270D01*
X127227773Y-75744541D01*
X127227773Y-75744541D01*
G37*
X127227773Y-75744541D02*
X133854853Y-82371621D01*
X134009603Y-82475022D01*
X134192143Y-82511331D01*
X137536670Y-82511331D01*
X138763997Y-83738658D01*
X138625440Y-83795908D01*
X138406676Y-84014290D01*
X138288135Y-84299767D01*
X138287866Y-84608877D01*
X138405908Y-84894560D01*
X138624290Y-85113324D01*
X138797582Y-85185282D01*
X138796135Y-85188767D01*
X138795866Y-85497877D01*
X138824428Y-85567001D01*
X133157999Y-85567001D01*
X133156836Y-85567232D01*
X133032500Y-85542500D01*
X132756766Y-85542500D01*
X131008951Y-83794685D01*
X135463366Y-83794685D01*
X135581408Y-84080368D01*
X135799790Y-84299132D01*
X136085267Y-84417673D01*
X136394377Y-84417942D01*
X136680060Y-84299900D01*
X136898824Y-84081518D01*
X137017365Y-83796041D01*
X137017634Y-83486931D01*
X136899592Y-83201248D01*
X136681210Y-82982484D01*
X136395733Y-82863943D01*
X136086623Y-82863674D01*
X135800940Y-82981716D01*
X135582176Y-83200098D01*
X135463635Y-83485575D01*
X135463366Y-83794685D01*
X131008951Y-83794685D01*
X125193743Y-77979477D01*
X126476866Y-77979477D01*
X126594908Y-78265160D01*
X126813290Y-78483924D01*
X127098767Y-78602465D01*
X127407877Y-78602734D01*
X127693560Y-78484692D01*
X127912324Y-78266310D01*
X128030865Y-77980833D01*
X128031134Y-77671723D01*
X127913092Y-77386040D01*
X127694710Y-77167276D01*
X127409233Y-77048735D01*
X127100123Y-77048466D01*
X126814440Y-77166508D01*
X126595676Y-77384890D01*
X126477135Y-77670367D01*
X126476866Y-77979477D01*
X125193743Y-77979477D01*
X121542536Y-74328270D01*
X121866175Y-74328270D01*
X127227773Y-75744541D01*
G36*
X134474559Y-77979137D02*
X134498310Y-78098541D01*
X134601711Y-78253291D01*
X134676421Y-78328001D01*
X134100579Y-78328001D01*
X133667288Y-77894710D01*
X133512538Y-77791309D01*
X133329998Y-77755000D01*
X133209717Y-77755000D01*
X133147826Y-77693000D01*
X134188422Y-77693000D01*
X134474559Y-77979137D01*
X134474559Y-77979137D01*
G37*
X134474559Y-77979137D02*
X134498310Y-78098541D01*
X134601711Y-78253291D01*
X134676421Y-78328001D01*
X134100579Y-78328001D01*
X133667288Y-77894710D01*
X133512538Y-77791309D01*
X133329998Y-77755000D01*
X133209717Y-77755000D01*
X133147826Y-77693000D01*
X134188422Y-77693000D01*
X134474559Y-77979137D01*
G36*
X152773418Y-77374000D02*
X145450470Y-77374000D01*
X145401530Y-77341299D01*
X145218990Y-77304990D01*
X142143427Y-77304990D01*
X141826470Y-76988032D01*
X141663609Y-76879212D01*
X141471502Y-76840999D01*
X141471497Y-76841000D01*
X141143606Y-76841000D01*
X141657606Y-76327000D01*
X153820418Y-76327000D01*
X152773418Y-77374000D01*
X152773418Y-77374000D01*
G37*
X152773418Y-77374000D02*
X145450470Y-77374000D01*
X145401530Y-77341299D01*
X145218990Y-77304990D01*
X142143427Y-77304990D01*
X141826470Y-76988032D01*
X141663609Y-76879212D01*
X141471502Y-76840999D01*
X141471497Y-76841000D01*
X141143606Y-76841000D01*
X141657606Y-76327000D01*
X153820418Y-76327000D01*
X152773418Y-77374000D01*
M02*
